%TF.GenerationSoftware,KiCad,Pcbnew,9.0.2*%
%TF.CreationDate,2026-01-05T12:02:41+00:00*%
%TF.ProjectId,endstop-interface-board,656e6473-746f-4702-9d69-6e7465726661,rev?*%
%TF.SameCoordinates,Original*%
%TF.FileFunction,Copper,L1,Top*%
%TF.FilePolarity,Positive*%
%FSLAX46Y46*%
G04 Gerber Fmt 4.6, Leading zero omitted, Abs format (unit mm)*
G04 Created by KiCad (PCBNEW 9.0.2) date 2026-01-05 12:02:41*
%MOMM*%
%LPD*%
G01*
G04 APERTURE LIST*
G04 Aperture macros list*
%AMRoundRect*
0 Rectangle with rounded corners*
0 $1 Rounding radius*
0 $2 $3 $4 $5 $6 $7 $8 $9 X,Y pos of 4 corners*
0 Add a 4 corners polygon primitive as box body*
4,1,4,$2,$3,$4,$5,$6,$7,$8,$9,$2,$3,0*
0 Add four circle primitives for the rounded corners*
1,1,$1+$1,$2,$3*
1,1,$1+$1,$4,$5*
1,1,$1+$1,$6,$7*
1,1,$1+$1,$8,$9*
0 Add four rect primitives between the rounded corners*
20,1,$1+$1,$2,$3,$4,$5,0*
20,1,$1+$1,$4,$5,$6,$7,0*
20,1,$1+$1,$6,$7,$8,$9,0*
20,1,$1+$1,$8,$9,$2,$3,0*%
G04 Aperture macros list end*
%TA.AperFunction,ComponentPad*%
%ADD10RoundRect,0.250001X-0.949999X0.949999X-0.949999X-0.949999X0.949999X-0.949999X0.949999X0.949999X0*%
%TD*%
%TA.AperFunction,ComponentPad*%
%ADD11C,2.400000*%
%TD*%
%TA.AperFunction,SMDPad,CuDef*%
%ADD12RoundRect,0.200000X-0.200000X-0.275000X0.200000X-0.275000X0.200000X0.275000X-0.200000X0.275000X0*%
%TD*%
%TA.AperFunction,SMDPad,CuDef*%
%ADD13RoundRect,0.225000X-0.225000X-0.250000X0.225000X-0.250000X0.225000X0.250000X-0.225000X0.250000X0*%
%TD*%
%TA.AperFunction,ViaPad*%
%ADD14C,0.600000*%
%TD*%
%TA.AperFunction,Conductor*%
%ADD15C,0.200000*%
%TD*%
%TA.AperFunction,Conductor*%
%ADD16C,1.200000*%
%TD*%
G04 APERTURE END LIST*
D10*
%TO.P,J3,1,Pin_1*%
%TO.N,/SENSOR_1_IN*%
X86500000Y-64140000D03*
D11*
%TO.P,J3,2,Pin_2*%
%TO.N,/SENSOR_2_IN*%
X86500000Y-69220000D03*
%TO.P,J3,3,Pin_3*%
%TO.N,/SENSOR_3_IN*%
X86500000Y-74300000D03*
%TO.P,J3,4,Pin_4*%
%TO.N,/SENSOR_4_IN*%
X86500000Y-79380000D03*
%TO.P,J3,5,Pin_5*%
%TO.N,/SENSOR_5_IN*%
X86500000Y-84460000D03*
%TO.P,J3,6,Pin_6*%
%TO.N,/SENSOR_6_IN*%
X86500000Y-89540000D03*
%TO.P,J3,7,Pin_7*%
%TO.N,/SENSOR_7_IN*%
X86500000Y-94620000D03*
%TO.P,J3,8,Pin_8*%
%TO.N,/SENSOR_8_IN*%
X86500000Y-99700000D03*
%TO.P,J3,9,Pin_9*%
%TO.N,/SENSOR_9_IN*%
X86500000Y-104780000D03*
%TO.P,J3,10,Pin_10*%
%TO.N,/SENSOR_10_IN*%
X86500000Y-109860000D03*
%TO.P,J3,11,Pin_11*%
%TO.N,/SENSOR_11_IN*%
X86500000Y-114940000D03*
%TO.P,J3,12,Pin_12*%
%TO.N,/SENSOR_12_IN*%
X86500000Y-120020000D03*
%TD*%
D12*
%TO.P,R9,2*%
%TO.N,/SENSOR_9_IN*%
X77325000Y-104500000D03*
%TO.P,R9,1*%
%TO.N,/SENSOR_9_OUT*%
X75675000Y-104500000D03*
%TD*%
D10*
%TO.P,J1,1,Pin_1*%
%TO.N,/SENSOR_1_OUT*%
X66500000Y-64140000D03*
D11*
%TO.P,J1,2,Pin_2*%
%TO.N,/SENSOR_2_OUT*%
X66500000Y-69220000D03*
%TO.P,J1,3,Pin_3*%
%TO.N,/SENSOR_3_OUT*%
X66500000Y-74300000D03*
%TO.P,J1,4,Pin_4*%
%TO.N,/SENSOR_4_OUT*%
X66500000Y-79380000D03*
%TO.P,J1,5,Pin_5*%
%TO.N,/SENSOR_5_OUT*%
X66500000Y-84460000D03*
%TO.P,J1,6,Pin_6*%
%TO.N,/SENSOR_6_OUT*%
X66500000Y-89540000D03*
%TO.P,J1,7,Pin_7*%
%TO.N,/SENSOR_7_OUT*%
X66500000Y-94620000D03*
%TO.P,J1,8,Pin_8*%
%TO.N,/SENSOR_8_OUT*%
X66500000Y-99700000D03*
%TO.P,J1,9,Pin_9*%
%TO.N,/SENSOR_9_OUT*%
X66500000Y-104780000D03*
%TO.P,J1,10,Pin_10*%
%TO.N,/SENSOR_10_OUT*%
X66500000Y-109860000D03*
%TO.P,J1,11,Pin_11*%
%TO.N,/SENSOR_11_OUT*%
X66500000Y-114940000D03*
%TO.P,J1,12,Pin_12*%
%TO.N,/SENSOR_12_OUT*%
X66500000Y-120020000D03*
%TO.P,J1,13,Pin_13*%
%TO.N,VCC*%
X66500000Y-125100000D03*
%TO.P,J1,14,Pin_14*%
%TO.N,GND*%
X66500000Y-130180000D03*
%TO.P,J1,15,Pin_15*%
%TO.N,Earth*%
X66500000Y-135260000D03*
%TD*%
%TO.P,J2,12,Pin_12*%
%TO.N,VCC*%
X116500000Y-120020000D03*
%TO.P,J2,11,Pin_11*%
X116500000Y-114940000D03*
%TO.P,J2,10,Pin_10*%
X116500000Y-109860000D03*
%TO.P,J2,9,Pin_9*%
X116500000Y-104780000D03*
%TO.P,J2,8,Pin_8*%
X116500000Y-99700000D03*
%TO.P,J2,7,Pin_7*%
X116500000Y-94620000D03*
%TO.P,J2,6,Pin_6*%
X116500000Y-89540000D03*
%TO.P,J2,5,Pin_5*%
X116500000Y-84460000D03*
%TO.P,J2,4,Pin_4*%
X116500000Y-79380000D03*
%TO.P,J2,3,Pin_3*%
X116500000Y-74300000D03*
%TO.P,J2,2,Pin_2*%
X116500000Y-69220000D03*
D10*
%TO.P,J2,1,Pin_1*%
X116500000Y-64140000D03*
%TD*%
D12*
%TO.P,R12,1*%
%TO.N,/SENSOR_12_OUT*%
X75675000Y-120000000D03*
%TO.P,R12,2*%
%TO.N,/SENSOR_12_IN*%
X77325000Y-120000000D03*
%TD*%
%TO.P,R11,1*%
%TO.N,/SENSOR_11_OUT*%
X75675000Y-115000000D03*
%TO.P,R11,2*%
%TO.N,/SENSOR_11_IN*%
X77325000Y-115000000D03*
%TD*%
%TO.P,R10,1*%
%TO.N,/SENSOR_10_OUT*%
X75675000Y-110000000D03*
%TO.P,R10,2*%
%TO.N,/SENSOR_10_IN*%
X77325000Y-110000000D03*
%TD*%
%TO.P,R8,1*%
%TO.N,/SENSOR_8_OUT*%
X75675000Y-99500000D03*
%TO.P,R8,2*%
%TO.N,/SENSOR_8_IN*%
X77325000Y-99500000D03*
%TD*%
%TO.P,R7,1*%
%TO.N,/SENSOR_7_OUT*%
X75675000Y-94500000D03*
%TO.P,R7,2*%
%TO.N,/SENSOR_7_IN*%
X77325000Y-94500000D03*
%TD*%
%TO.P,R6,1*%
%TO.N,/SENSOR_6_OUT*%
X75675000Y-89500000D03*
%TO.P,R6,2*%
%TO.N,/SENSOR_6_IN*%
X77325000Y-89500000D03*
%TD*%
%TO.P,R5,1*%
%TO.N,/SENSOR_5_OUT*%
X75675000Y-84000000D03*
%TO.P,R5,2*%
%TO.N,/SENSOR_5_IN*%
X77325000Y-84000000D03*
%TD*%
%TO.P,R4,1*%
%TO.N,/SENSOR_4_OUT*%
X75675000Y-79000000D03*
%TO.P,R4,2*%
%TO.N,/SENSOR_4_IN*%
X77325000Y-79000000D03*
%TD*%
%TO.P,R3,1*%
%TO.N,/SENSOR_3_OUT*%
X75675000Y-74000000D03*
%TO.P,R3,2*%
%TO.N,/SENSOR_3_IN*%
X77325000Y-74000000D03*
%TD*%
%TO.P,R2,1*%
%TO.N,/SENSOR_2_OUT*%
X75675000Y-69000000D03*
%TO.P,R2,2*%
%TO.N,/SENSOR_2_IN*%
X77325000Y-69000000D03*
%TD*%
%TO.P,R1,1*%
%TO.N,/SENSOR_1_OUT*%
X75675000Y-64000000D03*
%TO.P,R1,2*%
%TO.N,/SENSOR_1_IN*%
X77325000Y-64000000D03*
%TD*%
D10*
%TO.P,J4,1,Pin_1*%
%TO.N,GND*%
X146500000Y-64140000D03*
D11*
%TO.P,J4,2,Pin_2*%
X146500000Y-69220000D03*
%TO.P,J4,3,Pin_3*%
X146500000Y-74300000D03*
%TO.P,J4,4,Pin_4*%
X146500000Y-79380000D03*
%TO.P,J4,5,Pin_5*%
X146500000Y-84460000D03*
%TO.P,J4,6,Pin_6*%
X146500000Y-89540000D03*
%TO.P,J4,7,Pin_7*%
X146500000Y-94620000D03*
%TO.P,J4,8,Pin_8*%
X146500000Y-99700000D03*
%TO.P,J4,9,Pin_9*%
X146500000Y-104780000D03*
%TO.P,J4,10,Pin_10*%
X146500000Y-109860000D03*
%TO.P,J4,11,Pin_11*%
X146500000Y-114940000D03*
%TO.P,J4,12,Pin_12*%
X146500000Y-120020000D03*
%TO.P,J4,13,Pin_13*%
%TO.N,Earth*%
X146500000Y-125100000D03*
%TO.P,J4,14,Pin_14*%
X146500000Y-130180000D03*
%TO.P,J4,15,Pin_15*%
X146500000Y-135260000D03*
%TD*%
D13*
%TO.P,C12,1*%
%TO.N,/SENSOR_12_OUT*%
X75725000Y-121500000D03*
%TO.P,C12,2*%
%TO.N,GND*%
X77275000Y-121500000D03*
%TD*%
%TO.P,C11,1*%
%TO.N,/SENSOR_11_OUT*%
X75725000Y-116500000D03*
%TO.P,C11,2*%
%TO.N,GND*%
X77275000Y-116500000D03*
%TD*%
%TO.P,C10,1*%
%TO.N,/SENSOR_10_OUT*%
X75725000Y-111500000D03*
%TO.P,C10,2*%
%TO.N,GND*%
X77275000Y-111500000D03*
%TD*%
%TO.P,C9,1*%
%TO.N,/SENSOR_9_OUT*%
X75725000Y-105970000D03*
%TO.P,C9,2*%
%TO.N,GND*%
X77275000Y-105970000D03*
%TD*%
%TO.P,C8,1*%
%TO.N,/SENSOR_8_OUT*%
X75725000Y-101000000D03*
%TO.P,C8,2*%
%TO.N,GND*%
X77275000Y-101000000D03*
%TD*%
%TO.P,C7,1*%
%TO.N,/SENSOR_7_OUT*%
X75725000Y-96000000D03*
%TO.P,C7,2*%
%TO.N,GND*%
X77275000Y-96000000D03*
%TD*%
%TO.P,C6,1*%
%TO.N,/SENSOR_6_OUT*%
X75725000Y-91000000D03*
%TO.P,C6,2*%
%TO.N,GND*%
X77275000Y-91000000D03*
%TD*%
%TO.P,C5,1*%
%TO.N,/SENSOR_5_OUT*%
X75725000Y-85500000D03*
%TO.P,C5,2*%
%TO.N,GND*%
X77275000Y-85500000D03*
%TD*%
%TO.P,C4,1*%
%TO.N,/SENSOR_4_OUT*%
X75725000Y-80500000D03*
%TO.P,C4,2*%
%TO.N,GND*%
X77275000Y-80500000D03*
%TD*%
%TO.P,C3,1*%
%TO.N,/SENSOR_3_OUT*%
X75725000Y-75500000D03*
%TO.P,C3,2*%
%TO.N,GND*%
X77275000Y-75500000D03*
%TD*%
%TO.P,C2,1*%
%TO.N,/SENSOR_2_OUT*%
X75725000Y-70500000D03*
%TO.P,C2,2*%
%TO.N,GND*%
X77275000Y-70500000D03*
%TD*%
%TO.P,C1,1*%
%TO.N,/SENSOR_1_OUT*%
X75725000Y-65500000D03*
%TO.P,C1,2*%
%TO.N,GND*%
X77275000Y-65500000D03*
%TD*%
D14*
%TO.N,GND*%
X79000000Y-65500000D03*
X79000000Y-70500000D03*
X79000000Y-75500000D03*
X79000000Y-80500000D03*
X79000000Y-85500000D03*
X79000000Y-91000000D03*
X79000000Y-96000000D03*
X79000000Y-101000000D03*
X79000000Y-111500000D03*
X79000000Y-116500000D03*
X79000000Y-121500000D03*
X79000000Y-106000000D03*
%TD*%
D15*
%TO.N,GND*%
X77275000Y-65500000D02*
X79000000Y-65500000D01*
X77275000Y-70500000D02*
X79000000Y-70500000D01*
X77275000Y-75500000D02*
X79000000Y-75500000D01*
X77275000Y-80500000D02*
X79000000Y-80500000D01*
X77275000Y-85500000D02*
X79000000Y-85500000D01*
X77275000Y-91000000D02*
X79000000Y-91000000D01*
X77275000Y-96000000D02*
X79000000Y-96000000D01*
X77275000Y-101000000D02*
X79000000Y-101000000D01*
X77275000Y-111500000D02*
X79000000Y-111500000D01*
X77275000Y-116500000D02*
X79000000Y-116500000D01*
X77275000Y-121500000D02*
X79000000Y-121500000D01*
D16*
%TO.N,VCC*%
X116500000Y-123500000D02*
X116500000Y-120020000D01*
X114900000Y-125100000D02*
X116500000Y-123500000D01*
X66500000Y-125100000D02*
X114900000Y-125100000D01*
X116500000Y-64140000D02*
X116500000Y-120020000D01*
%TO.N,Earth*%
X146500000Y-135260000D02*
X146500000Y-125100000D01*
X66500000Y-135260000D02*
X146500000Y-135260000D01*
D15*
%TO.N,/SENSOR_12_IN*%
X86480000Y-120000000D02*
X86500000Y-120020000D01*
X77325000Y-120000000D02*
X86480000Y-120000000D01*
%TO.N,/SENSOR_12_OUT*%
X75675000Y-120000000D02*
X75675000Y-121450000D01*
X75675000Y-121450000D02*
X75725000Y-121500000D01*
X75655000Y-120020000D02*
X75675000Y-120000000D01*
X66500000Y-120020000D02*
X75655000Y-120020000D01*
%TO.N,/SENSOR_11_IN*%
X86440000Y-115000000D02*
X86500000Y-114940000D01*
X77325000Y-115000000D02*
X86440000Y-115000000D01*
%TO.N,/SENSOR_11_OUT*%
X75675000Y-116450000D02*
X75725000Y-116500000D01*
X75675000Y-115000000D02*
X75675000Y-116450000D01*
X75615000Y-114940000D02*
X75675000Y-115000000D01*
X66500000Y-114940000D02*
X75615000Y-114940000D01*
%TO.N,/SENSOR_10_IN*%
X86140000Y-109500000D02*
X86500000Y-109860000D01*
X77325000Y-109500000D02*
X86140000Y-109500000D01*
%TO.N,/SENSOR_10_OUT*%
X75675000Y-111450000D02*
X75725000Y-111500000D01*
X75675000Y-110000000D02*
X75675000Y-111450000D01*
X75315000Y-110360000D02*
X75675000Y-110000000D01*
X66500000Y-109860000D02*
X75315000Y-109860000D01*
%TO.N,/SENSOR_9_IN*%
X86250000Y-104530000D02*
X86500000Y-104780000D01*
X77325000Y-104530000D02*
X86250000Y-104530000D01*
%TO.N,/SENSOR_9_OUT*%
X75675000Y-105920000D02*
X75725000Y-105970000D01*
X75675000Y-104500000D02*
X75675000Y-105920000D01*
X75425000Y-104750000D02*
X75675000Y-104500000D01*
X66500000Y-104780000D02*
X75425000Y-104780000D01*
%TO.N,/SENSOR_8_IN*%
X86300000Y-99500000D02*
X86500000Y-99700000D01*
X77325000Y-99500000D02*
X86300000Y-99500000D01*
%TO.N,/SENSOR_8_OUT*%
X75675000Y-100950000D02*
X75725000Y-101000000D01*
X75675000Y-99500000D02*
X75675000Y-100950000D01*
X75475000Y-99700000D02*
X75675000Y-99500000D01*
X66500000Y-99700000D02*
X75475000Y-99700000D01*
%TO.N,/SENSOR_7_IN*%
X77325000Y-94500000D02*
X86380000Y-94500000D01*
X86380000Y-94500000D02*
X86500000Y-94620000D01*
%TO.N,/SENSOR_7_OUT*%
X75675000Y-94500000D02*
X75675000Y-95950000D01*
X75675000Y-95950000D02*
X75725000Y-96000000D01*
X75555000Y-94620000D02*
X75675000Y-94500000D01*
X66500000Y-94620000D02*
X75555000Y-94620000D01*
%TO.N,/SENSOR_6_OUT*%
X75675000Y-89500000D02*
X75675000Y-90950000D01*
X75675000Y-90950000D02*
X75725000Y-91000000D01*
%TO.N,/SENSOR_6_IN*%
X86460000Y-89500000D02*
X86500000Y-89540000D01*
X77325000Y-89500000D02*
X86460000Y-89500000D01*
%TO.N,/SENSOR_6_OUT*%
X75635000Y-89540000D02*
X75675000Y-89500000D01*
X66500000Y-89540000D02*
X75635000Y-89540000D01*
%TO.N,/SENSOR_5_OUT*%
X75675000Y-85450000D02*
X75725000Y-85500000D01*
X75675000Y-84000000D02*
X75675000Y-85450000D01*
%TO.N,/SENSOR_5_IN*%
X86040000Y-84000000D02*
X86500000Y-84460000D01*
X77325000Y-84000000D02*
X86040000Y-84000000D01*
%TO.N,/SENSOR_5_OUT*%
X75215000Y-84460000D02*
X75675000Y-84000000D01*
X66500000Y-84460000D02*
X75215000Y-84460000D01*
%TO.N,/SENSOR_4_IN*%
X86120000Y-79000000D02*
X86500000Y-79380000D01*
X77325000Y-79000000D02*
X86120000Y-79000000D01*
%TO.N,/SENSOR_4_OUT*%
X75675000Y-80450000D02*
X75725000Y-80500000D01*
X75675000Y-79000000D02*
X75675000Y-80450000D01*
X75295000Y-79380000D02*
X75675000Y-79000000D01*
X66500000Y-79380000D02*
X75295000Y-79380000D01*
%TO.N,/SENSOR_3_IN*%
X86200000Y-74000000D02*
X86500000Y-74300000D01*
X77325000Y-74000000D02*
X86200000Y-74000000D01*
%TO.N,/SENSOR_3_OUT*%
X75675000Y-75450000D02*
X75725000Y-75500000D01*
X75675000Y-74000000D02*
X75675000Y-75450000D01*
X75375000Y-74300000D02*
X75675000Y-74000000D01*
X66500000Y-74300000D02*
X75375000Y-74300000D01*
%TO.N,/SENSOR_2_IN*%
X86280000Y-69000000D02*
X86500000Y-69220000D01*
X77325000Y-69000000D02*
X86280000Y-69000000D01*
%TO.N,/SENSOR_2_OUT*%
X75675000Y-70450000D02*
X75725000Y-70500000D01*
X75675000Y-69000000D02*
X75675000Y-70450000D01*
X75455000Y-69220000D02*
X75675000Y-69000000D01*
X66500000Y-69220000D02*
X75455000Y-69220000D01*
%TO.N,/SENSOR_1_IN*%
X86360000Y-64000000D02*
X86500000Y-64140000D01*
X77325000Y-64000000D02*
X86360000Y-64000000D01*
%TO.N,/SENSOR_1_OUT*%
X75675000Y-65450000D02*
X75725000Y-65500000D01*
X75675000Y-64000000D02*
X75675000Y-65450000D01*
X75535000Y-64140000D02*
X75675000Y-64000000D01*
X66500000Y-64140000D02*
X75535000Y-64140000D01*
%TO.N,GND*%
X77275000Y-105970000D02*
X78970000Y-105970000D01*
X78970000Y-105970000D02*
X79000000Y-106000000D01*
%TD*%
%TA.AperFunction,Conductor*%
%TO.N,GND*%
G36*
X159442539Y-54520185D02*
G01*
X159488294Y-54572989D01*
X159499500Y-54624500D01*
X159499500Y-145375500D01*
X159479815Y-145442539D01*
X159427011Y-145488294D01*
X159375500Y-145499500D01*
X60624500Y-145499500D01*
X60557461Y-145479815D01*
X60511706Y-145427011D01*
X60500500Y-145375500D01*
X60500500Y-142378711D01*
X61649500Y-142378711D01*
X61649500Y-142621288D01*
X61681161Y-142861785D01*
X61743947Y-143096104D01*
X61836773Y-143320205D01*
X61836776Y-143320212D01*
X61958064Y-143530289D01*
X61958066Y-143530292D01*
X61958067Y-143530293D01*
X62105733Y-143722736D01*
X62105739Y-143722743D01*
X62277256Y-143894260D01*
X62277262Y-143894265D01*
X62469711Y-144041936D01*
X62679788Y-144163224D01*
X62903900Y-144256054D01*
X63138211Y-144318838D01*
X63318586Y-144342584D01*
X63378711Y-144350500D01*
X63378712Y-144350500D01*
X63621289Y-144350500D01*
X63669388Y-144344167D01*
X63861789Y-144318838D01*
X64096100Y-144256054D01*
X64320212Y-144163224D01*
X64530289Y-144041936D01*
X64722738Y-143894265D01*
X64894265Y-143722738D01*
X65041936Y-143530289D01*
X65163224Y-143320212D01*
X65256054Y-143096100D01*
X65318838Y-142861789D01*
X65350500Y-142621288D01*
X65350500Y-142378712D01*
X65350500Y-142378711D01*
X154649500Y-142378711D01*
X154649500Y-142621288D01*
X154681161Y-142861785D01*
X154743947Y-143096104D01*
X154836773Y-143320205D01*
X154836776Y-143320212D01*
X154958064Y-143530289D01*
X154958066Y-143530292D01*
X154958067Y-143530293D01*
X155105733Y-143722736D01*
X155105739Y-143722743D01*
X155277256Y-143894260D01*
X155277262Y-143894265D01*
X155469711Y-144041936D01*
X155679788Y-144163224D01*
X155903900Y-144256054D01*
X156138211Y-144318838D01*
X156318586Y-144342584D01*
X156378711Y-144350500D01*
X156378712Y-144350500D01*
X156621289Y-144350500D01*
X156669388Y-144344167D01*
X156861789Y-144318838D01*
X157096100Y-144256054D01*
X157320212Y-144163224D01*
X157530289Y-144041936D01*
X157722738Y-143894265D01*
X157894265Y-143722738D01*
X158041936Y-143530289D01*
X158163224Y-143320212D01*
X158256054Y-143096100D01*
X158318838Y-142861789D01*
X158350500Y-142621288D01*
X158350500Y-142378712D01*
X158318838Y-142138211D01*
X158256054Y-141903900D01*
X158163224Y-141679788D01*
X158041936Y-141469711D01*
X157894265Y-141277262D01*
X157894260Y-141277256D01*
X157722743Y-141105739D01*
X157722736Y-141105733D01*
X157530293Y-140958067D01*
X157530292Y-140958066D01*
X157530289Y-140958064D01*
X157320212Y-140836776D01*
X157320205Y-140836773D01*
X157096104Y-140743947D01*
X156861785Y-140681161D01*
X156621289Y-140649500D01*
X156621288Y-140649500D01*
X156378712Y-140649500D01*
X156378711Y-140649500D01*
X156138214Y-140681161D01*
X155903895Y-140743947D01*
X155679794Y-140836773D01*
X155679785Y-140836777D01*
X155469706Y-140958067D01*
X155277263Y-141105733D01*
X155277256Y-141105739D01*
X155105739Y-141277256D01*
X155105733Y-141277263D01*
X154958067Y-141469706D01*
X154836777Y-141679785D01*
X154836773Y-141679794D01*
X154743947Y-141903895D01*
X154681161Y-142138214D01*
X154649500Y-142378711D01*
X65350500Y-142378711D01*
X65318838Y-142138211D01*
X65256054Y-141903900D01*
X65163224Y-141679788D01*
X65041936Y-141469711D01*
X64894265Y-141277262D01*
X64894260Y-141277256D01*
X64722743Y-141105739D01*
X64722736Y-141105733D01*
X64530293Y-140958067D01*
X64530292Y-140958066D01*
X64530289Y-140958064D01*
X64320212Y-140836776D01*
X64320205Y-140836773D01*
X64096104Y-140743947D01*
X63861785Y-140681161D01*
X63621289Y-140649500D01*
X63621288Y-140649500D01*
X63378712Y-140649500D01*
X63378711Y-140649500D01*
X63138214Y-140681161D01*
X62903895Y-140743947D01*
X62679794Y-140836773D01*
X62679785Y-140836777D01*
X62469706Y-140958067D01*
X62277263Y-141105733D01*
X62277256Y-141105739D01*
X62105739Y-141277256D01*
X62105733Y-141277263D01*
X61958067Y-141469706D01*
X61836777Y-141679785D01*
X61836773Y-141679794D01*
X61743947Y-141903895D01*
X61681161Y-142138214D01*
X61649500Y-142378711D01*
X60500500Y-142378711D01*
X60500500Y-135148549D01*
X64799500Y-135148549D01*
X64799500Y-135371450D01*
X64799501Y-135371466D01*
X64828594Y-135592452D01*
X64828595Y-135592457D01*
X64828596Y-135592463D01*
X64828597Y-135592465D01*
X64886290Y-135807780D01*
X64886293Y-135807790D01*
X64971593Y-136013722D01*
X64971595Y-136013726D01*
X65083052Y-136206774D01*
X65083057Y-136206780D01*
X65083058Y-136206782D01*
X65218751Y-136383622D01*
X65218757Y-136383629D01*
X65376370Y-136541242D01*
X65376377Y-136541248D01*
X65502294Y-136637867D01*
X65553226Y-136676948D01*
X65746274Y-136788405D01*
X65952219Y-136873710D01*
X66167537Y-136931404D01*
X66388543Y-136960500D01*
X66388550Y-136960500D01*
X66611450Y-136960500D01*
X66611457Y-136960500D01*
X66832463Y-136931404D01*
X67047781Y-136873710D01*
X67253726Y-136788405D01*
X67446774Y-136676948D01*
X67623624Y-136541247D01*
X67768053Y-136396817D01*
X67829374Y-136363334D01*
X67855733Y-136360500D01*
X145144267Y-136360500D01*
X145211306Y-136380185D01*
X145231943Y-136396814D01*
X145376371Y-136541242D01*
X145376378Y-136541249D01*
X145523473Y-136654118D01*
X145553226Y-136676948D01*
X145746274Y-136788405D01*
X145952219Y-136873710D01*
X146167537Y-136931404D01*
X146388543Y-136960500D01*
X146388550Y-136960500D01*
X146611450Y-136960500D01*
X146611457Y-136960500D01*
X146832463Y-136931404D01*
X147047781Y-136873710D01*
X147253726Y-136788405D01*
X147446774Y-136676948D01*
X147623624Y-136541247D01*
X147781247Y-136383624D01*
X147916948Y-136206774D01*
X148028405Y-136013726D01*
X148113710Y-135807781D01*
X148171404Y-135592463D01*
X148200500Y-135371457D01*
X148200500Y-135148543D01*
X148171404Y-134927537D01*
X148113710Y-134712219D01*
X148028405Y-134506274D01*
X147916948Y-134313226D01*
X147781247Y-134136376D01*
X147781242Y-134136370D01*
X147636819Y-133991947D01*
X147603334Y-133930624D01*
X147600500Y-133904266D01*
X147600500Y-131535733D01*
X147620185Y-131468694D01*
X147636814Y-131448056D01*
X147781247Y-131303624D01*
X147916948Y-131126774D01*
X148028405Y-130933726D01*
X148113710Y-130727781D01*
X148171404Y-130512463D01*
X148200500Y-130291457D01*
X148200500Y-130068543D01*
X148171404Y-129847537D01*
X148113710Y-129632219D01*
X148028405Y-129426274D01*
X147916948Y-129233226D01*
X147781247Y-129056376D01*
X147781242Y-129056370D01*
X147636819Y-128911947D01*
X147603334Y-128850624D01*
X147600500Y-128824266D01*
X147600500Y-126455733D01*
X147620185Y-126388694D01*
X147636814Y-126368056D01*
X147781247Y-126223624D01*
X147916948Y-126046774D01*
X148028405Y-125853726D01*
X148113710Y-125647781D01*
X148171404Y-125432463D01*
X148200500Y-125211457D01*
X148200500Y-124988543D01*
X148171404Y-124767537D01*
X148113710Y-124552219D01*
X148028405Y-124346274D01*
X147916948Y-124153226D01*
X147781247Y-123976376D01*
X147781242Y-123976370D01*
X147623629Y-123818757D01*
X147623622Y-123818751D01*
X147446782Y-123683058D01*
X147446780Y-123683057D01*
X147446774Y-123683052D01*
X147253726Y-123571595D01*
X147253722Y-123571593D01*
X147047790Y-123486293D01*
X147047783Y-123486291D01*
X147047781Y-123486290D01*
X146832463Y-123428596D01*
X146832457Y-123428595D01*
X146832452Y-123428594D01*
X146611466Y-123399501D01*
X146611463Y-123399500D01*
X146611457Y-123399500D01*
X146388543Y-123399500D01*
X146388537Y-123399500D01*
X146388533Y-123399501D01*
X146167547Y-123428594D01*
X146167540Y-123428595D01*
X146167537Y-123428596D01*
X145952219Y-123486290D01*
X145952209Y-123486293D01*
X145746277Y-123571593D01*
X145746273Y-123571595D01*
X145553226Y-123683052D01*
X145553217Y-123683058D01*
X145376377Y-123818751D01*
X145376370Y-123818757D01*
X145218757Y-123976370D01*
X145218751Y-123976377D01*
X145083058Y-124153217D01*
X145083052Y-124153226D01*
X144971595Y-124346273D01*
X144971593Y-124346277D01*
X144886293Y-124552209D01*
X144886290Y-124552219D01*
X144828597Y-124767534D01*
X144828594Y-124767547D01*
X144799501Y-124988533D01*
X144799500Y-124988549D01*
X144799500Y-125211450D01*
X144799501Y-125211466D01*
X144828594Y-125432452D01*
X144828595Y-125432457D01*
X144828596Y-125432463D01*
X144828597Y-125432465D01*
X144886290Y-125647780D01*
X144886293Y-125647790D01*
X144971593Y-125853722D01*
X144971595Y-125853726D01*
X145083052Y-126046774D01*
X145083057Y-126046780D01*
X145083058Y-126046782D01*
X145218750Y-126223621D01*
X145218751Y-126223622D01*
X145218753Y-126223624D01*
X145363182Y-126368053D01*
X145396666Y-126429374D01*
X145399500Y-126455733D01*
X145399500Y-128824266D01*
X145379815Y-128891305D01*
X145363181Y-128911947D01*
X145218757Y-129056370D01*
X145218751Y-129056377D01*
X145083058Y-129233217D01*
X145083052Y-129233226D01*
X144971595Y-129426273D01*
X144971593Y-129426277D01*
X144886293Y-129632209D01*
X144886290Y-129632219D01*
X144828597Y-129847534D01*
X144828594Y-129847547D01*
X144799501Y-130068533D01*
X144799500Y-130068549D01*
X144799500Y-130291450D01*
X144799501Y-130291466D01*
X144828594Y-130512452D01*
X144828595Y-130512457D01*
X144828596Y-130512463D01*
X144886290Y-130727780D01*
X144886293Y-130727790D01*
X144971593Y-130933722D01*
X144971595Y-130933726D01*
X145083052Y-131126774D01*
X145083057Y-131126780D01*
X145083058Y-131126782D01*
X145218750Y-131303621D01*
X145218752Y-131303623D01*
X145218753Y-131303624D01*
X145363182Y-131448053D01*
X145396666Y-131509374D01*
X145399500Y-131535733D01*
X145399500Y-133904267D01*
X145390855Y-133933707D01*
X145384332Y-133963694D01*
X145380577Y-133968709D01*
X145379815Y-133971306D01*
X145363182Y-133991947D01*
X145231948Y-134123181D01*
X145170625Y-134156666D01*
X145144267Y-134159500D01*
X67855733Y-134159500D01*
X67788694Y-134139815D01*
X67768056Y-134123185D01*
X67623624Y-133978753D01*
X67623623Y-133978752D01*
X67623621Y-133978750D01*
X67446782Y-133843058D01*
X67446780Y-133843057D01*
X67446774Y-133843052D01*
X67253726Y-133731595D01*
X67253722Y-133731593D01*
X67047790Y-133646293D01*
X67047783Y-133646291D01*
X67047781Y-133646290D01*
X66832463Y-133588596D01*
X66832457Y-133588595D01*
X66832452Y-133588594D01*
X66611466Y-133559501D01*
X66611463Y-133559500D01*
X66611457Y-133559500D01*
X66388543Y-133559500D01*
X66388537Y-133559500D01*
X66388533Y-133559501D01*
X66167547Y-133588594D01*
X66167540Y-133588595D01*
X66167537Y-133588596D01*
X65952219Y-133646290D01*
X65952209Y-133646293D01*
X65746277Y-133731593D01*
X65746273Y-133731595D01*
X65553226Y-133843052D01*
X65553217Y-133843058D01*
X65376377Y-133978751D01*
X65376370Y-133978757D01*
X65218757Y-134136370D01*
X65218751Y-134136377D01*
X65083058Y-134313217D01*
X65083052Y-134313226D01*
X64971595Y-134506273D01*
X64971593Y-134506277D01*
X64886293Y-134712209D01*
X64886290Y-134712219D01*
X64828597Y-134927534D01*
X64828594Y-134927547D01*
X64799501Y-135148533D01*
X64799500Y-135148549D01*
X60500500Y-135148549D01*
X60500500Y-130068575D01*
X64800000Y-130068575D01*
X64800000Y-130291424D01*
X64829085Y-130512354D01*
X64829088Y-130512367D01*
X64886763Y-130727618D01*
X64972045Y-130933502D01*
X64972054Y-130933520D01*
X65083464Y-131126491D01*
X65083473Y-131126504D01*
X65134040Y-131192403D01*
X65134043Y-131192403D01*
X65784152Y-130542293D01*
X65791049Y-130558942D01*
X65878599Y-130689970D01*
X65990030Y-130801401D01*
X66121058Y-130888951D01*
X66137705Y-130895846D01*
X65487595Y-131545955D01*
X65487595Y-131545956D01*
X65553507Y-131596533D01*
X65746485Y-131707949D01*
X65746497Y-131707954D01*
X65952381Y-131793236D01*
X66167632Y-131850911D01*
X66167645Y-131850914D01*
X66388575Y-131880000D01*
X66611425Y-131880000D01*
X66832354Y-131850914D01*
X66832367Y-131850911D01*
X67047618Y-131793236D01*
X67253502Y-131707954D01*
X67253514Y-131707949D01*
X67446498Y-131596530D01*
X67512403Y-131545957D01*
X67512404Y-131545956D01*
X66862294Y-130895846D01*
X66878942Y-130888951D01*
X67009970Y-130801401D01*
X67121401Y-130689970D01*
X67208951Y-130558942D01*
X67215846Y-130542294D01*
X67865956Y-131192404D01*
X67865957Y-131192403D01*
X67916530Y-131126498D01*
X68027949Y-130933514D01*
X68027954Y-130933502D01*
X68113236Y-130727618D01*
X68170911Y-130512367D01*
X68170914Y-130512354D01*
X68200000Y-130291424D01*
X68200000Y-130068575D01*
X68170914Y-129847645D01*
X68170911Y-129847632D01*
X68113236Y-129632381D01*
X68027954Y-129426497D01*
X68027949Y-129426485D01*
X67916533Y-129233507D01*
X67865956Y-129167595D01*
X67865955Y-129167595D01*
X67215846Y-129817704D01*
X67208951Y-129801058D01*
X67121401Y-129670030D01*
X67009970Y-129558599D01*
X66878942Y-129471049D01*
X66862293Y-129464152D01*
X67512403Y-128814043D01*
X67512403Y-128814040D01*
X67446504Y-128763473D01*
X67446491Y-128763464D01*
X67253520Y-128652054D01*
X67253502Y-128652045D01*
X67047618Y-128566763D01*
X66832367Y-128509088D01*
X66832354Y-128509085D01*
X66611425Y-128480000D01*
X66388575Y-128480000D01*
X66167645Y-128509085D01*
X66167632Y-128509088D01*
X65952381Y-128566763D01*
X65746497Y-128652045D01*
X65746479Y-128652054D01*
X65553511Y-128763462D01*
X65487595Y-128814042D01*
X66137706Y-129464152D01*
X66121058Y-129471049D01*
X65990030Y-129558599D01*
X65878599Y-129670030D01*
X65791049Y-129801058D01*
X65784153Y-129817706D01*
X65134042Y-129167595D01*
X65083462Y-129233511D01*
X64972054Y-129426479D01*
X64972045Y-129426497D01*
X64886763Y-129632381D01*
X64829088Y-129847632D01*
X64829085Y-129847645D01*
X64800000Y-130068575D01*
X60500500Y-130068575D01*
X60500500Y-124988549D01*
X64799500Y-124988549D01*
X64799500Y-125211450D01*
X64799501Y-125211466D01*
X64828594Y-125432452D01*
X64828595Y-125432457D01*
X64828596Y-125432463D01*
X64828597Y-125432465D01*
X64886290Y-125647780D01*
X64886293Y-125647790D01*
X64971593Y-125853722D01*
X64971595Y-125853726D01*
X65083052Y-126046774D01*
X65083057Y-126046780D01*
X65083058Y-126046782D01*
X65218751Y-126223622D01*
X65218757Y-126223629D01*
X65376370Y-126381242D01*
X65376377Y-126381248D01*
X65386081Y-126388694D01*
X65553226Y-126516948D01*
X65746274Y-126628405D01*
X65952219Y-126713710D01*
X66167537Y-126771404D01*
X66388543Y-126800500D01*
X66388550Y-126800500D01*
X66611450Y-126800500D01*
X66611457Y-126800500D01*
X66832463Y-126771404D01*
X67047781Y-126713710D01*
X67253726Y-126628405D01*
X67446774Y-126516948D01*
X67623624Y-126381247D01*
X67768053Y-126236817D01*
X67829374Y-126203334D01*
X67855733Y-126200500D01*
X114986610Y-126200500D01*
X114986611Y-126200500D01*
X115157701Y-126173402D01*
X115322445Y-126119873D01*
X115476788Y-126041232D01*
X115616928Y-125939414D01*
X117339414Y-124216928D01*
X117418530Y-124108034D01*
X117441232Y-124076788D01*
X117519873Y-123922445D01*
X117573402Y-123757701D01*
X117600500Y-123586611D01*
X117600500Y-121375733D01*
X117609144Y-121346292D01*
X117615668Y-121316306D01*
X117619422Y-121311290D01*
X117620185Y-121308694D01*
X117636819Y-121288052D01*
X117636820Y-121288051D01*
X117781247Y-121143624D01*
X117916948Y-120966774D01*
X118028405Y-120773726D01*
X118113710Y-120567781D01*
X118171404Y-120352463D01*
X118200500Y-120131457D01*
X118200500Y-119908575D01*
X144800000Y-119908575D01*
X144800000Y-120131424D01*
X144829085Y-120352354D01*
X144829088Y-120352367D01*
X144886763Y-120567618D01*
X144972045Y-120773502D01*
X144972054Y-120773520D01*
X145083464Y-120966491D01*
X145083473Y-120966504D01*
X145134040Y-121032403D01*
X145134043Y-121032403D01*
X145784152Y-120382293D01*
X145791049Y-120398942D01*
X145878599Y-120529970D01*
X145990030Y-120641401D01*
X146121058Y-120728951D01*
X146137705Y-120735846D01*
X145487595Y-121385955D01*
X145487595Y-121385956D01*
X145553507Y-121436533D01*
X145746485Y-121547949D01*
X145746497Y-121547954D01*
X145952381Y-121633236D01*
X146167632Y-121690911D01*
X146167645Y-121690914D01*
X146388575Y-121720000D01*
X146611425Y-121720000D01*
X146832354Y-121690914D01*
X146832367Y-121690911D01*
X147047618Y-121633236D01*
X147253502Y-121547954D01*
X147253514Y-121547949D01*
X147446498Y-121436530D01*
X147512403Y-121385957D01*
X147512404Y-121385956D01*
X146862294Y-120735846D01*
X146878942Y-120728951D01*
X147009970Y-120641401D01*
X147121401Y-120529970D01*
X147208951Y-120398942D01*
X147215846Y-120382294D01*
X147865956Y-121032404D01*
X147865957Y-121032403D01*
X147916530Y-120966498D01*
X148027949Y-120773514D01*
X148027954Y-120773502D01*
X148113236Y-120567618D01*
X148170911Y-120352367D01*
X148170914Y-120352354D01*
X148200000Y-120131424D01*
X148200000Y-119908575D01*
X148170914Y-119687645D01*
X148170911Y-119687632D01*
X148113236Y-119472381D01*
X148027954Y-119266497D01*
X148027949Y-119266485D01*
X147916533Y-119073507D01*
X147865956Y-119007595D01*
X147865955Y-119007595D01*
X147215846Y-119657704D01*
X147208951Y-119641058D01*
X147121401Y-119510030D01*
X147009970Y-119398599D01*
X146878942Y-119311049D01*
X146862293Y-119304152D01*
X147512403Y-118654043D01*
X147512403Y-118654040D01*
X147446504Y-118603473D01*
X147446491Y-118603464D01*
X147253520Y-118492054D01*
X147253502Y-118492045D01*
X147047618Y-118406763D01*
X146832367Y-118349088D01*
X146832354Y-118349085D01*
X146611425Y-118320000D01*
X146388575Y-118320000D01*
X146167645Y-118349085D01*
X146167632Y-118349088D01*
X145952381Y-118406763D01*
X145746497Y-118492045D01*
X145746479Y-118492054D01*
X145553511Y-118603462D01*
X145487595Y-118654042D01*
X146137706Y-119304152D01*
X146121058Y-119311049D01*
X145990030Y-119398599D01*
X145878599Y-119510030D01*
X145791049Y-119641058D01*
X145784153Y-119657706D01*
X145134042Y-119007595D01*
X145083462Y-119073511D01*
X144972054Y-119266479D01*
X144972045Y-119266497D01*
X144886763Y-119472381D01*
X144829088Y-119687632D01*
X144829085Y-119687645D01*
X144800000Y-119908575D01*
X118200500Y-119908575D01*
X118200500Y-119908543D01*
X118171404Y-119687537D01*
X118113710Y-119472219D01*
X118028405Y-119266274D01*
X117916948Y-119073226D01*
X117781247Y-118896376D01*
X117781242Y-118896370D01*
X117636819Y-118751947D01*
X117603334Y-118690624D01*
X117600500Y-118664266D01*
X117600500Y-116295733D01*
X117620185Y-116228694D01*
X117636819Y-116208052D01*
X117643224Y-116201647D01*
X117781247Y-116063624D01*
X117916948Y-115886774D01*
X118028405Y-115693726D01*
X118113710Y-115487781D01*
X118171404Y-115272463D01*
X118200500Y-115051457D01*
X118200500Y-114828575D01*
X144800000Y-114828575D01*
X144800000Y-115051424D01*
X144829085Y-115272354D01*
X144829088Y-115272367D01*
X144886763Y-115487618D01*
X144972045Y-115693502D01*
X144972054Y-115693520D01*
X145083464Y-115886491D01*
X145083473Y-115886504D01*
X145134040Y-115952403D01*
X145134043Y-115952403D01*
X145784152Y-115302293D01*
X145791049Y-115318942D01*
X145878599Y-115449970D01*
X145990030Y-115561401D01*
X146121058Y-115648951D01*
X146137705Y-115655846D01*
X145487595Y-116305955D01*
X145487595Y-116305956D01*
X145553507Y-116356533D01*
X145746485Y-116467949D01*
X145746497Y-116467954D01*
X145952381Y-116553236D01*
X146167632Y-116610911D01*
X146167645Y-116610914D01*
X146388575Y-116640000D01*
X146611425Y-116640000D01*
X146832354Y-116610914D01*
X146832367Y-116610911D01*
X147047618Y-116553236D01*
X147253502Y-116467954D01*
X147253514Y-116467949D01*
X147446498Y-116356530D01*
X147512403Y-116305957D01*
X147512404Y-116305956D01*
X146862294Y-115655846D01*
X146878942Y-115648951D01*
X147009970Y-115561401D01*
X147121401Y-115449970D01*
X147208951Y-115318942D01*
X147215846Y-115302294D01*
X147865956Y-115952404D01*
X147865957Y-115952403D01*
X147916530Y-115886498D01*
X148027949Y-115693514D01*
X148027954Y-115693502D01*
X148113236Y-115487618D01*
X148170911Y-115272367D01*
X148170914Y-115272354D01*
X148200000Y-115051424D01*
X148200000Y-114828575D01*
X148170914Y-114607645D01*
X148170911Y-114607632D01*
X148113236Y-114392381D01*
X148027954Y-114186497D01*
X148027949Y-114186485D01*
X147916533Y-113993507D01*
X147865956Y-113927595D01*
X147865955Y-113927595D01*
X147215846Y-114577704D01*
X147208951Y-114561058D01*
X147121401Y-114430030D01*
X147009970Y-114318599D01*
X146878942Y-114231049D01*
X146862293Y-114224152D01*
X147512403Y-113574043D01*
X147512403Y-113574040D01*
X147446504Y-113523473D01*
X147446491Y-113523464D01*
X147253520Y-113412054D01*
X147253502Y-113412045D01*
X147047618Y-113326763D01*
X146832367Y-113269088D01*
X146832354Y-113269085D01*
X146611425Y-113240000D01*
X146388575Y-113240000D01*
X146167645Y-113269085D01*
X146167632Y-113269088D01*
X145952381Y-113326763D01*
X145746497Y-113412045D01*
X145746479Y-113412054D01*
X145553511Y-113523462D01*
X145487595Y-113574042D01*
X146137706Y-114224152D01*
X146121058Y-114231049D01*
X145990030Y-114318599D01*
X145878599Y-114430030D01*
X145791049Y-114561058D01*
X145784153Y-114577706D01*
X145134042Y-113927595D01*
X145083462Y-113993511D01*
X144972054Y-114186479D01*
X144972045Y-114186497D01*
X144886763Y-114392381D01*
X144829088Y-114607632D01*
X144829085Y-114607645D01*
X144800000Y-114828575D01*
X118200500Y-114828575D01*
X118200500Y-114828543D01*
X118171404Y-114607537D01*
X118113710Y-114392219D01*
X118028405Y-114186274D01*
X117916948Y-113993226D01*
X117781247Y-113816376D01*
X117781242Y-113816370D01*
X117636819Y-113671947D01*
X117603334Y-113610624D01*
X117600500Y-113584266D01*
X117600500Y-111215733D01*
X117620185Y-111148694D01*
X117636819Y-111128052D01*
X117636820Y-111128051D01*
X117781247Y-110983624D01*
X117916948Y-110806774D01*
X118028405Y-110613726D01*
X118113710Y-110407781D01*
X118171404Y-110192463D01*
X118200500Y-109971457D01*
X118200500Y-109748575D01*
X144800000Y-109748575D01*
X144800000Y-109971424D01*
X144829085Y-110192354D01*
X144829088Y-110192367D01*
X144886763Y-110407618D01*
X144972045Y-110613502D01*
X144972054Y-110613520D01*
X145083464Y-110806491D01*
X145083473Y-110806504D01*
X145134040Y-110872403D01*
X145134043Y-110872403D01*
X145784152Y-110222293D01*
X145791049Y-110238942D01*
X145878599Y-110369970D01*
X145990030Y-110481401D01*
X146121058Y-110568951D01*
X146137705Y-110575846D01*
X145487595Y-111225955D01*
X145487595Y-111225956D01*
X145553507Y-111276533D01*
X145746485Y-111387949D01*
X145746497Y-111387954D01*
X145952381Y-111473236D01*
X146167632Y-111530911D01*
X146167645Y-111530914D01*
X146388575Y-111560000D01*
X146611425Y-111560000D01*
X146832354Y-111530914D01*
X146832367Y-111530911D01*
X147047618Y-111473236D01*
X147253502Y-111387954D01*
X147253514Y-111387949D01*
X147446498Y-111276530D01*
X147512403Y-111225957D01*
X147512404Y-111225956D01*
X146862294Y-110575846D01*
X146878942Y-110568951D01*
X147009970Y-110481401D01*
X147121401Y-110369970D01*
X147208951Y-110238942D01*
X147215846Y-110222294D01*
X147865956Y-110872404D01*
X147865957Y-110872403D01*
X147916530Y-110806498D01*
X148027949Y-110613514D01*
X148027954Y-110613502D01*
X148113236Y-110407618D01*
X148170911Y-110192367D01*
X148170914Y-110192354D01*
X148200000Y-109971424D01*
X148200000Y-109748575D01*
X148170914Y-109527645D01*
X148170911Y-109527632D01*
X148113236Y-109312381D01*
X148027954Y-109106497D01*
X148027949Y-109106485D01*
X147916533Y-108913507D01*
X147865956Y-108847595D01*
X147865955Y-108847595D01*
X147215846Y-109497704D01*
X147208951Y-109481058D01*
X147121401Y-109350030D01*
X147009970Y-109238599D01*
X146878942Y-109151049D01*
X146862293Y-109144152D01*
X147512403Y-108494043D01*
X147512403Y-108494040D01*
X147446504Y-108443473D01*
X147446491Y-108443464D01*
X147253520Y-108332054D01*
X147253502Y-108332045D01*
X147047618Y-108246763D01*
X146832367Y-108189088D01*
X146832354Y-108189085D01*
X146611425Y-108160000D01*
X146388575Y-108160000D01*
X146167645Y-108189085D01*
X146167632Y-108189088D01*
X145952381Y-108246763D01*
X145746497Y-108332045D01*
X145746479Y-108332054D01*
X145553511Y-108443462D01*
X145487595Y-108494042D01*
X146137706Y-109144152D01*
X146121058Y-109151049D01*
X145990030Y-109238599D01*
X145878599Y-109350030D01*
X145791049Y-109481058D01*
X145784153Y-109497706D01*
X145134042Y-108847595D01*
X145083462Y-108913511D01*
X144972054Y-109106479D01*
X144972045Y-109106497D01*
X144886763Y-109312381D01*
X144829088Y-109527632D01*
X144829085Y-109527645D01*
X144800000Y-109748575D01*
X118200500Y-109748575D01*
X118200500Y-109748543D01*
X118171404Y-109527537D01*
X118113710Y-109312219D01*
X118028405Y-109106274D01*
X117916948Y-108913226D01*
X117781247Y-108736376D01*
X117781242Y-108736370D01*
X117636819Y-108591947D01*
X117603334Y-108530624D01*
X117600500Y-108504266D01*
X117600500Y-106135733D01*
X117620185Y-106068694D01*
X117636819Y-106048052D01*
X117636820Y-106048051D01*
X117781247Y-105903624D01*
X117916948Y-105726774D01*
X118028405Y-105533726D01*
X118113710Y-105327781D01*
X118171404Y-105112463D01*
X118200500Y-104891457D01*
X118200500Y-104668575D01*
X144800000Y-104668575D01*
X144800000Y-104891424D01*
X144829085Y-105112354D01*
X144829088Y-105112367D01*
X144886763Y-105327618D01*
X144972045Y-105533502D01*
X144972054Y-105533520D01*
X145083464Y-105726491D01*
X145083473Y-105726504D01*
X145134040Y-105792403D01*
X145134043Y-105792403D01*
X145784152Y-105142293D01*
X145791049Y-105158942D01*
X145878599Y-105289970D01*
X145990030Y-105401401D01*
X146121058Y-105488951D01*
X146137705Y-105495846D01*
X145487595Y-106145955D01*
X145487595Y-106145956D01*
X145553507Y-106196533D01*
X145746485Y-106307949D01*
X145746497Y-106307954D01*
X145952381Y-106393236D01*
X146167632Y-106450911D01*
X146167645Y-106450914D01*
X146388575Y-106480000D01*
X146611425Y-106480000D01*
X146832354Y-106450914D01*
X146832367Y-106450911D01*
X147047618Y-106393236D01*
X147253502Y-106307954D01*
X147253514Y-106307949D01*
X147446498Y-106196530D01*
X147512403Y-106145957D01*
X147512404Y-106145956D01*
X146862294Y-105495846D01*
X146878942Y-105488951D01*
X147009970Y-105401401D01*
X147121401Y-105289970D01*
X147208951Y-105158942D01*
X147215846Y-105142294D01*
X147865956Y-105792404D01*
X147865957Y-105792403D01*
X147916530Y-105726498D01*
X148027949Y-105533514D01*
X148027954Y-105533502D01*
X148113236Y-105327618D01*
X148170911Y-105112367D01*
X148170914Y-105112354D01*
X148200000Y-104891424D01*
X148200000Y-104668575D01*
X148170914Y-104447645D01*
X148170911Y-104447632D01*
X148113236Y-104232381D01*
X148027954Y-104026497D01*
X148027949Y-104026485D01*
X147916533Y-103833507D01*
X147865956Y-103767595D01*
X147865955Y-103767595D01*
X147215846Y-104417704D01*
X147208951Y-104401058D01*
X147121401Y-104270030D01*
X147009970Y-104158599D01*
X146878942Y-104071049D01*
X146862293Y-104064152D01*
X147512403Y-103414043D01*
X147512403Y-103414040D01*
X147446504Y-103363473D01*
X147446491Y-103363464D01*
X147253520Y-103252054D01*
X147253502Y-103252045D01*
X147047618Y-103166763D01*
X146832367Y-103109088D01*
X146832354Y-103109085D01*
X146611425Y-103080000D01*
X146388575Y-103080000D01*
X146167645Y-103109085D01*
X146167632Y-103109088D01*
X145952381Y-103166763D01*
X145746497Y-103252045D01*
X145746479Y-103252054D01*
X145553511Y-103363462D01*
X145487595Y-103414042D01*
X146137706Y-104064152D01*
X146121058Y-104071049D01*
X145990030Y-104158599D01*
X145878599Y-104270030D01*
X145791049Y-104401058D01*
X145784153Y-104417706D01*
X145134042Y-103767595D01*
X145083462Y-103833511D01*
X144972054Y-104026479D01*
X144972045Y-104026497D01*
X144886763Y-104232381D01*
X144829088Y-104447632D01*
X144829085Y-104447645D01*
X144800000Y-104668575D01*
X118200500Y-104668575D01*
X118200500Y-104668543D01*
X118171404Y-104447537D01*
X118113710Y-104232219D01*
X118028405Y-104026274D01*
X117916948Y-103833226D01*
X117791341Y-103669531D01*
X117781248Y-103656377D01*
X117781242Y-103656370D01*
X117636819Y-103511947D01*
X117603334Y-103450624D01*
X117600500Y-103424266D01*
X117600500Y-101055733D01*
X117620185Y-100988694D01*
X117636819Y-100968052D01*
X117636820Y-100968051D01*
X117781247Y-100823624D01*
X117916948Y-100646774D01*
X118028405Y-100453726D01*
X118113710Y-100247781D01*
X118171404Y-100032463D01*
X118200500Y-99811457D01*
X118200500Y-99588575D01*
X144800000Y-99588575D01*
X144800000Y-99811424D01*
X144829085Y-100032354D01*
X144829088Y-100032367D01*
X144886763Y-100247618D01*
X144972045Y-100453502D01*
X144972054Y-100453520D01*
X145083464Y-100646491D01*
X145083473Y-100646504D01*
X145134040Y-100712403D01*
X145134043Y-100712403D01*
X145784152Y-100062293D01*
X145791049Y-100078942D01*
X145878599Y-100209970D01*
X145990030Y-100321401D01*
X146121058Y-100408951D01*
X146137705Y-100415846D01*
X145487595Y-101065955D01*
X145487595Y-101065956D01*
X145553507Y-101116533D01*
X145746485Y-101227949D01*
X145746497Y-101227954D01*
X145952381Y-101313236D01*
X146167632Y-101370911D01*
X146167645Y-101370914D01*
X146388575Y-101400000D01*
X146611425Y-101400000D01*
X146832354Y-101370914D01*
X146832367Y-101370911D01*
X147047618Y-101313236D01*
X147253502Y-101227954D01*
X147253514Y-101227949D01*
X147446498Y-101116530D01*
X147512403Y-101065957D01*
X147512404Y-101065956D01*
X146862294Y-100415846D01*
X146878942Y-100408951D01*
X147009970Y-100321401D01*
X147121401Y-100209970D01*
X147208951Y-100078942D01*
X147215846Y-100062294D01*
X147865956Y-100712404D01*
X147865957Y-100712403D01*
X147916530Y-100646498D01*
X148027949Y-100453514D01*
X148027954Y-100453502D01*
X148113236Y-100247618D01*
X148170911Y-100032367D01*
X148170914Y-100032354D01*
X148200000Y-99811424D01*
X148200000Y-99588575D01*
X148170914Y-99367645D01*
X148170911Y-99367632D01*
X148113236Y-99152381D01*
X148027954Y-98946497D01*
X148027949Y-98946485D01*
X147916533Y-98753507D01*
X147865956Y-98687595D01*
X147865955Y-98687595D01*
X147215846Y-99337704D01*
X147208951Y-99321058D01*
X147121401Y-99190030D01*
X147009970Y-99078599D01*
X146878942Y-98991049D01*
X146862293Y-98984152D01*
X147512403Y-98334043D01*
X147512403Y-98334040D01*
X147446504Y-98283473D01*
X147446491Y-98283464D01*
X147253520Y-98172054D01*
X147253502Y-98172045D01*
X147047618Y-98086763D01*
X146832367Y-98029088D01*
X146832354Y-98029085D01*
X146611425Y-98000000D01*
X146388575Y-98000000D01*
X146167645Y-98029085D01*
X146167632Y-98029088D01*
X145952381Y-98086763D01*
X145746497Y-98172045D01*
X145746479Y-98172054D01*
X145553511Y-98283462D01*
X145487595Y-98334042D01*
X146137706Y-98984152D01*
X146121058Y-98991049D01*
X145990030Y-99078599D01*
X145878599Y-99190030D01*
X145791049Y-99321058D01*
X145784153Y-99337706D01*
X145134042Y-98687595D01*
X145083462Y-98753511D01*
X144972054Y-98946479D01*
X144972045Y-98946497D01*
X144886763Y-99152381D01*
X144829088Y-99367632D01*
X144829085Y-99367645D01*
X144800000Y-99588575D01*
X118200500Y-99588575D01*
X118200500Y-99588543D01*
X118171404Y-99367537D01*
X118113710Y-99152219D01*
X118028405Y-98946274D01*
X117916948Y-98753226D01*
X117781247Y-98576376D01*
X117781242Y-98576370D01*
X117636819Y-98431947D01*
X117603334Y-98370624D01*
X117600500Y-98344266D01*
X117600500Y-95975733D01*
X117620185Y-95908694D01*
X117636819Y-95888052D01*
X117650871Y-95874000D01*
X117781247Y-95743624D01*
X117916948Y-95566774D01*
X118028405Y-95373726D01*
X118113710Y-95167781D01*
X118171404Y-94952463D01*
X118200500Y-94731457D01*
X118200500Y-94508575D01*
X144800000Y-94508575D01*
X144800000Y-94731424D01*
X144829085Y-94952354D01*
X144829088Y-94952367D01*
X144886763Y-95167618D01*
X144972045Y-95373502D01*
X144972054Y-95373520D01*
X145083464Y-95566491D01*
X145083473Y-95566504D01*
X145134040Y-95632403D01*
X145134043Y-95632403D01*
X145784152Y-94982293D01*
X145791049Y-94998942D01*
X145878599Y-95129970D01*
X145990030Y-95241401D01*
X146121058Y-95328951D01*
X146137705Y-95335846D01*
X145487595Y-95985955D01*
X145487595Y-95985956D01*
X145553507Y-96036533D01*
X145746485Y-96147949D01*
X145746497Y-96147954D01*
X145952381Y-96233236D01*
X146167632Y-96290911D01*
X146167645Y-96290914D01*
X146388575Y-96320000D01*
X146611425Y-96320000D01*
X146832354Y-96290914D01*
X146832367Y-96290911D01*
X147047618Y-96233236D01*
X147253502Y-96147954D01*
X147253514Y-96147949D01*
X147446498Y-96036530D01*
X147512403Y-95985957D01*
X147512404Y-95985956D01*
X146862294Y-95335846D01*
X146878942Y-95328951D01*
X147009970Y-95241401D01*
X147121401Y-95129970D01*
X147208951Y-94998942D01*
X147215846Y-94982294D01*
X147865956Y-95632404D01*
X147865957Y-95632403D01*
X147916530Y-95566498D01*
X148027949Y-95373514D01*
X148027954Y-95373502D01*
X148113236Y-95167618D01*
X148170911Y-94952367D01*
X148170914Y-94952354D01*
X148200000Y-94731424D01*
X148200000Y-94508575D01*
X148170914Y-94287645D01*
X148170911Y-94287632D01*
X148113236Y-94072381D01*
X148027954Y-93866497D01*
X148027949Y-93866485D01*
X147916533Y-93673507D01*
X147865956Y-93607595D01*
X147865955Y-93607595D01*
X147215846Y-94257704D01*
X147208951Y-94241058D01*
X147121401Y-94110030D01*
X147009970Y-93998599D01*
X146878942Y-93911049D01*
X146862293Y-93904152D01*
X147512403Y-93254043D01*
X147512403Y-93254040D01*
X147446504Y-93203473D01*
X147446491Y-93203464D01*
X147253520Y-93092054D01*
X147253502Y-93092045D01*
X147047618Y-93006763D01*
X146832367Y-92949088D01*
X146832354Y-92949085D01*
X146611425Y-92920000D01*
X146388575Y-92920000D01*
X146167645Y-92949085D01*
X146167632Y-92949088D01*
X145952381Y-93006763D01*
X145746497Y-93092045D01*
X145746479Y-93092054D01*
X145553511Y-93203462D01*
X145487595Y-93254042D01*
X146137706Y-93904152D01*
X146121058Y-93911049D01*
X145990030Y-93998599D01*
X145878599Y-94110030D01*
X145791049Y-94241058D01*
X145784153Y-94257706D01*
X145134042Y-93607595D01*
X145083462Y-93673511D01*
X144972054Y-93866479D01*
X144972045Y-93866497D01*
X144886763Y-94072381D01*
X144829088Y-94287632D01*
X144829085Y-94287645D01*
X144800000Y-94508575D01*
X118200500Y-94508575D01*
X118200500Y-94508543D01*
X118171404Y-94287537D01*
X118113710Y-94072219D01*
X118091463Y-94018511D01*
X118059504Y-93941353D01*
X118028405Y-93866274D01*
X117916948Y-93673226D01*
X117866588Y-93607595D01*
X117781248Y-93496377D01*
X117781242Y-93496370D01*
X117636819Y-93351947D01*
X117603334Y-93290624D01*
X117600500Y-93264266D01*
X117600500Y-90895733D01*
X117620185Y-90828694D01*
X117636819Y-90808052D01*
X117637910Y-90806961D01*
X117781247Y-90663624D01*
X117916948Y-90486774D01*
X118028405Y-90293726D01*
X118113710Y-90087781D01*
X118171404Y-89872463D01*
X118200500Y-89651457D01*
X118200500Y-89428575D01*
X144800000Y-89428575D01*
X144800000Y-89651424D01*
X144829085Y-89872354D01*
X144829088Y-89872367D01*
X144886763Y-90087618D01*
X144972045Y-90293502D01*
X144972054Y-90293520D01*
X145083464Y-90486491D01*
X145083473Y-90486504D01*
X145134040Y-90552403D01*
X145134043Y-90552403D01*
X145784152Y-89902293D01*
X145791049Y-89918942D01*
X145878599Y-90049970D01*
X145990030Y-90161401D01*
X146121058Y-90248951D01*
X146137705Y-90255846D01*
X145487595Y-90905955D01*
X145487595Y-90905956D01*
X145553507Y-90956533D01*
X145746485Y-91067949D01*
X145746497Y-91067954D01*
X145952381Y-91153236D01*
X146167632Y-91210911D01*
X146167645Y-91210914D01*
X146388575Y-91240000D01*
X146611425Y-91240000D01*
X146832354Y-91210914D01*
X146832367Y-91210911D01*
X147047618Y-91153236D01*
X147253502Y-91067954D01*
X147253514Y-91067949D01*
X147446498Y-90956530D01*
X147512403Y-90905957D01*
X147512404Y-90905956D01*
X146862294Y-90255846D01*
X146878942Y-90248951D01*
X147009970Y-90161401D01*
X147121401Y-90049970D01*
X147208951Y-89918942D01*
X147215846Y-89902294D01*
X147865956Y-90552404D01*
X147865957Y-90552403D01*
X147916530Y-90486498D01*
X148027949Y-90293514D01*
X148027954Y-90293502D01*
X148113236Y-90087618D01*
X148170911Y-89872367D01*
X148170914Y-89872354D01*
X148200000Y-89651424D01*
X148200000Y-89428575D01*
X148170914Y-89207645D01*
X148170911Y-89207632D01*
X148113236Y-88992381D01*
X148027954Y-88786497D01*
X148027949Y-88786485D01*
X147916533Y-88593507D01*
X147865956Y-88527595D01*
X147865955Y-88527595D01*
X147215846Y-89177704D01*
X147208951Y-89161058D01*
X147121401Y-89030030D01*
X147009970Y-88918599D01*
X146878942Y-88831049D01*
X146862293Y-88824152D01*
X147512403Y-88174043D01*
X147512403Y-88174040D01*
X147446504Y-88123473D01*
X147446491Y-88123464D01*
X147253520Y-88012054D01*
X147253502Y-88012045D01*
X147047618Y-87926763D01*
X146832367Y-87869088D01*
X146832354Y-87869085D01*
X146611425Y-87840000D01*
X146388575Y-87840000D01*
X146167645Y-87869085D01*
X146167632Y-87869088D01*
X145952381Y-87926763D01*
X145746497Y-88012045D01*
X145746479Y-88012054D01*
X145553511Y-88123462D01*
X145487595Y-88174042D01*
X146137706Y-88824152D01*
X146121058Y-88831049D01*
X145990030Y-88918599D01*
X145878599Y-89030030D01*
X145791049Y-89161058D01*
X145784153Y-89177706D01*
X145134042Y-88527595D01*
X145083462Y-88593511D01*
X144972054Y-88786479D01*
X144972045Y-88786497D01*
X144886763Y-88992381D01*
X144829088Y-89207632D01*
X144829085Y-89207645D01*
X144800000Y-89428575D01*
X118200500Y-89428575D01*
X118200500Y-89428543D01*
X118171404Y-89207537D01*
X118113710Y-88992219D01*
X118028405Y-88786274D01*
X117916948Y-88593226D01*
X117781247Y-88416376D01*
X117781242Y-88416370D01*
X117636819Y-88271947D01*
X117603334Y-88210624D01*
X117600500Y-88184266D01*
X117600500Y-85815733D01*
X117620185Y-85748694D01*
X117636819Y-85728052D01*
X117636820Y-85728051D01*
X117781247Y-85583624D01*
X117916948Y-85406774D01*
X118028405Y-85213726D01*
X118113710Y-85007781D01*
X118171404Y-84792463D01*
X118200500Y-84571457D01*
X118200500Y-84348575D01*
X144800000Y-84348575D01*
X144800000Y-84571424D01*
X144829085Y-84792354D01*
X144829088Y-84792367D01*
X144886763Y-85007618D01*
X144972045Y-85213502D01*
X144972054Y-85213520D01*
X145083464Y-85406491D01*
X145083473Y-85406504D01*
X145134040Y-85472403D01*
X145134043Y-85472403D01*
X145784152Y-84822293D01*
X145791049Y-84838942D01*
X145878599Y-84969970D01*
X145990030Y-85081401D01*
X146121058Y-85168951D01*
X146137705Y-85175846D01*
X145487595Y-85825955D01*
X145487595Y-85825956D01*
X145553507Y-85876533D01*
X145746485Y-85987949D01*
X145746497Y-85987954D01*
X145952381Y-86073236D01*
X146167632Y-86130911D01*
X146167645Y-86130914D01*
X146388575Y-86160000D01*
X146611425Y-86160000D01*
X146832354Y-86130914D01*
X146832367Y-86130911D01*
X147047618Y-86073236D01*
X147253502Y-85987954D01*
X147253514Y-85987949D01*
X147446498Y-85876530D01*
X147512403Y-85825957D01*
X147512404Y-85825956D01*
X146862294Y-85175846D01*
X146878942Y-85168951D01*
X147009970Y-85081401D01*
X147121401Y-84969970D01*
X147208951Y-84838942D01*
X147215846Y-84822294D01*
X147865956Y-85472404D01*
X147865957Y-85472403D01*
X147916530Y-85406498D01*
X148027949Y-85213514D01*
X148027954Y-85213502D01*
X148113236Y-85007618D01*
X148170911Y-84792367D01*
X148170914Y-84792354D01*
X148200000Y-84571424D01*
X148200000Y-84348575D01*
X148170914Y-84127645D01*
X148170911Y-84127632D01*
X148113236Y-83912381D01*
X148027954Y-83706497D01*
X148027949Y-83706485D01*
X147916533Y-83513507D01*
X147865956Y-83447595D01*
X147865955Y-83447595D01*
X147215846Y-84097704D01*
X147208951Y-84081058D01*
X147121401Y-83950030D01*
X147009970Y-83838599D01*
X146878942Y-83751049D01*
X146862293Y-83744152D01*
X147512403Y-83094043D01*
X147512403Y-83094040D01*
X147446504Y-83043473D01*
X147446491Y-83043464D01*
X147253520Y-82932054D01*
X147253502Y-82932045D01*
X147047618Y-82846763D01*
X146832367Y-82789088D01*
X146832354Y-82789085D01*
X146611425Y-82760000D01*
X146388575Y-82760000D01*
X146167645Y-82789085D01*
X146167632Y-82789088D01*
X145952381Y-82846763D01*
X145746497Y-82932045D01*
X145746479Y-82932054D01*
X145553511Y-83043462D01*
X145487595Y-83094042D01*
X146137706Y-83744152D01*
X146121058Y-83751049D01*
X145990030Y-83838599D01*
X145878599Y-83950030D01*
X145791049Y-84081058D01*
X145784153Y-84097706D01*
X145134042Y-83447595D01*
X145083462Y-83513511D01*
X144972054Y-83706479D01*
X144972045Y-83706497D01*
X144886763Y-83912381D01*
X144829088Y-84127632D01*
X144829085Y-84127645D01*
X144800000Y-84348575D01*
X118200500Y-84348575D01*
X118200500Y-84348543D01*
X118171404Y-84127537D01*
X118113710Y-83912219D01*
X118028405Y-83706274D01*
X117916948Y-83513226D01*
X117833771Y-83404827D01*
X117781248Y-83336377D01*
X117781242Y-83336370D01*
X117636819Y-83191947D01*
X117603334Y-83130624D01*
X117600500Y-83104266D01*
X117600500Y-80735733D01*
X117620185Y-80668694D01*
X117636819Y-80648052D01*
X117636820Y-80648051D01*
X117781247Y-80503624D01*
X117916948Y-80326774D01*
X118028405Y-80133726D01*
X118113710Y-79927781D01*
X118171404Y-79712463D01*
X118200500Y-79491457D01*
X118200500Y-79268575D01*
X144800000Y-79268575D01*
X144800000Y-79491424D01*
X144829085Y-79712354D01*
X144829088Y-79712367D01*
X144886763Y-79927618D01*
X144972045Y-80133502D01*
X144972054Y-80133520D01*
X145083464Y-80326491D01*
X145083473Y-80326504D01*
X145134040Y-80392403D01*
X145134043Y-80392403D01*
X145784152Y-79742293D01*
X145791049Y-79758942D01*
X145878599Y-79889970D01*
X145990030Y-80001401D01*
X146121058Y-80088951D01*
X146137705Y-80095846D01*
X145487595Y-80745955D01*
X145487595Y-80745956D01*
X145553507Y-80796533D01*
X145746485Y-80907949D01*
X145746497Y-80907954D01*
X145952381Y-80993236D01*
X146167632Y-81050911D01*
X146167645Y-81050914D01*
X146388575Y-81080000D01*
X146611425Y-81080000D01*
X146832354Y-81050914D01*
X146832367Y-81050911D01*
X147047618Y-80993236D01*
X147253502Y-80907954D01*
X147253514Y-80907949D01*
X147446498Y-80796530D01*
X147512403Y-80745957D01*
X147512404Y-80745956D01*
X146862294Y-80095846D01*
X146878942Y-80088951D01*
X147009970Y-80001401D01*
X147121401Y-79889970D01*
X147208951Y-79758942D01*
X147215846Y-79742294D01*
X147865956Y-80392404D01*
X147865957Y-80392403D01*
X147916530Y-80326498D01*
X148027949Y-80133514D01*
X148027954Y-80133502D01*
X148113236Y-79927618D01*
X148170911Y-79712367D01*
X148170914Y-79712354D01*
X148200000Y-79491424D01*
X148200000Y-79268575D01*
X148170914Y-79047645D01*
X148170911Y-79047632D01*
X148113236Y-78832381D01*
X148027954Y-78626497D01*
X148027949Y-78626485D01*
X147916533Y-78433507D01*
X147865956Y-78367595D01*
X147865955Y-78367595D01*
X147215846Y-79017704D01*
X147208951Y-79001058D01*
X147121401Y-78870030D01*
X147009970Y-78758599D01*
X146878942Y-78671049D01*
X146862293Y-78664152D01*
X147512403Y-78014043D01*
X147512403Y-78014040D01*
X147446504Y-77963473D01*
X147446491Y-77963464D01*
X147253520Y-77852054D01*
X147253502Y-77852045D01*
X147047618Y-77766763D01*
X146832367Y-77709088D01*
X146832354Y-77709085D01*
X146611425Y-77680000D01*
X146388575Y-77680000D01*
X146167645Y-77709085D01*
X146167632Y-77709088D01*
X145952381Y-77766763D01*
X145746497Y-77852045D01*
X145746479Y-77852054D01*
X145553511Y-77963462D01*
X145487595Y-78014042D01*
X146137706Y-78664152D01*
X146121058Y-78671049D01*
X145990030Y-78758599D01*
X145878599Y-78870030D01*
X145791049Y-79001058D01*
X145784153Y-79017706D01*
X145134042Y-78367595D01*
X145083462Y-78433511D01*
X144972054Y-78626479D01*
X144972045Y-78626497D01*
X144886763Y-78832381D01*
X144829088Y-79047632D01*
X144829085Y-79047645D01*
X144800000Y-79268575D01*
X118200500Y-79268575D01*
X118200500Y-79268543D01*
X118171404Y-79047537D01*
X118113710Y-78832219D01*
X118028405Y-78626274D01*
X117916948Y-78433226D01*
X117806906Y-78289815D01*
X117781248Y-78256377D01*
X117781242Y-78256370D01*
X117636819Y-78111947D01*
X117603334Y-78050624D01*
X117600500Y-78024266D01*
X117600500Y-75655733D01*
X117620185Y-75588694D01*
X117636819Y-75568052D01*
X117647910Y-75556961D01*
X117781247Y-75423624D01*
X117916948Y-75246774D01*
X118028405Y-75053726D01*
X118113710Y-74847781D01*
X118171404Y-74632463D01*
X118200500Y-74411457D01*
X118200500Y-74188575D01*
X144800000Y-74188575D01*
X144800000Y-74411424D01*
X144829085Y-74632354D01*
X144829088Y-74632367D01*
X144886763Y-74847618D01*
X144972045Y-75053502D01*
X144972054Y-75053520D01*
X145083464Y-75246491D01*
X145083473Y-75246504D01*
X145134040Y-75312403D01*
X145134043Y-75312403D01*
X145784152Y-74662293D01*
X145791049Y-74678942D01*
X145878599Y-74809970D01*
X145990030Y-74921401D01*
X146121058Y-75008951D01*
X146137705Y-75015846D01*
X145487595Y-75665955D01*
X145487595Y-75665956D01*
X145553507Y-75716533D01*
X145746485Y-75827949D01*
X145746497Y-75827954D01*
X145952381Y-75913236D01*
X146167632Y-75970911D01*
X146167645Y-75970914D01*
X146388575Y-76000000D01*
X146611425Y-76000000D01*
X146832354Y-75970914D01*
X146832367Y-75970911D01*
X147047618Y-75913236D01*
X147253502Y-75827954D01*
X147253514Y-75827949D01*
X147446498Y-75716530D01*
X147512403Y-75665957D01*
X147512404Y-75665956D01*
X146862294Y-75015846D01*
X146878942Y-75008951D01*
X147009970Y-74921401D01*
X147121401Y-74809970D01*
X147208951Y-74678942D01*
X147215846Y-74662294D01*
X147865956Y-75312404D01*
X147865957Y-75312403D01*
X147916530Y-75246498D01*
X148027949Y-75053514D01*
X148027954Y-75053502D01*
X148113236Y-74847618D01*
X148170911Y-74632367D01*
X148170914Y-74632354D01*
X148200000Y-74411424D01*
X148200000Y-74188575D01*
X148170914Y-73967645D01*
X148170911Y-73967632D01*
X148113236Y-73752381D01*
X148027954Y-73546497D01*
X148027949Y-73546485D01*
X147916533Y-73353507D01*
X147865956Y-73287595D01*
X147865955Y-73287595D01*
X147215846Y-73937704D01*
X147208951Y-73921058D01*
X147121401Y-73790030D01*
X147009970Y-73678599D01*
X146878942Y-73591049D01*
X146862293Y-73584152D01*
X147512403Y-72934043D01*
X147512403Y-72934040D01*
X147446504Y-72883473D01*
X147446491Y-72883464D01*
X147253520Y-72772054D01*
X147253502Y-72772045D01*
X147047618Y-72686763D01*
X146832367Y-72629088D01*
X146832354Y-72629085D01*
X146611425Y-72600000D01*
X146388575Y-72600000D01*
X146167645Y-72629085D01*
X146167632Y-72629088D01*
X145952381Y-72686763D01*
X145746497Y-72772045D01*
X145746479Y-72772054D01*
X145553511Y-72883462D01*
X145487595Y-72934042D01*
X146137706Y-73584152D01*
X146121058Y-73591049D01*
X145990030Y-73678599D01*
X145878599Y-73790030D01*
X145791049Y-73921058D01*
X145784153Y-73937706D01*
X145134042Y-73287595D01*
X145083462Y-73353511D01*
X144972054Y-73546479D01*
X144972045Y-73546497D01*
X144886763Y-73752381D01*
X144829088Y-73967632D01*
X144829085Y-73967645D01*
X144800000Y-74188575D01*
X118200500Y-74188575D01*
X118200500Y-74188543D01*
X118171404Y-73967537D01*
X118113710Y-73752219D01*
X118028405Y-73546274D01*
X117916948Y-73353226D01*
X117781247Y-73176376D01*
X117781242Y-73176370D01*
X117636819Y-73031947D01*
X117603334Y-72970624D01*
X117600500Y-72944266D01*
X117600500Y-70575733D01*
X117620185Y-70508694D01*
X117636819Y-70488052D01*
X117636820Y-70488051D01*
X117781247Y-70343624D01*
X117916948Y-70166774D01*
X118028405Y-69973726D01*
X118113710Y-69767781D01*
X118171404Y-69552463D01*
X118200500Y-69331457D01*
X118200500Y-69108575D01*
X144800000Y-69108575D01*
X144800000Y-69331424D01*
X144829085Y-69552354D01*
X144829088Y-69552367D01*
X144886763Y-69767618D01*
X144972045Y-69973502D01*
X144972054Y-69973520D01*
X145083464Y-70166491D01*
X145083473Y-70166504D01*
X145134040Y-70232403D01*
X145134043Y-70232403D01*
X145784152Y-69582293D01*
X145791049Y-69598942D01*
X145878599Y-69729970D01*
X145990030Y-69841401D01*
X146121058Y-69928951D01*
X146137705Y-69935846D01*
X145487595Y-70585955D01*
X145487595Y-70585956D01*
X145553507Y-70636533D01*
X145746485Y-70747949D01*
X145746497Y-70747954D01*
X145952381Y-70833236D01*
X146167632Y-70890911D01*
X146167645Y-70890914D01*
X146388575Y-70920000D01*
X146611425Y-70920000D01*
X146832354Y-70890914D01*
X146832367Y-70890911D01*
X147047618Y-70833236D01*
X147253502Y-70747954D01*
X147253514Y-70747949D01*
X147446498Y-70636530D01*
X147512403Y-70585957D01*
X147512404Y-70585956D01*
X146862294Y-69935846D01*
X146878942Y-69928951D01*
X147009970Y-69841401D01*
X147121401Y-69729970D01*
X147208951Y-69598942D01*
X147215846Y-69582294D01*
X147865956Y-70232404D01*
X147865957Y-70232403D01*
X147916530Y-70166498D01*
X148027949Y-69973514D01*
X148027954Y-69973502D01*
X148113236Y-69767618D01*
X148170911Y-69552367D01*
X148170914Y-69552354D01*
X148200000Y-69331424D01*
X148200000Y-69108575D01*
X148170914Y-68887645D01*
X148170911Y-68887632D01*
X148113236Y-68672381D01*
X148027954Y-68466497D01*
X148027949Y-68466485D01*
X147916533Y-68273507D01*
X147865956Y-68207595D01*
X147865955Y-68207595D01*
X147215846Y-68857704D01*
X147208951Y-68841058D01*
X147121401Y-68710030D01*
X147009970Y-68598599D01*
X146878942Y-68511049D01*
X146862293Y-68504152D01*
X147512403Y-67854043D01*
X147512403Y-67854040D01*
X147446504Y-67803473D01*
X147446491Y-67803464D01*
X147253520Y-67692054D01*
X147253502Y-67692045D01*
X147047618Y-67606763D01*
X146832367Y-67549088D01*
X146832354Y-67549085D01*
X146611425Y-67520000D01*
X146388575Y-67520000D01*
X146167645Y-67549085D01*
X146167632Y-67549088D01*
X145952381Y-67606763D01*
X145746497Y-67692045D01*
X145746479Y-67692054D01*
X145553511Y-67803462D01*
X145487595Y-67854042D01*
X146137706Y-68504152D01*
X146121058Y-68511049D01*
X145990030Y-68598599D01*
X145878599Y-68710030D01*
X145791049Y-68841058D01*
X145784153Y-68857706D01*
X145134042Y-68207595D01*
X145083462Y-68273511D01*
X144972054Y-68466479D01*
X144972045Y-68466497D01*
X144886763Y-68672381D01*
X144829088Y-68887632D01*
X144829085Y-68887645D01*
X144800000Y-69108575D01*
X118200500Y-69108575D01*
X118200500Y-69108543D01*
X118171404Y-68887537D01*
X118113710Y-68672219D01*
X118028405Y-68466274D01*
X117916948Y-68273226D01*
X117866588Y-68207595D01*
X117781248Y-68096377D01*
X117781242Y-68096370D01*
X117636819Y-67951947D01*
X117603334Y-67890624D01*
X117600500Y-67864266D01*
X117600500Y-65920300D01*
X117620185Y-65853261D01*
X117672989Y-65807506D01*
X117685482Y-65802599D01*
X117769334Y-65774814D01*
X117918655Y-65682711D01*
X118042711Y-65558655D01*
X118134814Y-65409334D01*
X118189999Y-65242797D01*
X118200500Y-65140008D01*
X118200500Y-63140014D01*
X144800000Y-63140014D01*
X144800000Y-63890000D01*
X145737639Y-63890000D01*
X145730743Y-63906649D01*
X145700000Y-64061207D01*
X145700000Y-64218793D01*
X145730743Y-64373351D01*
X145737639Y-64390000D01*
X144800000Y-64390000D01*
X144800000Y-65139985D01*
X144810493Y-65242689D01*
X144810494Y-65242696D01*
X144865641Y-65409118D01*
X144865643Y-65409123D01*
X144957684Y-65558344D01*
X145081655Y-65682315D01*
X145230876Y-65774356D01*
X145230881Y-65774358D01*
X145397303Y-65829505D01*
X145397310Y-65829506D01*
X145500014Y-65839999D01*
X145500027Y-65840000D01*
X146250000Y-65840000D01*
X146250000Y-64902360D01*
X146266649Y-64909257D01*
X146421207Y-64940000D01*
X146578793Y-64940000D01*
X146733351Y-64909257D01*
X146750000Y-64902360D01*
X146750000Y-65840000D01*
X147499973Y-65840000D01*
X147499985Y-65839999D01*
X147602689Y-65829506D01*
X147602696Y-65829505D01*
X147769118Y-65774358D01*
X147769123Y-65774356D01*
X147918344Y-65682315D01*
X148042315Y-65558344D01*
X148134356Y-65409123D01*
X148134358Y-65409118D01*
X148189505Y-65242696D01*
X148189506Y-65242689D01*
X148199999Y-65139985D01*
X148200000Y-65139972D01*
X148200000Y-64390000D01*
X147262361Y-64390000D01*
X147269257Y-64373351D01*
X147300000Y-64218793D01*
X147300000Y-64061207D01*
X147269257Y-63906649D01*
X147262361Y-63890000D01*
X148200000Y-63890000D01*
X148200000Y-63140027D01*
X148199999Y-63140014D01*
X148189506Y-63037310D01*
X148189505Y-63037303D01*
X148134358Y-62870881D01*
X148134356Y-62870876D01*
X148042315Y-62721655D01*
X147918344Y-62597684D01*
X147769123Y-62505643D01*
X147769118Y-62505641D01*
X147602696Y-62450494D01*
X147602689Y-62450493D01*
X147499985Y-62440000D01*
X146750000Y-62440000D01*
X146750000Y-63377639D01*
X146733351Y-63370743D01*
X146578793Y-63340000D01*
X146421207Y-63340000D01*
X146266649Y-63370743D01*
X146250000Y-63377639D01*
X146250000Y-62440000D01*
X145500014Y-62440000D01*
X145397310Y-62450493D01*
X145397303Y-62450494D01*
X145230881Y-62505641D01*
X145230876Y-62505643D01*
X145081655Y-62597684D01*
X144957684Y-62721655D01*
X144865643Y-62870876D01*
X144865641Y-62870881D01*
X144810494Y-63037303D01*
X144810493Y-63037310D01*
X144800000Y-63140014D01*
X118200500Y-63140014D01*
X118200500Y-63139992D01*
X118189999Y-63037203D01*
X118134814Y-62870666D01*
X118042711Y-62721345D01*
X117918655Y-62597289D01*
X117918651Y-62597286D01*
X117769337Y-62505187D01*
X117769335Y-62505186D01*
X117686065Y-62477593D01*
X117602797Y-62450001D01*
X117602795Y-62450000D01*
X117500015Y-62439500D01*
X117500008Y-62439500D01*
X115499992Y-62439500D01*
X115499984Y-62439500D01*
X115397204Y-62450000D01*
X115397203Y-62450001D01*
X115230664Y-62505186D01*
X115230662Y-62505187D01*
X115081348Y-62597286D01*
X115081344Y-62597289D01*
X114957289Y-62721344D01*
X114957286Y-62721348D01*
X114865187Y-62870662D01*
X114865186Y-62870664D01*
X114810001Y-63037203D01*
X114810000Y-63037204D01*
X114799500Y-63139984D01*
X114799500Y-65140015D01*
X114810000Y-65242795D01*
X114810001Y-65242796D01*
X114865186Y-65409335D01*
X114865187Y-65409337D01*
X114957286Y-65558651D01*
X114957289Y-65558655D01*
X115081344Y-65682710D01*
X115081348Y-65682713D01*
X115230662Y-65774812D01*
X115230664Y-65774813D01*
X115230666Y-65774814D01*
X115314505Y-65802595D01*
X115371948Y-65842366D01*
X115398772Y-65906881D01*
X115399500Y-65920300D01*
X115399500Y-67864266D01*
X115379815Y-67931305D01*
X115363181Y-67951947D01*
X115218757Y-68096370D01*
X115218751Y-68096377D01*
X115083058Y-68273217D01*
X115083052Y-68273226D01*
X114971595Y-68466273D01*
X114971593Y-68466277D01*
X114886293Y-68672209D01*
X114886290Y-68672219D01*
X114828597Y-68887534D01*
X114828594Y-68887547D01*
X114799501Y-69108533D01*
X114799500Y-69108549D01*
X114799500Y-69331450D01*
X114799501Y-69331466D01*
X114828594Y-69552452D01*
X114828595Y-69552457D01*
X114828596Y-69552463D01*
X114886290Y-69767780D01*
X114886293Y-69767790D01*
X114971591Y-69973717D01*
X114971595Y-69973726D01*
X115083052Y-70166774D01*
X115083057Y-70166780D01*
X115083058Y-70166782D01*
X115218750Y-70343621D01*
X115218751Y-70343622D01*
X115218753Y-70343624D01*
X115363182Y-70488053D01*
X115396666Y-70549374D01*
X115399500Y-70575733D01*
X115399500Y-72944266D01*
X115379815Y-73011305D01*
X115363181Y-73031947D01*
X115218757Y-73176370D01*
X115218751Y-73176377D01*
X115083058Y-73353217D01*
X115083052Y-73353226D01*
X114971595Y-73546273D01*
X114971593Y-73546277D01*
X114886293Y-73752209D01*
X114886290Y-73752219D01*
X114828597Y-73967534D01*
X114828594Y-73967547D01*
X114799501Y-74188533D01*
X114799500Y-74188549D01*
X114799500Y-74411450D01*
X114799501Y-74411466D01*
X114828594Y-74632452D01*
X114828595Y-74632457D01*
X114828596Y-74632463D01*
X114886290Y-74847780D01*
X114886293Y-74847790D01*
X114971591Y-75053717D01*
X114971595Y-75053726D01*
X115083052Y-75246774D01*
X115083057Y-75246780D01*
X115083058Y-75246782D01*
X115218750Y-75423621D01*
X115218751Y-75423622D01*
X115218753Y-75423624D01*
X115363182Y-75568053D01*
X115396666Y-75629374D01*
X115399500Y-75655733D01*
X115399500Y-78024266D01*
X115379815Y-78091305D01*
X115363181Y-78111947D01*
X115218757Y-78256370D01*
X115218751Y-78256377D01*
X115083058Y-78433217D01*
X115083052Y-78433226D01*
X114971595Y-78626273D01*
X114971593Y-78626277D01*
X114886293Y-78832209D01*
X114886290Y-78832219D01*
X114828597Y-79047534D01*
X114828594Y-79047547D01*
X114799501Y-79268533D01*
X114799500Y-79268549D01*
X114799500Y-79491450D01*
X114799501Y-79491466D01*
X114828594Y-79712452D01*
X114828595Y-79712457D01*
X114828596Y-79712463D01*
X114886290Y-79927780D01*
X114886293Y-79927790D01*
X114971591Y-80133717D01*
X114971595Y-80133726D01*
X115083052Y-80326774D01*
X115083057Y-80326780D01*
X115083058Y-80326782D01*
X115218750Y-80503621D01*
X115218751Y-80503622D01*
X115218753Y-80503624D01*
X115363182Y-80648053D01*
X115396666Y-80709374D01*
X115399500Y-80735733D01*
X115399500Y-83104266D01*
X115379815Y-83171305D01*
X115363181Y-83191947D01*
X115218757Y-83336370D01*
X115218751Y-83336377D01*
X115083058Y-83513217D01*
X115083052Y-83513226D01*
X114971595Y-83706273D01*
X114971593Y-83706277D01*
X114886293Y-83912209D01*
X114886290Y-83912219D01*
X114828597Y-84127534D01*
X114828594Y-84127547D01*
X114799501Y-84348533D01*
X114799500Y-84348549D01*
X114799500Y-84571450D01*
X114799501Y-84571466D01*
X114828594Y-84792452D01*
X114828595Y-84792457D01*
X114828596Y-84792463D01*
X114886290Y-85007780D01*
X114886293Y-85007790D01*
X114971591Y-85213717D01*
X114971595Y-85213726D01*
X115083052Y-85406774D01*
X115083057Y-85406780D01*
X115083058Y-85406782D01*
X115218750Y-85583621D01*
X115218751Y-85583622D01*
X115218753Y-85583624D01*
X115363182Y-85728053D01*
X115396666Y-85789374D01*
X115399500Y-85815733D01*
X115399500Y-88184266D01*
X115379815Y-88251305D01*
X115363181Y-88271947D01*
X115218757Y-88416370D01*
X115218751Y-88416377D01*
X115083058Y-88593217D01*
X115083052Y-88593226D01*
X114971595Y-88786273D01*
X114971593Y-88786277D01*
X114886293Y-88992209D01*
X114886290Y-88992219D01*
X114828597Y-89207534D01*
X114828594Y-89207547D01*
X114799501Y-89428533D01*
X114799500Y-89428549D01*
X114799500Y-89651450D01*
X114799501Y-89651466D01*
X114828594Y-89872452D01*
X114828595Y-89872457D01*
X114828596Y-89872463D01*
X114886290Y-90087780D01*
X114886293Y-90087790D01*
X114971591Y-90293716D01*
X114971595Y-90293726D01*
X115083052Y-90486774D01*
X115083057Y-90486780D01*
X115083058Y-90486782D01*
X115218750Y-90663621D01*
X115218751Y-90663622D01*
X115218753Y-90663624D01*
X115363182Y-90808053D01*
X115396666Y-90869374D01*
X115399500Y-90895733D01*
X115399500Y-93264266D01*
X115379815Y-93331305D01*
X115363181Y-93351947D01*
X115218757Y-93496370D01*
X115218751Y-93496377D01*
X115083058Y-93673217D01*
X115083052Y-93673226D01*
X114971595Y-93866273D01*
X114971593Y-93866277D01*
X114886293Y-94072209D01*
X114886290Y-94072219D01*
X114828597Y-94287534D01*
X114828594Y-94287547D01*
X114799501Y-94508533D01*
X114799500Y-94508549D01*
X114799500Y-94731450D01*
X114799501Y-94731466D01*
X114828594Y-94952452D01*
X114828595Y-94952457D01*
X114828596Y-94952463D01*
X114886290Y-95167780D01*
X114886293Y-95167790D01*
X114971591Y-95373717D01*
X114971595Y-95373726D01*
X115083052Y-95566774D01*
X115083057Y-95566780D01*
X115083058Y-95566782D01*
X115218750Y-95743621D01*
X115218751Y-95743622D01*
X115218753Y-95743624D01*
X115363182Y-95888053D01*
X115396666Y-95949374D01*
X115399500Y-95975733D01*
X115399500Y-98344266D01*
X115379815Y-98411305D01*
X115363181Y-98431947D01*
X115218757Y-98576370D01*
X115218751Y-98576377D01*
X115083058Y-98753217D01*
X115083052Y-98753226D01*
X114971595Y-98946273D01*
X114971593Y-98946277D01*
X114886293Y-99152209D01*
X114886290Y-99152219D01*
X114828597Y-99367534D01*
X114828594Y-99367547D01*
X114799501Y-99588533D01*
X114799500Y-99588549D01*
X114799500Y-99811450D01*
X114799501Y-99811466D01*
X114828594Y-100032452D01*
X114828595Y-100032457D01*
X114828596Y-100032463D01*
X114886290Y-100247780D01*
X114886293Y-100247790D01*
X114971591Y-100453717D01*
X114971595Y-100453726D01*
X115083052Y-100646774D01*
X115083057Y-100646780D01*
X115083058Y-100646782D01*
X115218750Y-100823621D01*
X115218751Y-100823622D01*
X115218753Y-100823624D01*
X115363182Y-100968053D01*
X115396666Y-101029374D01*
X115399500Y-101055733D01*
X115399500Y-103424266D01*
X115379815Y-103491305D01*
X115363181Y-103511947D01*
X115218757Y-103656370D01*
X115218751Y-103656377D01*
X115083058Y-103833217D01*
X115083052Y-103833226D01*
X114971595Y-104026273D01*
X114971593Y-104026277D01*
X114886293Y-104232209D01*
X114886290Y-104232219D01*
X114828597Y-104447534D01*
X114828594Y-104447547D01*
X114799501Y-104668533D01*
X114799500Y-104668549D01*
X114799500Y-104891450D01*
X114799501Y-104891466D01*
X114828594Y-105112452D01*
X114828595Y-105112457D01*
X114828596Y-105112463D01*
X114886290Y-105327780D01*
X114886293Y-105327790D01*
X114971591Y-105533717D01*
X114971595Y-105533726D01*
X115083052Y-105726774D01*
X115083057Y-105726780D01*
X115083058Y-105726782D01*
X115218750Y-105903621D01*
X115218751Y-105903622D01*
X115218753Y-105903624D01*
X115363182Y-106048053D01*
X115396666Y-106109374D01*
X115399500Y-106135733D01*
X115399500Y-108504266D01*
X115379815Y-108571305D01*
X115363181Y-108591947D01*
X115218757Y-108736370D01*
X115218751Y-108736377D01*
X115083058Y-108913217D01*
X115083052Y-108913226D01*
X114971595Y-109106273D01*
X114971593Y-109106277D01*
X114886293Y-109312209D01*
X114886290Y-109312219D01*
X114828597Y-109527534D01*
X114828594Y-109527547D01*
X114799501Y-109748533D01*
X114799500Y-109748549D01*
X114799500Y-109971450D01*
X114799501Y-109971466D01*
X114828594Y-110192452D01*
X114828595Y-110192457D01*
X114828596Y-110192463D01*
X114886290Y-110407780D01*
X114886293Y-110407790D01*
X114971591Y-110613717D01*
X114971595Y-110613726D01*
X115083052Y-110806774D01*
X115083057Y-110806780D01*
X115083058Y-110806782D01*
X115218750Y-110983621D01*
X115218751Y-110983622D01*
X115218753Y-110983624D01*
X115363182Y-111128053D01*
X115396666Y-111189374D01*
X115399500Y-111215733D01*
X115399500Y-113584266D01*
X115379815Y-113651305D01*
X115363181Y-113671947D01*
X115218757Y-113816370D01*
X115218751Y-113816377D01*
X115083058Y-113993217D01*
X115083052Y-113993226D01*
X114971595Y-114186273D01*
X114971593Y-114186277D01*
X114886293Y-114392209D01*
X114886290Y-114392219D01*
X114828597Y-114607534D01*
X114828594Y-114607547D01*
X114799501Y-114828533D01*
X114799500Y-114828549D01*
X114799500Y-115051450D01*
X114799501Y-115051466D01*
X114828594Y-115272452D01*
X114828595Y-115272457D01*
X114828596Y-115272463D01*
X114886290Y-115487780D01*
X114886293Y-115487790D01*
X114971591Y-115693717D01*
X114971595Y-115693726D01*
X115083052Y-115886774D01*
X115083057Y-115886780D01*
X115083058Y-115886782D01*
X115218750Y-116063621D01*
X115218751Y-116063622D01*
X115218753Y-116063624D01*
X115363182Y-116208053D01*
X115396666Y-116269374D01*
X115399500Y-116295733D01*
X115399500Y-118664266D01*
X115379815Y-118731305D01*
X115363181Y-118751947D01*
X115218757Y-118896370D01*
X115218751Y-118896377D01*
X115083058Y-119073217D01*
X115083052Y-119073226D01*
X114971595Y-119266273D01*
X114971593Y-119266277D01*
X114886293Y-119472209D01*
X114886290Y-119472219D01*
X114828597Y-119687534D01*
X114828594Y-119687547D01*
X114799501Y-119908533D01*
X114799500Y-119908549D01*
X114799500Y-120131450D01*
X114799501Y-120131466D01*
X114828594Y-120352452D01*
X114828595Y-120352457D01*
X114828596Y-120352463D01*
X114886290Y-120567780D01*
X114886293Y-120567790D01*
X114971591Y-120773717D01*
X114971595Y-120773726D01*
X115083052Y-120966774D01*
X115083057Y-120966780D01*
X115083058Y-120966782D01*
X115218750Y-121143621D01*
X115218751Y-121143622D01*
X115218753Y-121143624D01*
X115363182Y-121288053D01*
X115396666Y-121349374D01*
X115399500Y-121375733D01*
X115399500Y-122992796D01*
X115379815Y-123059835D01*
X115363181Y-123080477D01*
X114480477Y-123963181D01*
X114419154Y-123996666D01*
X114392796Y-123999500D01*
X67855733Y-123999500D01*
X67788694Y-123979815D01*
X67768056Y-123963185D01*
X67623624Y-123818753D01*
X67623623Y-123818752D01*
X67623621Y-123818750D01*
X67446782Y-123683058D01*
X67446780Y-123683057D01*
X67446774Y-123683052D01*
X67253726Y-123571595D01*
X67253722Y-123571593D01*
X67047790Y-123486293D01*
X67047783Y-123486291D01*
X67047781Y-123486290D01*
X66832463Y-123428596D01*
X66832457Y-123428595D01*
X66832452Y-123428594D01*
X66611466Y-123399501D01*
X66611463Y-123399500D01*
X66611457Y-123399500D01*
X66388543Y-123399500D01*
X66388537Y-123399500D01*
X66388533Y-123399501D01*
X66167547Y-123428594D01*
X66167540Y-123428595D01*
X66167537Y-123428596D01*
X65952219Y-123486290D01*
X65952209Y-123486293D01*
X65746277Y-123571593D01*
X65746273Y-123571595D01*
X65553226Y-123683052D01*
X65553217Y-123683058D01*
X65376377Y-123818751D01*
X65376370Y-123818757D01*
X65218757Y-123976370D01*
X65218751Y-123976377D01*
X65083058Y-124153217D01*
X65083052Y-124153226D01*
X64971595Y-124346273D01*
X64971593Y-124346277D01*
X64886293Y-124552209D01*
X64886290Y-124552219D01*
X64828597Y-124767534D01*
X64828594Y-124767547D01*
X64799501Y-124988533D01*
X64799500Y-124988549D01*
X60500500Y-124988549D01*
X60500500Y-119908549D01*
X64799500Y-119908549D01*
X64799500Y-120131450D01*
X64799501Y-120131466D01*
X64828594Y-120352452D01*
X64828595Y-120352457D01*
X64828596Y-120352463D01*
X64886290Y-120567780D01*
X64886293Y-120567790D01*
X64971591Y-120773717D01*
X64971595Y-120773726D01*
X65083052Y-120966774D01*
X65083057Y-120966780D01*
X65083058Y-120966782D01*
X65218751Y-121143622D01*
X65218757Y-121143629D01*
X65376370Y-121301242D01*
X65376377Y-121301248D01*
X65386081Y-121308694D01*
X65553226Y-121436948D01*
X65746274Y-121548405D01*
X65876140Y-121602197D01*
X65951074Y-121633236D01*
X65952219Y-121633710D01*
X66167537Y-121691404D01*
X66388543Y-121720500D01*
X66388550Y-121720500D01*
X66611450Y-121720500D01*
X66611457Y-121720500D01*
X66832463Y-121691404D01*
X67047781Y-121633710D01*
X67253726Y-121548405D01*
X67446774Y-121436948D01*
X67623624Y-121301247D01*
X67781247Y-121143624D01*
X67916948Y-120966774D01*
X68028405Y-120773726D01*
X68028491Y-120773520D01*
X68060166Y-120697048D01*
X68104006Y-120642644D01*
X68170300Y-120620579D01*
X68174727Y-120620500D01*
X74795375Y-120620500D01*
X74805697Y-120623531D01*
X74816384Y-120622293D01*
X74838636Y-120633203D01*
X74862414Y-120640185D01*
X74871112Y-120649125D01*
X74879119Y-120653051D01*
X74901491Y-120680349D01*
X74910559Y-120695349D01*
X74928396Y-120762904D01*
X74909982Y-120824597D01*
X74837998Y-120941300D01*
X74837996Y-120941305D01*
X74784651Y-121102290D01*
X74774500Y-121201647D01*
X74774500Y-121798337D01*
X74774501Y-121798355D01*
X74784650Y-121897707D01*
X74784651Y-121897710D01*
X74837996Y-122058694D01*
X74838001Y-122058705D01*
X74927029Y-122203040D01*
X74927032Y-122203044D01*
X75046955Y-122322967D01*
X75046959Y-122322970D01*
X75191294Y-122411998D01*
X75191297Y-122411999D01*
X75191303Y-122412003D01*
X75352292Y-122465349D01*
X75451655Y-122475500D01*
X75998344Y-122475499D01*
X75998352Y-122475498D01*
X75998355Y-122475498D01*
X76052760Y-122469940D01*
X76097708Y-122465349D01*
X76258697Y-122412003D01*
X76403044Y-122322968D01*
X76412668Y-122313343D01*
X76473987Y-122279856D01*
X76543679Y-122284835D01*
X76588034Y-122313339D01*
X76597267Y-122322572D01*
X76597271Y-122322575D01*
X76741507Y-122411542D01*
X76741518Y-122411547D01*
X76902393Y-122464855D01*
X77001683Y-122474999D01*
X77525000Y-122474999D01*
X77548308Y-122474999D01*
X77548322Y-122474998D01*
X77647607Y-122464855D01*
X77808481Y-122411547D01*
X77808492Y-122411542D01*
X77952728Y-122322575D01*
X77952732Y-122322572D01*
X78072572Y-122202732D01*
X78072575Y-122202728D01*
X78161542Y-122058492D01*
X78161547Y-122058481D01*
X78214855Y-121897606D01*
X78224999Y-121798322D01*
X78225000Y-121798309D01*
X78225000Y-121750000D01*
X77525000Y-121750000D01*
X77525000Y-122474999D01*
X77001683Y-122474999D01*
X77025000Y-122474998D01*
X77025000Y-121624000D01*
X77044685Y-121556961D01*
X77097489Y-121511206D01*
X77149000Y-121500000D01*
X77275000Y-121500000D01*
X77275000Y-121374000D01*
X77294685Y-121306961D01*
X77347489Y-121261206D01*
X77399000Y-121250000D01*
X78224999Y-121250000D01*
X78224999Y-121201692D01*
X78224998Y-121201677D01*
X78214855Y-121102392D01*
X78161547Y-120941518D01*
X78161542Y-120941507D01*
X78089727Y-120825078D01*
X78085760Y-120810583D01*
X78077291Y-120798167D01*
X78076725Y-120777564D01*
X78071286Y-120757686D01*
X78075755Y-120742210D01*
X78075374Y-120728324D01*
X78089145Y-120695837D01*
X78110600Y-120660346D01*
X78162128Y-120613161D01*
X78216715Y-120600500D01*
X84816989Y-120600500D01*
X84884028Y-120620185D01*
X84929783Y-120672989D01*
X84931550Y-120677048D01*
X84971590Y-120773717D01*
X84971593Y-120773722D01*
X84971595Y-120773726D01*
X85083052Y-120966774D01*
X85083057Y-120966780D01*
X85083058Y-120966782D01*
X85218751Y-121143622D01*
X85218757Y-121143629D01*
X85376370Y-121301242D01*
X85376377Y-121301248D01*
X85386081Y-121308694D01*
X85553226Y-121436948D01*
X85746274Y-121548405D01*
X85876140Y-121602197D01*
X85951074Y-121633236D01*
X85952219Y-121633710D01*
X86167537Y-121691404D01*
X86388543Y-121720500D01*
X86388550Y-121720500D01*
X86611450Y-121720500D01*
X86611457Y-121720500D01*
X86832463Y-121691404D01*
X87047781Y-121633710D01*
X87253726Y-121548405D01*
X87446774Y-121436948D01*
X87623624Y-121301247D01*
X87781247Y-121143624D01*
X87916948Y-120966774D01*
X88028405Y-120773726D01*
X88113710Y-120567781D01*
X88171404Y-120352463D01*
X88200500Y-120131457D01*
X88200500Y-119908543D01*
X88171404Y-119687537D01*
X88113710Y-119472219D01*
X88028405Y-119266274D01*
X87916948Y-119073226D01*
X87781247Y-118896376D01*
X87781242Y-118896370D01*
X87623629Y-118738757D01*
X87623622Y-118738751D01*
X87446782Y-118603058D01*
X87446780Y-118603057D01*
X87446774Y-118603052D01*
X87253726Y-118491595D01*
X87253722Y-118491593D01*
X87047790Y-118406293D01*
X87047783Y-118406291D01*
X87047781Y-118406290D01*
X86832463Y-118348596D01*
X86832457Y-118348595D01*
X86832452Y-118348594D01*
X86611466Y-118319501D01*
X86611463Y-118319500D01*
X86611457Y-118319500D01*
X86388543Y-118319500D01*
X86388537Y-118319500D01*
X86388533Y-118319501D01*
X86167547Y-118348594D01*
X86167540Y-118348595D01*
X86167537Y-118348596D01*
X85952219Y-118406290D01*
X85952209Y-118406293D01*
X85746277Y-118491593D01*
X85746273Y-118491595D01*
X85553226Y-118603052D01*
X85553217Y-118603058D01*
X85376377Y-118738751D01*
X85376370Y-118738757D01*
X85218757Y-118896370D01*
X85218751Y-118896377D01*
X85083058Y-119073217D01*
X85083052Y-119073226D01*
X84971595Y-119266273D01*
X84971590Y-119266282D01*
X84948118Y-119322952D01*
X84904278Y-119377356D01*
X84837984Y-119399421D01*
X84833557Y-119399500D01*
X78216715Y-119399500D01*
X78149676Y-119379815D01*
X78110598Y-119339650D01*
X78093308Y-119311049D01*
X78080472Y-119289815D01*
X78080470Y-119289813D01*
X78080469Y-119289811D01*
X77960188Y-119169530D01*
X77814606Y-119081522D01*
X77787954Y-119073217D01*
X77652196Y-119030914D01*
X77652194Y-119030913D01*
X77652192Y-119030913D01*
X77602778Y-119026423D01*
X77581616Y-119024500D01*
X77068384Y-119024500D01*
X77049145Y-119026248D01*
X76997807Y-119030913D01*
X76835393Y-119081522D01*
X76689811Y-119169530D01*
X76689810Y-119169531D01*
X76587681Y-119271661D01*
X76526358Y-119305146D01*
X76456666Y-119300162D01*
X76412319Y-119271661D01*
X76310188Y-119169530D01*
X76164606Y-119081522D01*
X76137954Y-119073217D01*
X76002196Y-119030914D01*
X76002194Y-119030913D01*
X76002192Y-119030913D01*
X75952778Y-119026423D01*
X75931616Y-119024500D01*
X75418384Y-119024500D01*
X75399145Y-119026248D01*
X75347807Y-119030913D01*
X75185393Y-119081522D01*
X75039811Y-119169530D01*
X74919531Y-119289810D01*
X74919528Y-119289814D01*
X74877310Y-119359651D01*
X74825782Y-119406838D01*
X74771194Y-119419500D01*
X68174727Y-119419500D01*
X68107688Y-119399815D01*
X68061933Y-119347011D01*
X68060166Y-119342952D01*
X68028409Y-119266282D01*
X68028404Y-119266273D01*
X68019438Y-119250743D01*
X67916948Y-119073226D01*
X67781247Y-118896376D01*
X67781242Y-118896370D01*
X67623629Y-118738757D01*
X67623622Y-118738751D01*
X67446782Y-118603058D01*
X67446780Y-118603057D01*
X67446774Y-118603052D01*
X67253726Y-118491595D01*
X67253722Y-118491593D01*
X67047790Y-118406293D01*
X67047783Y-118406291D01*
X67047781Y-118406290D01*
X66832463Y-118348596D01*
X66832457Y-118348595D01*
X66832452Y-118348594D01*
X66611466Y-118319501D01*
X66611463Y-118319500D01*
X66611457Y-118319500D01*
X66388543Y-118319500D01*
X66388537Y-118319500D01*
X66388533Y-118319501D01*
X66167547Y-118348594D01*
X66167540Y-118348595D01*
X66167537Y-118348596D01*
X65952219Y-118406290D01*
X65952209Y-118406293D01*
X65746277Y-118491593D01*
X65746273Y-118491595D01*
X65553226Y-118603052D01*
X65553217Y-118603058D01*
X65376377Y-118738751D01*
X65376370Y-118738757D01*
X65218757Y-118896370D01*
X65218751Y-118896377D01*
X65083058Y-119073217D01*
X65083052Y-119073226D01*
X64971595Y-119266273D01*
X64971593Y-119266277D01*
X64886293Y-119472209D01*
X64886290Y-119472219D01*
X64828597Y-119687534D01*
X64828594Y-119687547D01*
X64799501Y-119908533D01*
X64799500Y-119908549D01*
X60500500Y-119908549D01*
X60500500Y-114828549D01*
X64799500Y-114828549D01*
X64799500Y-115051450D01*
X64799501Y-115051466D01*
X64828594Y-115272452D01*
X64828595Y-115272457D01*
X64828596Y-115272463D01*
X64886290Y-115487780D01*
X64886293Y-115487790D01*
X64971591Y-115693717D01*
X64971595Y-115693726D01*
X65083052Y-115886774D01*
X65083057Y-115886780D01*
X65083058Y-115886782D01*
X65218751Y-116063622D01*
X65218757Y-116063629D01*
X65376370Y-116221242D01*
X65376376Y-116221247D01*
X65553226Y-116356948D01*
X65746274Y-116468405D01*
X65849605Y-116511206D01*
X65951074Y-116553236D01*
X65952219Y-116553710D01*
X66167537Y-116611404D01*
X66388543Y-116640500D01*
X66388550Y-116640500D01*
X66611450Y-116640500D01*
X66611457Y-116640500D01*
X66832463Y-116611404D01*
X67047781Y-116553710D01*
X67253726Y-116468405D01*
X67446774Y-116356948D01*
X67623624Y-116221247D01*
X67781247Y-116063624D01*
X67916948Y-115886774D01*
X68028405Y-115693726D01*
X68028491Y-115693520D01*
X68060166Y-115617048D01*
X68104006Y-115562644D01*
X68170300Y-115540579D01*
X68174727Y-115540500D01*
X74747014Y-115540500D01*
X74757337Y-115543531D01*
X74768025Y-115542293D01*
X74790278Y-115553204D01*
X74814053Y-115560185D01*
X74822751Y-115569125D01*
X74830760Y-115573052D01*
X74853129Y-115600349D01*
X74865121Y-115620185D01*
X74910560Y-115695351D01*
X74928396Y-115762905D01*
X74909982Y-115824597D01*
X74837998Y-115941300D01*
X74837996Y-115941305D01*
X74784651Y-116102290D01*
X74774500Y-116201647D01*
X74774500Y-116798337D01*
X74774501Y-116798355D01*
X74784650Y-116897707D01*
X74784651Y-116897710D01*
X74837996Y-117058694D01*
X74838001Y-117058705D01*
X74927029Y-117203040D01*
X74927032Y-117203044D01*
X75046955Y-117322967D01*
X75046959Y-117322970D01*
X75191294Y-117411998D01*
X75191297Y-117411999D01*
X75191303Y-117412003D01*
X75352292Y-117465349D01*
X75451655Y-117475500D01*
X75998344Y-117475499D01*
X75998352Y-117475498D01*
X75998355Y-117475498D01*
X76052760Y-117469940D01*
X76097708Y-117465349D01*
X76258697Y-117412003D01*
X76403044Y-117322968D01*
X76412668Y-117313343D01*
X76473987Y-117279856D01*
X76543679Y-117284835D01*
X76588034Y-117313339D01*
X76597267Y-117322572D01*
X76597271Y-117322575D01*
X76741507Y-117411542D01*
X76741518Y-117411547D01*
X76902393Y-117464855D01*
X77001683Y-117474999D01*
X77525000Y-117474999D01*
X77548308Y-117474999D01*
X77548322Y-117474998D01*
X77647607Y-117464855D01*
X77808481Y-117411547D01*
X77808492Y-117411542D01*
X77952728Y-117322575D01*
X77952732Y-117322572D01*
X78072572Y-117202732D01*
X78072575Y-117202728D01*
X78161542Y-117058492D01*
X78161547Y-117058481D01*
X78214855Y-116897606D01*
X78224999Y-116798322D01*
X78225000Y-116798309D01*
X78225000Y-116750000D01*
X77525000Y-116750000D01*
X77525000Y-117474999D01*
X77001683Y-117474999D01*
X77025000Y-117474998D01*
X77025000Y-116624000D01*
X77044685Y-116556961D01*
X77097489Y-116511206D01*
X77149000Y-116500000D01*
X77275000Y-116500000D01*
X77275000Y-116374000D01*
X77294685Y-116306961D01*
X77347489Y-116261206D01*
X77399000Y-116250000D01*
X78224999Y-116250000D01*
X78224999Y-116201692D01*
X78224998Y-116201677D01*
X78214855Y-116102392D01*
X78161547Y-115941518D01*
X78161542Y-115941507D01*
X78089727Y-115825078D01*
X78085760Y-115810583D01*
X78077291Y-115798167D01*
X78076725Y-115777564D01*
X78071286Y-115757686D01*
X78075755Y-115742210D01*
X78075374Y-115728324D01*
X78089145Y-115695837D01*
X78110600Y-115660346D01*
X78162128Y-115613161D01*
X78216715Y-115600500D01*
X84850125Y-115600500D01*
X84917164Y-115620185D01*
X84962919Y-115672989D01*
X84964686Y-115677047D01*
X84971591Y-115693717D01*
X84971595Y-115693726D01*
X85083052Y-115886774D01*
X85083057Y-115886780D01*
X85083058Y-115886782D01*
X85218751Y-116063622D01*
X85218757Y-116063629D01*
X85376370Y-116221242D01*
X85376376Y-116221247D01*
X85553226Y-116356948D01*
X85746274Y-116468405D01*
X85849605Y-116511206D01*
X85951074Y-116553236D01*
X85952219Y-116553710D01*
X86167537Y-116611404D01*
X86388543Y-116640500D01*
X86388550Y-116640500D01*
X86611450Y-116640500D01*
X86611457Y-116640500D01*
X86832463Y-116611404D01*
X87047781Y-116553710D01*
X87253726Y-116468405D01*
X87446774Y-116356948D01*
X87623624Y-116221247D01*
X87781247Y-116063624D01*
X87916948Y-115886774D01*
X88028405Y-115693726D01*
X88113710Y-115487781D01*
X88171404Y-115272463D01*
X88200500Y-115051457D01*
X88200500Y-114828543D01*
X88171404Y-114607537D01*
X88113710Y-114392219D01*
X88028405Y-114186274D01*
X87916948Y-113993226D01*
X87781247Y-113816376D01*
X87781242Y-113816370D01*
X87623629Y-113658757D01*
X87623622Y-113658751D01*
X87446782Y-113523058D01*
X87446780Y-113523057D01*
X87446774Y-113523052D01*
X87253726Y-113411595D01*
X87253722Y-113411593D01*
X87047790Y-113326293D01*
X87047783Y-113326291D01*
X87047781Y-113326290D01*
X86832463Y-113268596D01*
X86832457Y-113268595D01*
X86832452Y-113268594D01*
X86611466Y-113239501D01*
X86611463Y-113239500D01*
X86611457Y-113239500D01*
X86388543Y-113239500D01*
X86388537Y-113239500D01*
X86388533Y-113239501D01*
X86167547Y-113268594D01*
X86167540Y-113268595D01*
X86167537Y-113268596D01*
X85952219Y-113326290D01*
X85952209Y-113326293D01*
X85746277Y-113411593D01*
X85746273Y-113411595D01*
X85553226Y-113523052D01*
X85553217Y-113523058D01*
X85376377Y-113658751D01*
X85376370Y-113658757D01*
X85218757Y-113816370D01*
X85218751Y-113816377D01*
X85083058Y-113993217D01*
X85083052Y-113993226D01*
X84971595Y-114186273D01*
X84971590Y-114186282D01*
X84914981Y-114322952D01*
X84871140Y-114377356D01*
X84804846Y-114399421D01*
X84800420Y-114399500D01*
X78216715Y-114399500D01*
X78149676Y-114379815D01*
X78110598Y-114339650D01*
X78080472Y-114289815D01*
X78080470Y-114289813D01*
X78080469Y-114289811D01*
X77960188Y-114169530D01*
X77814606Y-114081522D01*
X77652196Y-114030914D01*
X77652194Y-114030913D01*
X77652192Y-114030913D01*
X77602778Y-114026423D01*
X77581616Y-114024500D01*
X77068384Y-114024500D01*
X77049145Y-114026248D01*
X76997807Y-114030913D01*
X76835393Y-114081522D01*
X76689811Y-114169530D01*
X76689810Y-114169531D01*
X76587681Y-114271661D01*
X76526358Y-114305146D01*
X76456666Y-114300162D01*
X76412319Y-114271661D01*
X76310188Y-114169530D01*
X76164606Y-114081522D01*
X76002196Y-114030914D01*
X76002194Y-114030913D01*
X76002192Y-114030913D01*
X75952778Y-114026423D01*
X75931616Y-114024500D01*
X75418384Y-114024500D01*
X75399145Y-114026248D01*
X75347807Y-114030913D01*
X75185393Y-114081522D01*
X75039811Y-114169530D01*
X74919531Y-114289810D01*
X74917843Y-114291966D01*
X74916204Y-114293137D01*
X74914224Y-114295118D01*
X74913894Y-114294788D01*
X74861007Y-114332603D01*
X74820227Y-114339500D01*
X68174727Y-114339500D01*
X68107688Y-114319815D01*
X68061933Y-114267011D01*
X68060166Y-114262952D01*
X68028409Y-114186282D01*
X68028404Y-114186273D01*
X68018738Y-114169531D01*
X67916948Y-113993226D01*
X67781247Y-113816376D01*
X67781242Y-113816370D01*
X67623629Y-113658757D01*
X67623622Y-113658751D01*
X67446782Y-113523058D01*
X67446780Y-113523057D01*
X67446774Y-113523052D01*
X67253726Y-113411595D01*
X67253722Y-113411593D01*
X67047790Y-113326293D01*
X67047783Y-113326291D01*
X67047781Y-113326290D01*
X66832463Y-113268596D01*
X66832457Y-113268595D01*
X66832452Y-113268594D01*
X66611466Y-113239501D01*
X66611463Y-113239500D01*
X66611457Y-113239500D01*
X66388543Y-113239500D01*
X66388537Y-113239500D01*
X66388533Y-113239501D01*
X66167547Y-113268594D01*
X66167540Y-113268595D01*
X66167537Y-113268596D01*
X65952219Y-113326290D01*
X65952209Y-113326293D01*
X65746277Y-113411593D01*
X65746273Y-113411595D01*
X65553226Y-113523052D01*
X65553217Y-113523058D01*
X65376377Y-113658751D01*
X65376370Y-113658757D01*
X65218757Y-113816370D01*
X65218751Y-113816377D01*
X65083058Y-113993217D01*
X65083052Y-113993226D01*
X64971595Y-114186273D01*
X64971593Y-114186277D01*
X64886293Y-114392209D01*
X64886290Y-114392219D01*
X64828597Y-114607534D01*
X64828594Y-114607547D01*
X64799501Y-114828533D01*
X64799500Y-114828549D01*
X60500500Y-114828549D01*
X60500500Y-109748549D01*
X64799500Y-109748549D01*
X64799500Y-109971450D01*
X64799501Y-109971466D01*
X64828594Y-110192452D01*
X64828595Y-110192457D01*
X64828596Y-110192463D01*
X64886290Y-110407780D01*
X64886293Y-110407790D01*
X64971591Y-110613717D01*
X64971595Y-110613726D01*
X65083052Y-110806774D01*
X65083057Y-110806780D01*
X65083058Y-110806782D01*
X65218751Y-110983622D01*
X65218757Y-110983629D01*
X65376370Y-111141242D01*
X65376376Y-111141247D01*
X65553226Y-111276948D01*
X65746274Y-111388405D01*
X65876140Y-111442197D01*
X65951074Y-111473236D01*
X65952219Y-111473710D01*
X66167537Y-111531404D01*
X66388543Y-111560500D01*
X66388550Y-111560500D01*
X66611450Y-111560500D01*
X66611457Y-111560500D01*
X66832463Y-111531404D01*
X67047781Y-111473710D01*
X67253726Y-111388405D01*
X67446774Y-111276948D01*
X67623624Y-111141247D01*
X67781247Y-110983624D01*
X67916948Y-110806774D01*
X68028405Y-110613726D01*
X68028491Y-110613520D01*
X68060166Y-110537048D01*
X68104006Y-110482644D01*
X68170300Y-110460579D01*
X68174727Y-110460500D01*
X74625097Y-110460500D01*
X74692136Y-110480185D01*
X74737891Y-110532989D01*
X74744869Y-110552398D01*
X74755423Y-110591785D01*
X74834481Y-110728716D01*
X74834483Y-110728718D01*
X74848427Y-110742662D01*
X74881912Y-110803985D01*
X74876928Y-110873677D01*
X74866286Y-110895438D01*
X74837999Y-110941298D01*
X74837996Y-110941305D01*
X74784651Y-111102290D01*
X74774500Y-111201647D01*
X74774500Y-111798337D01*
X74774501Y-111798355D01*
X74784650Y-111897707D01*
X74784651Y-111897710D01*
X74837996Y-112058694D01*
X74838001Y-112058705D01*
X74927029Y-112203040D01*
X74927032Y-112203044D01*
X75046955Y-112322967D01*
X75046959Y-112322970D01*
X75191294Y-112411998D01*
X75191297Y-112411999D01*
X75191303Y-112412003D01*
X75352292Y-112465349D01*
X75451655Y-112475500D01*
X75998344Y-112475499D01*
X75998352Y-112475498D01*
X75998355Y-112475498D01*
X76052760Y-112469940D01*
X76097708Y-112465349D01*
X76258697Y-112412003D01*
X76403044Y-112322968D01*
X76412668Y-112313343D01*
X76473987Y-112279856D01*
X76543679Y-112284835D01*
X76588034Y-112313339D01*
X76597267Y-112322572D01*
X76597271Y-112322575D01*
X76741507Y-112411542D01*
X76741518Y-112411547D01*
X76902393Y-112464855D01*
X77001683Y-112474999D01*
X77525000Y-112474999D01*
X77548308Y-112474999D01*
X77548322Y-112474998D01*
X77647607Y-112464855D01*
X77808481Y-112411547D01*
X77808492Y-112411542D01*
X77952728Y-112322575D01*
X77952732Y-112322572D01*
X78072572Y-112202732D01*
X78072575Y-112202728D01*
X78161542Y-112058492D01*
X78161547Y-112058481D01*
X78214855Y-111897606D01*
X78224999Y-111798322D01*
X78225000Y-111798309D01*
X78225000Y-111750000D01*
X77525000Y-111750000D01*
X77525000Y-112474999D01*
X77001683Y-112474999D01*
X77025000Y-112474998D01*
X77025000Y-111624000D01*
X77044685Y-111556961D01*
X77097489Y-111511206D01*
X77149000Y-111500000D01*
X77275000Y-111500000D01*
X77275000Y-111374000D01*
X77294685Y-111306961D01*
X77347489Y-111261206D01*
X77399000Y-111250000D01*
X78224999Y-111250000D01*
X78224999Y-111201692D01*
X78224998Y-111201677D01*
X78214855Y-111102392D01*
X78161547Y-110941518D01*
X78161542Y-110941507D01*
X78089727Y-110825078D01*
X78071286Y-110757686D01*
X78089148Y-110695832D01*
X78168478Y-110564606D01*
X78219086Y-110402196D01*
X78225500Y-110331616D01*
X78225500Y-110224500D01*
X78245185Y-110157461D01*
X78297989Y-110111706D01*
X78349500Y-110100500D01*
X84708807Y-110100500D01*
X84775846Y-110120185D01*
X84821601Y-110172989D01*
X84828582Y-110192407D01*
X84828595Y-110192455D01*
X84828596Y-110192463D01*
X84886290Y-110407780D01*
X84886293Y-110407790D01*
X84971591Y-110613717D01*
X84971595Y-110613726D01*
X85083052Y-110806774D01*
X85083057Y-110806780D01*
X85083058Y-110806782D01*
X85218751Y-110983622D01*
X85218757Y-110983629D01*
X85376370Y-111141242D01*
X85376376Y-111141247D01*
X85553226Y-111276948D01*
X85746274Y-111388405D01*
X85876140Y-111442197D01*
X85951074Y-111473236D01*
X85952219Y-111473710D01*
X86167537Y-111531404D01*
X86388543Y-111560500D01*
X86388550Y-111560500D01*
X86611450Y-111560500D01*
X86611457Y-111560500D01*
X86832463Y-111531404D01*
X87047781Y-111473710D01*
X87253726Y-111388405D01*
X87446774Y-111276948D01*
X87623624Y-111141247D01*
X87781247Y-110983624D01*
X87916948Y-110806774D01*
X88028405Y-110613726D01*
X88113710Y-110407781D01*
X88171404Y-110192463D01*
X88200500Y-109971457D01*
X88200500Y-109748543D01*
X88171404Y-109527537D01*
X88113710Y-109312219D01*
X88028405Y-109106274D01*
X87916948Y-108913226D01*
X87781247Y-108736376D01*
X87781242Y-108736370D01*
X87623629Y-108578757D01*
X87623622Y-108578751D01*
X87446782Y-108443058D01*
X87446780Y-108443057D01*
X87446774Y-108443052D01*
X87253726Y-108331595D01*
X87253722Y-108331593D01*
X87047790Y-108246293D01*
X87047783Y-108246291D01*
X87047781Y-108246290D01*
X86832463Y-108188596D01*
X86832457Y-108188595D01*
X86832452Y-108188594D01*
X86611466Y-108159501D01*
X86611463Y-108159500D01*
X86611457Y-108159500D01*
X86388543Y-108159500D01*
X86388537Y-108159500D01*
X86388533Y-108159501D01*
X86167547Y-108188594D01*
X86167540Y-108188595D01*
X86167537Y-108188596D01*
X85952219Y-108246290D01*
X85952209Y-108246293D01*
X85746277Y-108331593D01*
X85746273Y-108331595D01*
X85553226Y-108443052D01*
X85553217Y-108443058D01*
X85376377Y-108578751D01*
X85376370Y-108578757D01*
X85218757Y-108736370D01*
X85218751Y-108736377D01*
X85130810Y-108850986D01*
X85074383Y-108892189D01*
X85032434Y-108899500D01*
X77245943Y-108899500D01*
X77093216Y-108940423D01*
X77093209Y-108940426D01*
X76956291Y-109019475D01*
X76956280Y-109019482D01*
X76942489Y-109033274D01*
X76891700Y-109063976D01*
X76835397Y-109081520D01*
X76689811Y-109169530D01*
X76689810Y-109169531D01*
X76587681Y-109271661D01*
X76526358Y-109305146D01*
X76456666Y-109300162D01*
X76412319Y-109271661D01*
X76310188Y-109169530D01*
X76205555Y-109106277D01*
X76164606Y-109081522D01*
X76002196Y-109030914D01*
X76002194Y-109030913D01*
X76002192Y-109030913D01*
X75952778Y-109026423D01*
X75931616Y-109024500D01*
X75418384Y-109024500D01*
X75399145Y-109026248D01*
X75347807Y-109030913D01*
X75185393Y-109081522D01*
X75039811Y-109169530D01*
X75039810Y-109169531D01*
X74986163Y-109223180D01*
X74924840Y-109256666D01*
X74898481Y-109259500D01*
X68174727Y-109259500D01*
X68107688Y-109239815D01*
X68061933Y-109187011D01*
X68060166Y-109182952D01*
X68028409Y-109106282D01*
X68028404Y-109106273D01*
X68003984Y-109063976D01*
X67916948Y-108913226D01*
X67781247Y-108736376D01*
X67781242Y-108736370D01*
X67623629Y-108578757D01*
X67623622Y-108578751D01*
X67446782Y-108443058D01*
X67446780Y-108443057D01*
X67446774Y-108443052D01*
X67253726Y-108331595D01*
X67253722Y-108331593D01*
X67047790Y-108246293D01*
X67047783Y-108246291D01*
X67047781Y-108246290D01*
X66832463Y-108188596D01*
X66832457Y-108188595D01*
X66832452Y-108188594D01*
X66611466Y-108159501D01*
X66611463Y-108159500D01*
X66611457Y-108159500D01*
X66388543Y-108159500D01*
X66388537Y-108159500D01*
X66388533Y-108159501D01*
X66167547Y-108188594D01*
X66167540Y-108188595D01*
X66167537Y-108188596D01*
X65952219Y-108246290D01*
X65952209Y-108246293D01*
X65746277Y-108331593D01*
X65746273Y-108331595D01*
X65553226Y-108443052D01*
X65553217Y-108443058D01*
X65376377Y-108578751D01*
X65376370Y-108578757D01*
X65218757Y-108736370D01*
X65218751Y-108736377D01*
X65083058Y-108913217D01*
X65083052Y-108913226D01*
X64971595Y-109106273D01*
X64971593Y-109106277D01*
X64886293Y-109312209D01*
X64886290Y-109312219D01*
X64828597Y-109527534D01*
X64828594Y-109527547D01*
X64799501Y-109748533D01*
X64799500Y-109748549D01*
X60500500Y-109748549D01*
X60500500Y-104668549D01*
X64799500Y-104668549D01*
X64799500Y-104891450D01*
X64799501Y-104891466D01*
X64828594Y-105112452D01*
X64828595Y-105112457D01*
X64828596Y-105112463D01*
X64886290Y-105327780D01*
X64886293Y-105327790D01*
X64971591Y-105533717D01*
X64971595Y-105533726D01*
X65083052Y-105726774D01*
X65083057Y-105726780D01*
X65083058Y-105726782D01*
X65218751Y-105903622D01*
X65218757Y-105903629D01*
X65376370Y-106061242D01*
X65376376Y-106061247D01*
X65553226Y-106196948D01*
X65746274Y-106308405D01*
X65876140Y-106362197D01*
X65951074Y-106393236D01*
X65952219Y-106393710D01*
X66167537Y-106451404D01*
X66388543Y-106480500D01*
X66388550Y-106480500D01*
X66611450Y-106480500D01*
X66611457Y-106480500D01*
X66832463Y-106451404D01*
X67047781Y-106393710D01*
X67253726Y-106308405D01*
X67446774Y-106196948D01*
X67623624Y-106061247D01*
X67781247Y-105903624D01*
X67916948Y-105726774D01*
X68028405Y-105533726D01*
X68028491Y-105533520D01*
X68060166Y-105457048D01*
X68104006Y-105402644D01*
X68170300Y-105380579D01*
X68174727Y-105380500D01*
X74676484Y-105380500D01*
X74743523Y-105400185D01*
X74789278Y-105452989D01*
X74799222Y-105522147D01*
X74794190Y-105543504D01*
X74784651Y-105572290D01*
X74774500Y-105671647D01*
X74774500Y-106268337D01*
X74774501Y-106268355D01*
X74784650Y-106367707D01*
X74784651Y-106367710D01*
X74837996Y-106528694D01*
X74838001Y-106528705D01*
X74927029Y-106673040D01*
X74927032Y-106673044D01*
X75046955Y-106792967D01*
X75046959Y-106792970D01*
X75191294Y-106881998D01*
X75191297Y-106881999D01*
X75191303Y-106882003D01*
X75352292Y-106935349D01*
X75451655Y-106945500D01*
X75998344Y-106945499D01*
X75998352Y-106945498D01*
X75998355Y-106945498D01*
X76052760Y-106939940D01*
X76097708Y-106935349D01*
X76258697Y-106882003D01*
X76403044Y-106792968D01*
X76412668Y-106783343D01*
X76473987Y-106749856D01*
X76543679Y-106754835D01*
X76588034Y-106783339D01*
X76597267Y-106792572D01*
X76597271Y-106792575D01*
X76741507Y-106881542D01*
X76741518Y-106881547D01*
X76902393Y-106934855D01*
X77001683Y-106944999D01*
X77525000Y-106944999D01*
X77548308Y-106944999D01*
X77548322Y-106944998D01*
X77647607Y-106934855D01*
X77808481Y-106881547D01*
X77808492Y-106881542D01*
X77952728Y-106792575D01*
X77952732Y-106792572D01*
X78072572Y-106672732D01*
X78072575Y-106672728D01*
X78161542Y-106528492D01*
X78161547Y-106528481D01*
X78214855Y-106367606D01*
X78224999Y-106268322D01*
X78225000Y-106268309D01*
X78225000Y-106220000D01*
X77525000Y-106220000D01*
X77525000Y-106944999D01*
X77001683Y-106944999D01*
X77025000Y-106944998D01*
X77025000Y-106094000D01*
X77044685Y-106026961D01*
X77097489Y-105981206D01*
X77149000Y-105970000D01*
X77275000Y-105970000D01*
X77275000Y-105844000D01*
X77294685Y-105776961D01*
X77347489Y-105731206D01*
X77399000Y-105720000D01*
X78224999Y-105720000D01*
X78224999Y-105671692D01*
X78224998Y-105671677D01*
X78214855Y-105572392D01*
X78161547Y-105411518D01*
X78161542Y-105411507D01*
X78104851Y-105319597D01*
X78086410Y-105252205D01*
X78107332Y-105185541D01*
X78160974Y-105140771D01*
X78210389Y-105130500D01*
X84738280Y-105130500D01*
X84805319Y-105150185D01*
X84851074Y-105202989D01*
X84858055Y-105222406D01*
X84886246Y-105327618D01*
X84886291Y-105327783D01*
X84886293Y-105327790D01*
X84971591Y-105533717D01*
X84971595Y-105533726D01*
X85083052Y-105726774D01*
X85083057Y-105726780D01*
X85083058Y-105726782D01*
X85218751Y-105903622D01*
X85218757Y-105903629D01*
X85376370Y-106061242D01*
X85376376Y-106061247D01*
X85553226Y-106196948D01*
X85746274Y-106308405D01*
X85876140Y-106362197D01*
X85951074Y-106393236D01*
X85952219Y-106393710D01*
X86167537Y-106451404D01*
X86388543Y-106480500D01*
X86388550Y-106480500D01*
X86611450Y-106480500D01*
X86611457Y-106480500D01*
X86832463Y-106451404D01*
X87047781Y-106393710D01*
X87253726Y-106308405D01*
X87446774Y-106196948D01*
X87623624Y-106061247D01*
X87781247Y-105903624D01*
X87916948Y-105726774D01*
X88028405Y-105533726D01*
X88113710Y-105327781D01*
X88171404Y-105112463D01*
X88200500Y-104891457D01*
X88200500Y-104668543D01*
X88171404Y-104447537D01*
X88113710Y-104232219D01*
X88028405Y-104026274D01*
X87916948Y-103833226D01*
X87791341Y-103669531D01*
X87781248Y-103656377D01*
X87781242Y-103656370D01*
X87623629Y-103498757D01*
X87623622Y-103498751D01*
X87446782Y-103363058D01*
X87446780Y-103363057D01*
X87446774Y-103363052D01*
X87253726Y-103251595D01*
X87253722Y-103251593D01*
X87047790Y-103166293D01*
X87047783Y-103166291D01*
X87047781Y-103166290D01*
X86832463Y-103108596D01*
X86832457Y-103108595D01*
X86832452Y-103108594D01*
X86611466Y-103079501D01*
X86611463Y-103079500D01*
X86611457Y-103079500D01*
X86388543Y-103079500D01*
X86388537Y-103079500D01*
X86388533Y-103079501D01*
X86167547Y-103108594D01*
X86167540Y-103108595D01*
X86167537Y-103108596D01*
X85952219Y-103166290D01*
X85952209Y-103166293D01*
X85746277Y-103251593D01*
X85746273Y-103251595D01*
X85553226Y-103363052D01*
X85553217Y-103363058D01*
X85376377Y-103498751D01*
X85376370Y-103498757D01*
X85218757Y-103656370D01*
X85218751Y-103656377D01*
X85083058Y-103833217D01*
X85083048Y-103833232D01*
X85063264Y-103867500D01*
X85012697Y-103915716D01*
X84955877Y-103929500D01*
X78234851Y-103929500D01*
X78167812Y-103909815D01*
X78128734Y-103869650D01*
X78106885Y-103833507D01*
X78080472Y-103789815D01*
X78080470Y-103789813D01*
X78080469Y-103789811D01*
X77960188Y-103669530D01*
X77938430Y-103656377D01*
X77814606Y-103581522D01*
X77652196Y-103530914D01*
X77652194Y-103530913D01*
X77652192Y-103530913D01*
X77602778Y-103526423D01*
X77581616Y-103524500D01*
X77068384Y-103524500D01*
X77049145Y-103526248D01*
X76997807Y-103530913D01*
X76835393Y-103581522D01*
X76689811Y-103669530D01*
X76689810Y-103669531D01*
X76587681Y-103771661D01*
X76526358Y-103805146D01*
X76456666Y-103800162D01*
X76412319Y-103771661D01*
X76310188Y-103669530D01*
X76288430Y-103656377D01*
X76164606Y-103581522D01*
X76002196Y-103530914D01*
X76002194Y-103530913D01*
X76002192Y-103530913D01*
X75952778Y-103526423D01*
X75931616Y-103524500D01*
X75418384Y-103524500D01*
X75399145Y-103526248D01*
X75347807Y-103530913D01*
X75185393Y-103581522D01*
X75039811Y-103669530D01*
X74919530Y-103789811D01*
X74871266Y-103869650D01*
X74831522Y-103935394D01*
X74782600Y-104092390D01*
X74743864Y-104150538D01*
X74679839Y-104178512D01*
X74664216Y-104179500D01*
X68174727Y-104179500D01*
X68107688Y-104159815D01*
X68061933Y-104107011D01*
X68060166Y-104102952D01*
X68028409Y-104026282D01*
X68028404Y-104026273D01*
X68019438Y-104010743D01*
X67916948Y-103833226D01*
X67791341Y-103669531D01*
X67781248Y-103656377D01*
X67781242Y-103656370D01*
X67623629Y-103498757D01*
X67623622Y-103498751D01*
X67446782Y-103363058D01*
X67446780Y-103363057D01*
X67446774Y-103363052D01*
X67253726Y-103251595D01*
X67253722Y-103251593D01*
X67047790Y-103166293D01*
X67047783Y-103166291D01*
X67047781Y-103166290D01*
X66832463Y-103108596D01*
X66832457Y-103108595D01*
X66832452Y-103108594D01*
X66611466Y-103079501D01*
X66611463Y-103079500D01*
X66611457Y-103079500D01*
X66388543Y-103079500D01*
X66388537Y-103079500D01*
X66388533Y-103079501D01*
X66167547Y-103108594D01*
X66167540Y-103108595D01*
X66167537Y-103108596D01*
X65952219Y-103166290D01*
X65952209Y-103166293D01*
X65746277Y-103251593D01*
X65746273Y-103251595D01*
X65553226Y-103363052D01*
X65553217Y-103363058D01*
X65376377Y-103498751D01*
X65376370Y-103498757D01*
X65218757Y-103656370D01*
X65218751Y-103656377D01*
X65083058Y-103833217D01*
X65083052Y-103833226D01*
X64971595Y-104026273D01*
X64971593Y-104026277D01*
X64886293Y-104232209D01*
X64886290Y-104232219D01*
X64828597Y-104447534D01*
X64828594Y-104447547D01*
X64799501Y-104668533D01*
X64799500Y-104668549D01*
X60500500Y-104668549D01*
X60500500Y-99588549D01*
X64799500Y-99588549D01*
X64799500Y-99811450D01*
X64799501Y-99811466D01*
X64828594Y-100032452D01*
X64828595Y-100032457D01*
X64828596Y-100032463D01*
X64886290Y-100247780D01*
X64886293Y-100247790D01*
X64971591Y-100453717D01*
X64971595Y-100453726D01*
X65083052Y-100646774D01*
X65083057Y-100646780D01*
X65083058Y-100646782D01*
X65218751Y-100823622D01*
X65218757Y-100823629D01*
X65376370Y-100981242D01*
X65376377Y-100981248D01*
X65439097Y-101029374D01*
X65553226Y-101116948D01*
X65746274Y-101228405D01*
X65798409Y-101250000D01*
X65951074Y-101313236D01*
X65952219Y-101313710D01*
X66167537Y-101371404D01*
X66388543Y-101400500D01*
X66388550Y-101400500D01*
X66611450Y-101400500D01*
X66611457Y-101400500D01*
X66832463Y-101371404D01*
X67047781Y-101313710D01*
X67253726Y-101228405D01*
X67446774Y-101116948D01*
X67623624Y-100981247D01*
X67781247Y-100823624D01*
X67916948Y-100646774D01*
X68028405Y-100453726D01*
X68028491Y-100453520D01*
X68060166Y-100377048D01*
X68104006Y-100322644D01*
X68170300Y-100300579D01*
X68174727Y-100300500D01*
X74712935Y-100300500D01*
X74779974Y-100320185D01*
X74825729Y-100372989D01*
X74835673Y-100442147D01*
X74830642Y-100463497D01*
X74818547Y-100500000D01*
X74784651Y-100602290D01*
X74774500Y-100701647D01*
X74774500Y-101298337D01*
X74774501Y-101298355D01*
X74784650Y-101397707D01*
X74784651Y-101397710D01*
X74837996Y-101558694D01*
X74838001Y-101558705D01*
X74927029Y-101703040D01*
X74927032Y-101703044D01*
X75046955Y-101822967D01*
X75046959Y-101822970D01*
X75191294Y-101911998D01*
X75191297Y-101911999D01*
X75191303Y-101912003D01*
X75352292Y-101965349D01*
X75451655Y-101975500D01*
X75998344Y-101975499D01*
X75998352Y-101975498D01*
X75998355Y-101975498D01*
X76052760Y-101969940D01*
X76097708Y-101965349D01*
X76258697Y-101912003D01*
X76403044Y-101822968D01*
X76412668Y-101813343D01*
X76473987Y-101779856D01*
X76543679Y-101784835D01*
X76588034Y-101813339D01*
X76597267Y-101822572D01*
X76597271Y-101822575D01*
X76741507Y-101911542D01*
X76741518Y-101911547D01*
X76902393Y-101964855D01*
X77001683Y-101974999D01*
X77525000Y-101974999D01*
X77548308Y-101974999D01*
X77548322Y-101974998D01*
X77647607Y-101964855D01*
X77808481Y-101911547D01*
X77808492Y-101911542D01*
X77952728Y-101822575D01*
X77952732Y-101822572D01*
X78072572Y-101702732D01*
X78072575Y-101702728D01*
X78161542Y-101558492D01*
X78161547Y-101558481D01*
X78214855Y-101397606D01*
X78224999Y-101298322D01*
X78225000Y-101298309D01*
X78225000Y-101250000D01*
X77525000Y-101250000D01*
X77525000Y-101974999D01*
X77001683Y-101974999D01*
X77025000Y-101974998D01*
X77025000Y-101124000D01*
X77044685Y-101056961D01*
X77097489Y-101011206D01*
X77149000Y-101000000D01*
X77275000Y-101000000D01*
X77275000Y-100874000D01*
X77294685Y-100806961D01*
X77347489Y-100761206D01*
X77399000Y-100750000D01*
X78224999Y-100750000D01*
X78224999Y-100701692D01*
X78224998Y-100701677D01*
X78214855Y-100602392D01*
X78161547Y-100441518D01*
X78161542Y-100441507D01*
X78089727Y-100325078D01*
X78085760Y-100310583D01*
X78077291Y-100298167D01*
X78076725Y-100277564D01*
X78071286Y-100257686D01*
X78075755Y-100242210D01*
X78075374Y-100228324D01*
X78089145Y-100195837D01*
X78110600Y-100160346D01*
X78162128Y-100113161D01*
X78216715Y-100100500D01*
X84751677Y-100100500D01*
X84818716Y-100120185D01*
X84864471Y-100172989D01*
X84871451Y-100192405D01*
X84886289Y-100247780D01*
X84971591Y-100453717D01*
X84971595Y-100453726D01*
X85083052Y-100646774D01*
X85083057Y-100646780D01*
X85083058Y-100646782D01*
X85218751Y-100823622D01*
X85218757Y-100823629D01*
X85376370Y-100981242D01*
X85376377Y-100981248D01*
X85439097Y-101029374D01*
X85553226Y-101116948D01*
X85746274Y-101228405D01*
X85798409Y-101250000D01*
X85951074Y-101313236D01*
X85952219Y-101313710D01*
X86167537Y-101371404D01*
X86388543Y-101400500D01*
X86388550Y-101400500D01*
X86611450Y-101400500D01*
X86611457Y-101400500D01*
X86832463Y-101371404D01*
X87047781Y-101313710D01*
X87253726Y-101228405D01*
X87446774Y-101116948D01*
X87623624Y-100981247D01*
X87781247Y-100823624D01*
X87916948Y-100646774D01*
X88028405Y-100453726D01*
X88113710Y-100247781D01*
X88171404Y-100032463D01*
X88200500Y-99811457D01*
X88200500Y-99588543D01*
X88171404Y-99367537D01*
X88113710Y-99152219D01*
X88028405Y-98946274D01*
X87916948Y-98753226D01*
X87781247Y-98576376D01*
X87781242Y-98576370D01*
X87623629Y-98418757D01*
X87623622Y-98418751D01*
X87446782Y-98283058D01*
X87446780Y-98283057D01*
X87446774Y-98283052D01*
X87253726Y-98171595D01*
X87253722Y-98171593D01*
X87047790Y-98086293D01*
X87047783Y-98086291D01*
X87047781Y-98086290D01*
X86832463Y-98028596D01*
X86832457Y-98028595D01*
X86832452Y-98028594D01*
X86611466Y-97999501D01*
X86611463Y-97999500D01*
X86611457Y-97999500D01*
X86388543Y-97999500D01*
X86388537Y-97999500D01*
X86388533Y-97999501D01*
X86167547Y-98028594D01*
X86167540Y-98028595D01*
X86167537Y-98028596D01*
X85952219Y-98086290D01*
X85952209Y-98086293D01*
X85746277Y-98171593D01*
X85746273Y-98171595D01*
X85553226Y-98283052D01*
X85553217Y-98283058D01*
X85376377Y-98418751D01*
X85376370Y-98418757D01*
X85218757Y-98576370D01*
X85218751Y-98576377D01*
X85083058Y-98753217D01*
X85083047Y-98753233D01*
X85034396Y-98837500D01*
X84983829Y-98885716D01*
X84927009Y-98899500D01*
X78216715Y-98899500D01*
X78149676Y-98879815D01*
X78110598Y-98839650D01*
X78080472Y-98789815D01*
X78080470Y-98789813D01*
X78080469Y-98789811D01*
X77960188Y-98669530D01*
X77814606Y-98581522D01*
X77798095Y-98576377D01*
X77652196Y-98530914D01*
X77652194Y-98530913D01*
X77652192Y-98530913D01*
X77602778Y-98526423D01*
X77581616Y-98524500D01*
X77068384Y-98524500D01*
X77049145Y-98526248D01*
X76997807Y-98530913D01*
X76835393Y-98581522D01*
X76689811Y-98669530D01*
X76689810Y-98669531D01*
X76587681Y-98771661D01*
X76526358Y-98805146D01*
X76456666Y-98800162D01*
X76412319Y-98771661D01*
X76310188Y-98669530D01*
X76164606Y-98581522D01*
X76148095Y-98576377D01*
X76002196Y-98530914D01*
X76002194Y-98530913D01*
X76002192Y-98530913D01*
X75952778Y-98526423D01*
X75931616Y-98524500D01*
X75418384Y-98524500D01*
X75399145Y-98526248D01*
X75347807Y-98530913D01*
X75185393Y-98581522D01*
X75039811Y-98669530D01*
X74919530Y-98789811D01*
X74831522Y-98935393D01*
X74807530Y-99012390D01*
X74768792Y-99070538D01*
X74704767Y-99098512D01*
X74689144Y-99099500D01*
X68174727Y-99099500D01*
X68107688Y-99079815D01*
X68061933Y-99027011D01*
X68060166Y-99022952D01*
X68028409Y-98946282D01*
X68028404Y-98946273D01*
X68022123Y-98935394D01*
X67916948Y-98753226D01*
X67781247Y-98576376D01*
X67781242Y-98576370D01*
X67623629Y-98418757D01*
X67623622Y-98418751D01*
X67446782Y-98283058D01*
X67446780Y-98283057D01*
X67446774Y-98283052D01*
X67253726Y-98171595D01*
X67253722Y-98171593D01*
X67047790Y-98086293D01*
X67047783Y-98086291D01*
X67047781Y-98086290D01*
X66832463Y-98028596D01*
X66832457Y-98028595D01*
X66832452Y-98028594D01*
X66611466Y-97999501D01*
X66611463Y-97999500D01*
X66611457Y-97999500D01*
X66388543Y-97999500D01*
X66388537Y-97999500D01*
X66388533Y-97999501D01*
X66167547Y-98028594D01*
X66167540Y-98028595D01*
X66167537Y-98028596D01*
X65952219Y-98086290D01*
X65952209Y-98086293D01*
X65746277Y-98171593D01*
X65746273Y-98171595D01*
X65553226Y-98283052D01*
X65553217Y-98283058D01*
X65376377Y-98418751D01*
X65376370Y-98418757D01*
X65218757Y-98576370D01*
X65218751Y-98576377D01*
X65083058Y-98753217D01*
X65083052Y-98753226D01*
X64971595Y-98946273D01*
X64971593Y-98946277D01*
X64886293Y-99152209D01*
X64886290Y-99152219D01*
X64828597Y-99367534D01*
X64828594Y-99367547D01*
X64799501Y-99588533D01*
X64799500Y-99588549D01*
X60500500Y-99588549D01*
X60500500Y-94508549D01*
X64799500Y-94508549D01*
X64799500Y-94731450D01*
X64799501Y-94731466D01*
X64828594Y-94952452D01*
X64828595Y-94952457D01*
X64828596Y-94952463D01*
X64886290Y-95167780D01*
X64886293Y-95167790D01*
X64971591Y-95373717D01*
X64971595Y-95373726D01*
X65083052Y-95566774D01*
X65083057Y-95566780D01*
X65083058Y-95566782D01*
X65218751Y-95743622D01*
X65218757Y-95743629D01*
X65376370Y-95901242D01*
X65376376Y-95901247D01*
X65553226Y-96036948D01*
X65746274Y-96148405D01*
X65876140Y-96202197D01*
X65951074Y-96233236D01*
X65952219Y-96233710D01*
X66167537Y-96291404D01*
X66388543Y-96320500D01*
X66388550Y-96320500D01*
X66611450Y-96320500D01*
X66611457Y-96320500D01*
X66832463Y-96291404D01*
X67047781Y-96233710D01*
X67253726Y-96148405D01*
X67446774Y-96036948D01*
X67623624Y-95901247D01*
X67781247Y-95743624D01*
X67916948Y-95566774D01*
X68028405Y-95373726D01*
X68028491Y-95373520D01*
X68060166Y-95297048D01*
X68104006Y-95242644D01*
X68170300Y-95220579D01*
X68174727Y-95220500D01*
X74752015Y-95220500D01*
X74819054Y-95240185D01*
X74864809Y-95292989D01*
X74874753Y-95362147D01*
X74857554Y-95409597D01*
X74837998Y-95441300D01*
X74837996Y-95441305D01*
X74784651Y-95602290D01*
X74774500Y-95701647D01*
X74774500Y-96298337D01*
X74774501Y-96298355D01*
X74784650Y-96397707D01*
X74784651Y-96397710D01*
X74837996Y-96558694D01*
X74838001Y-96558705D01*
X74927029Y-96703040D01*
X74927032Y-96703044D01*
X75046955Y-96822967D01*
X75046959Y-96822970D01*
X75191294Y-96911998D01*
X75191297Y-96911999D01*
X75191303Y-96912003D01*
X75352292Y-96965349D01*
X75451655Y-96975500D01*
X75998344Y-96975499D01*
X75998352Y-96975498D01*
X75998355Y-96975498D01*
X76052760Y-96969940D01*
X76097708Y-96965349D01*
X76258697Y-96912003D01*
X76403044Y-96822968D01*
X76412668Y-96813343D01*
X76473987Y-96779856D01*
X76543679Y-96784835D01*
X76588034Y-96813339D01*
X76597267Y-96822572D01*
X76597271Y-96822575D01*
X76741507Y-96911542D01*
X76741518Y-96911547D01*
X76902393Y-96964855D01*
X77001683Y-96974999D01*
X77525000Y-96974999D01*
X77548308Y-96974999D01*
X77548322Y-96974998D01*
X77647607Y-96964855D01*
X77808481Y-96911547D01*
X77808492Y-96911542D01*
X77952728Y-96822575D01*
X77952732Y-96822572D01*
X78072572Y-96702732D01*
X78072575Y-96702728D01*
X78161542Y-96558492D01*
X78161547Y-96558481D01*
X78214855Y-96397606D01*
X78224999Y-96298322D01*
X78225000Y-96298309D01*
X78225000Y-96250000D01*
X77525000Y-96250000D01*
X77525000Y-96974999D01*
X77001683Y-96974999D01*
X77025000Y-96974998D01*
X77025000Y-96124000D01*
X77044685Y-96056961D01*
X77097489Y-96011206D01*
X77149000Y-96000000D01*
X77275000Y-96000000D01*
X77275000Y-95874000D01*
X77294685Y-95806961D01*
X77347489Y-95761206D01*
X77399000Y-95750000D01*
X78224999Y-95750000D01*
X78224999Y-95701692D01*
X78224998Y-95701677D01*
X78214855Y-95602392D01*
X78161547Y-95441518D01*
X78161542Y-95441507D01*
X78089727Y-95325078D01*
X78085760Y-95310583D01*
X78077291Y-95298167D01*
X78076725Y-95277564D01*
X78071286Y-95257686D01*
X78075755Y-95242210D01*
X78075374Y-95228324D01*
X78089145Y-95195837D01*
X78110600Y-95160346D01*
X78162128Y-95113161D01*
X78216715Y-95100500D01*
X84775567Y-95100500D01*
X84842606Y-95120185D01*
X84888361Y-95172989D01*
X84890128Y-95177047D01*
X84971509Y-95373520D01*
X84971595Y-95373726D01*
X85083052Y-95566774D01*
X85083057Y-95566780D01*
X85083058Y-95566782D01*
X85218751Y-95743622D01*
X85218757Y-95743629D01*
X85376370Y-95901242D01*
X85376376Y-95901247D01*
X85553226Y-96036948D01*
X85746274Y-96148405D01*
X85876140Y-96202197D01*
X85951074Y-96233236D01*
X85952219Y-96233710D01*
X86167537Y-96291404D01*
X86388543Y-96320500D01*
X86388550Y-96320500D01*
X86611450Y-96320500D01*
X86611457Y-96320500D01*
X86832463Y-96291404D01*
X87047781Y-96233710D01*
X87253726Y-96148405D01*
X87446774Y-96036948D01*
X87623624Y-95901247D01*
X87781247Y-95743624D01*
X87916948Y-95566774D01*
X88028405Y-95373726D01*
X88113710Y-95167781D01*
X88171404Y-94952463D01*
X88200500Y-94731457D01*
X88200500Y-94508543D01*
X88171404Y-94287537D01*
X88113710Y-94072219D01*
X88091463Y-94018511D01*
X88059504Y-93941353D01*
X88028405Y-93866274D01*
X87916948Y-93673226D01*
X87866588Y-93607595D01*
X87781248Y-93496377D01*
X87781242Y-93496370D01*
X87623629Y-93338757D01*
X87623622Y-93338751D01*
X87446782Y-93203058D01*
X87446780Y-93203057D01*
X87446774Y-93203052D01*
X87253726Y-93091595D01*
X87253722Y-93091593D01*
X87047790Y-93006293D01*
X87047783Y-93006291D01*
X87047781Y-93006290D01*
X86832463Y-92948596D01*
X86832457Y-92948595D01*
X86832452Y-92948594D01*
X86611466Y-92919501D01*
X86611463Y-92919500D01*
X86611457Y-92919500D01*
X86388543Y-92919500D01*
X86388537Y-92919500D01*
X86388533Y-92919501D01*
X86167547Y-92948594D01*
X86167540Y-92948595D01*
X86167537Y-92948596D01*
X85952219Y-93006290D01*
X85952209Y-93006293D01*
X85746277Y-93091593D01*
X85746273Y-93091595D01*
X85553226Y-93203052D01*
X85553217Y-93203058D01*
X85376377Y-93338751D01*
X85376370Y-93338757D01*
X85218757Y-93496370D01*
X85218751Y-93496377D01*
X85083058Y-93673217D01*
X85083052Y-93673226D01*
X84988207Y-93837501D01*
X84937639Y-93885716D01*
X84880820Y-93899500D01*
X78216715Y-93899500D01*
X78149676Y-93879815D01*
X78110598Y-93839650D01*
X78098719Y-93820000D01*
X78080472Y-93789815D01*
X78080470Y-93789813D01*
X78080469Y-93789811D01*
X77960188Y-93669530D01*
X77814606Y-93581522D01*
X77652196Y-93530914D01*
X77652194Y-93530913D01*
X77652192Y-93530913D01*
X77602778Y-93526423D01*
X77581616Y-93524500D01*
X77068384Y-93524500D01*
X77049145Y-93526248D01*
X76997807Y-93530913D01*
X76835393Y-93581522D01*
X76689811Y-93669530D01*
X76689810Y-93669531D01*
X76587681Y-93771661D01*
X76526358Y-93805146D01*
X76456666Y-93800162D01*
X76412319Y-93771661D01*
X76310188Y-93669530D01*
X76164606Y-93581522D01*
X76002196Y-93530914D01*
X76002194Y-93530913D01*
X76002192Y-93530913D01*
X75952778Y-93526423D01*
X75931616Y-93524500D01*
X75418384Y-93524500D01*
X75399145Y-93526248D01*
X75347807Y-93530913D01*
X75185393Y-93581522D01*
X75039811Y-93669530D01*
X74919530Y-93789811D01*
X74831520Y-93935397D01*
X74828443Y-93942235D01*
X74826484Y-93941353D01*
X74793728Y-93990532D01*
X74729705Y-94018511D01*
X74714073Y-94019500D01*
X68174727Y-94019500D01*
X68107688Y-93999815D01*
X68061933Y-93947011D01*
X68060166Y-93942952D01*
X68028409Y-93866282D01*
X68028404Y-93866273D01*
X68019438Y-93850743D01*
X67916948Y-93673226D01*
X67866588Y-93607595D01*
X67781248Y-93496377D01*
X67781242Y-93496370D01*
X67623629Y-93338757D01*
X67623622Y-93338751D01*
X67446782Y-93203058D01*
X67446780Y-93203057D01*
X67446774Y-93203052D01*
X67253726Y-93091595D01*
X67253722Y-93091593D01*
X67047790Y-93006293D01*
X67047783Y-93006291D01*
X67047781Y-93006290D01*
X66832463Y-92948596D01*
X66832457Y-92948595D01*
X66832452Y-92948594D01*
X66611466Y-92919501D01*
X66611463Y-92919500D01*
X66611457Y-92919500D01*
X66388543Y-92919500D01*
X66388537Y-92919500D01*
X66388533Y-92919501D01*
X66167547Y-92948594D01*
X66167540Y-92948595D01*
X66167537Y-92948596D01*
X65952219Y-93006290D01*
X65952209Y-93006293D01*
X65746277Y-93091593D01*
X65746273Y-93091595D01*
X65553226Y-93203052D01*
X65553217Y-93203058D01*
X65376377Y-93338751D01*
X65376370Y-93338757D01*
X65218757Y-93496370D01*
X65218751Y-93496377D01*
X65083058Y-93673217D01*
X65083052Y-93673226D01*
X64971595Y-93866273D01*
X64971593Y-93866277D01*
X64886293Y-94072209D01*
X64886290Y-94072219D01*
X64828597Y-94287534D01*
X64828594Y-94287547D01*
X64799501Y-94508533D01*
X64799500Y-94508549D01*
X60500500Y-94508549D01*
X60500500Y-89428549D01*
X64799500Y-89428549D01*
X64799500Y-89651450D01*
X64799501Y-89651466D01*
X64828594Y-89872452D01*
X64828595Y-89872457D01*
X64828596Y-89872463D01*
X64886290Y-90087780D01*
X64886293Y-90087790D01*
X64971591Y-90293716D01*
X64971595Y-90293726D01*
X65083052Y-90486774D01*
X65083057Y-90486780D01*
X65083058Y-90486782D01*
X65218751Y-90663622D01*
X65218757Y-90663629D01*
X65376370Y-90821242D01*
X65376376Y-90821247D01*
X65553226Y-90956948D01*
X65746274Y-91068405D01*
X65876140Y-91122197D01*
X65951074Y-91153236D01*
X65952219Y-91153710D01*
X66167537Y-91211404D01*
X66388543Y-91240500D01*
X66388550Y-91240500D01*
X66611450Y-91240500D01*
X66611457Y-91240500D01*
X66832463Y-91211404D01*
X67047781Y-91153710D01*
X67253726Y-91068405D01*
X67446774Y-90956948D01*
X67623624Y-90821247D01*
X67781247Y-90663624D01*
X67916948Y-90486774D01*
X68028405Y-90293726D01*
X68028491Y-90293520D01*
X68060166Y-90217048D01*
X68104006Y-90162644D01*
X68170300Y-90140579D01*
X68174727Y-90140500D01*
X74801360Y-90140500D01*
X74868399Y-90160185D01*
X74914154Y-90212989D01*
X74924098Y-90282147D01*
X74906898Y-90329597D01*
X74838001Y-90441294D01*
X74837996Y-90441305D01*
X74784651Y-90602290D01*
X74774500Y-90701647D01*
X74774500Y-91298337D01*
X74774501Y-91298355D01*
X74784650Y-91397707D01*
X74784651Y-91397710D01*
X74837996Y-91558694D01*
X74838001Y-91558705D01*
X74927029Y-91703040D01*
X74927032Y-91703044D01*
X75046955Y-91822967D01*
X75046959Y-91822970D01*
X75191294Y-91911998D01*
X75191297Y-91911999D01*
X75191303Y-91912003D01*
X75352292Y-91965349D01*
X75451655Y-91975500D01*
X75998344Y-91975499D01*
X75998352Y-91975498D01*
X75998355Y-91975498D01*
X76052760Y-91969940D01*
X76097708Y-91965349D01*
X76258697Y-91912003D01*
X76403044Y-91822968D01*
X76412668Y-91813343D01*
X76473987Y-91779856D01*
X76543679Y-91784835D01*
X76588034Y-91813339D01*
X76597267Y-91822572D01*
X76597271Y-91822575D01*
X76741507Y-91911542D01*
X76741518Y-91911547D01*
X76902393Y-91964855D01*
X77001683Y-91974999D01*
X77525000Y-91974999D01*
X77548308Y-91974999D01*
X77548322Y-91974998D01*
X77647607Y-91964855D01*
X77808481Y-91911547D01*
X77808492Y-91911542D01*
X77952728Y-91822575D01*
X77952732Y-91822572D01*
X78072572Y-91702732D01*
X78072575Y-91702728D01*
X78161542Y-91558492D01*
X78161547Y-91558481D01*
X78214855Y-91397606D01*
X78224999Y-91298322D01*
X78225000Y-91298309D01*
X78225000Y-91250000D01*
X77525000Y-91250000D01*
X77525000Y-91974999D01*
X77001683Y-91974999D01*
X77025000Y-91974998D01*
X77025000Y-91124000D01*
X77044685Y-91056961D01*
X77097489Y-91011206D01*
X77149000Y-91000000D01*
X77275000Y-91000000D01*
X77275000Y-90874000D01*
X77294685Y-90806961D01*
X77347489Y-90761206D01*
X77399000Y-90750000D01*
X78224999Y-90750000D01*
X78224999Y-90701692D01*
X78224998Y-90701677D01*
X78214855Y-90602392D01*
X78161547Y-90441518D01*
X78161542Y-90441507D01*
X78089727Y-90325078D01*
X78085760Y-90310583D01*
X78077291Y-90298167D01*
X78076725Y-90277564D01*
X78071286Y-90257686D01*
X78075755Y-90242210D01*
X78075374Y-90228324D01*
X78089145Y-90195837D01*
X78110600Y-90160346D01*
X78162128Y-90113161D01*
X78216715Y-90100500D01*
X84808704Y-90100500D01*
X84875743Y-90120185D01*
X84921498Y-90172989D01*
X84923265Y-90177048D01*
X84971590Y-90293716D01*
X84971591Y-90293717D01*
X84971595Y-90293726D01*
X85083052Y-90486774D01*
X85083057Y-90486780D01*
X85083058Y-90486782D01*
X85218751Y-90663622D01*
X85218757Y-90663629D01*
X85376370Y-90821242D01*
X85376376Y-90821247D01*
X85553226Y-90956948D01*
X85746274Y-91068405D01*
X85876140Y-91122197D01*
X85951074Y-91153236D01*
X85952219Y-91153710D01*
X86167537Y-91211404D01*
X86388543Y-91240500D01*
X86388550Y-91240500D01*
X86611450Y-91240500D01*
X86611457Y-91240500D01*
X86832463Y-91211404D01*
X87047781Y-91153710D01*
X87253726Y-91068405D01*
X87446774Y-90956948D01*
X87623624Y-90821247D01*
X87781247Y-90663624D01*
X87916948Y-90486774D01*
X88028405Y-90293726D01*
X88113710Y-90087781D01*
X88171404Y-89872463D01*
X88200500Y-89651457D01*
X88200500Y-89428543D01*
X88171404Y-89207537D01*
X88113710Y-88992219D01*
X88028405Y-88786274D01*
X87916948Y-88593226D01*
X87781247Y-88416376D01*
X87781242Y-88416370D01*
X87623629Y-88258757D01*
X87623622Y-88258751D01*
X87446782Y-88123058D01*
X87446780Y-88123057D01*
X87446774Y-88123052D01*
X87253726Y-88011595D01*
X87253722Y-88011593D01*
X87047790Y-87926293D01*
X87047783Y-87926291D01*
X87047781Y-87926290D01*
X86832463Y-87868596D01*
X86832457Y-87868595D01*
X86832452Y-87868594D01*
X86611466Y-87839501D01*
X86611463Y-87839500D01*
X86611457Y-87839500D01*
X86388543Y-87839500D01*
X86388537Y-87839500D01*
X86388533Y-87839501D01*
X86167547Y-87868594D01*
X86167540Y-87868595D01*
X86167537Y-87868596D01*
X85952219Y-87926290D01*
X85952209Y-87926293D01*
X85746277Y-88011593D01*
X85746273Y-88011595D01*
X85553226Y-88123052D01*
X85553217Y-88123058D01*
X85376377Y-88258751D01*
X85376370Y-88258757D01*
X85218757Y-88416370D01*
X85218751Y-88416377D01*
X85083058Y-88593217D01*
X85083052Y-88593226D01*
X84971595Y-88786273D01*
X84971590Y-88786282D01*
X84956402Y-88822952D01*
X84912562Y-88877356D01*
X84846267Y-88899421D01*
X84841841Y-88899500D01*
X78216715Y-88899500D01*
X78149676Y-88879815D01*
X78110598Y-88839650D01*
X78080472Y-88789815D01*
X78080470Y-88789813D01*
X78080469Y-88789811D01*
X77960188Y-88669530D01*
X77834431Y-88593507D01*
X77814606Y-88581522D01*
X77652196Y-88530914D01*
X77652194Y-88530913D01*
X77652192Y-88530913D01*
X77602778Y-88526423D01*
X77581616Y-88524500D01*
X77068384Y-88524500D01*
X77049145Y-88526248D01*
X76997807Y-88530913D01*
X76835393Y-88581522D01*
X76689811Y-88669530D01*
X76689810Y-88669531D01*
X76587681Y-88771661D01*
X76526358Y-88805146D01*
X76456666Y-88800162D01*
X76412319Y-88771661D01*
X76310188Y-88669530D01*
X76184431Y-88593507D01*
X76164606Y-88581522D01*
X76002196Y-88530914D01*
X76002194Y-88530913D01*
X76002192Y-88530913D01*
X75952778Y-88526423D01*
X75931616Y-88524500D01*
X75418384Y-88524500D01*
X75399145Y-88526248D01*
X75347807Y-88530913D01*
X75185393Y-88581522D01*
X75039811Y-88669530D01*
X74919530Y-88789811D01*
X74919528Y-88789815D01*
X74866608Y-88877356D01*
X74865221Y-88879650D01*
X74813693Y-88926838D01*
X74759104Y-88939500D01*
X68174727Y-88939500D01*
X68107688Y-88919815D01*
X68061933Y-88867011D01*
X68060166Y-88862952D01*
X68028409Y-88786282D01*
X68028404Y-88786273D01*
X68019438Y-88770743D01*
X67916948Y-88593226D01*
X67781247Y-88416376D01*
X67781242Y-88416370D01*
X67623629Y-88258757D01*
X67623622Y-88258751D01*
X67446782Y-88123058D01*
X67446780Y-88123057D01*
X67446774Y-88123052D01*
X67253726Y-88011595D01*
X67253722Y-88011593D01*
X67047790Y-87926293D01*
X67047783Y-87926291D01*
X67047781Y-87926290D01*
X66832463Y-87868596D01*
X66832457Y-87868595D01*
X66832452Y-87868594D01*
X66611466Y-87839501D01*
X66611463Y-87839500D01*
X66611457Y-87839500D01*
X66388543Y-87839500D01*
X66388537Y-87839500D01*
X66388533Y-87839501D01*
X66167547Y-87868594D01*
X66167540Y-87868595D01*
X66167537Y-87868596D01*
X65952219Y-87926290D01*
X65952209Y-87926293D01*
X65746277Y-88011593D01*
X65746273Y-88011595D01*
X65553226Y-88123052D01*
X65553217Y-88123058D01*
X65376377Y-88258751D01*
X65376370Y-88258757D01*
X65218757Y-88416370D01*
X65218751Y-88416377D01*
X65083058Y-88593217D01*
X65083052Y-88593226D01*
X64971595Y-88786273D01*
X64971593Y-88786277D01*
X64886293Y-88992209D01*
X64886290Y-88992219D01*
X64828597Y-89207534D01*
X64828594Y-89207547D01*
X64799501Y-89428533D01*
X64799500Y-89428549D01*
X60500500Y-89428549D01*
X60500500Y-84348549D01*
X64799500Y-84348549D01*
X64799500Y-84571450D01*
X64799501Y-84571466D01*
X64828594Y-84792452D01*
X64828595Y-84792457D01*
X64828596Y-84792463D01*
X64886290Y-85007780D01*
X64886293Y-85007790D01*
X64971591Y-85213717D01*
X64971595Y-85213726D01*
X65083052Y-85406774D01*
X65083057Y-85406780D01*
X65083058Y-85406782D01*
X65218751Y-85583622D01*
X65218757Y-85583629D01*
X65376370Y-85741242D01*
X65376377Y-85741248D01*
X65450787Y-85798344D01*
X65553226Y-85876948D01*
X65746274Y-85988405D01*
X65876140Y-86042197D01*
X65951074Y-86073236D01*
X65952219Y-86073710D01*
X66167537Y-86131404D01*
X66388543Y-86160500D01*
X66388550Y-86160500D01*
X66611450Y-86160500D01*
X66611457Y-86160500D01*
X66832463Y-86131404D01*
X67047781Y-86073710D01*
X67253726Y-85988405D01*
X67446774Y-85876948D01*
X67623624Y-85741247D01*
X67781247Y-85583624D01*
X67916948Y-85406774D01*
X68028405Y-85213726D01*
X68028491Y-85213520D01*
X68060166Y-85137048D01*
X68104006Y-85082644D01*
X68170300Y-85060579D01*
X68174727Y-85060500D01*
X74651607Y-85060500D01*
X74718646Y-85080185D01*
X74764401Y-85132989D01*
X74774965Y-85197104D01*
X74774500Y-85201650D01*
X74774500Y-85798337D01*
X74774501Y-85798355D01*
X74784650Y-85897707D01*
X74784651Y-85897710D01*
X74837996Y-86058694D01*
X74838001Y-86058705D01*
X74927029Y-86203040D01*
X74927032Y-86203044D01*
X75046955Y-86322967D01*
X75046959Y-86322970D01*
X75191294Y-86411998D01*
X75191297Y-86411999D01*
X75191303Y-86412003D01*
X75352292Y-86465349D01*
X75451655Y-86475500D01*
X75998344Y-86475499D01*
X75998352Y-86475498D01*
X75998355Y-86475498D01*
X76052760Y-86469940D01*
X76097708Y-86465349D01*
X76258697Y-86412003D01*
X76403044Y-86322968D01*
X76412668Y-86313343D01*
X76473987Y-86279856D01*
X76543679Y-86284835D01*
X76588034Y-86313339D01*
X76597267Y-86322572D01*
X76597271Y-86322575D01*
X76741507Y-86411542D01*
X76741518Y-86411547D01*
X76902393Y-86464855D01*
X77001683Y-86474999D01*
X77525000Y-86474999D01*
X77548308Y-86474999D01*
X77548322Y-86474998D01*
X77647607Y-86464855D01*
X77808481Y-86411547D01*
X77808492Y-86411542D01*
X77952728Y-86322575D01*
X77952732Y-86322572D01*
X78072572Y-86202732D01*
X78072575Y-86202728D01*
X78161542Y-86058492D01*
X78161547Y-86058481D01*
X78214855Y-85897606D01*
X78224999Y-85798322D01*
X78225000Y-85798309D01*
X78225000Y-85750000D01*
X77525000Y-85750000D01*
X77525000Y-86474999D01*
X77001683Y-86474999D01*
X77025000Y-86474998D01*
X77025000Y-85624000D01*
X77044685Y-85556961D01*
X77097489Y-85511206D01*
X77149000Y-85500000D01*
X77275000Y-85500000D01*
X77275000Y-85374000D01*
X77294685Y-85306961D01*
X77347489Y-85261206D01*
X77399000Y-85250000D01*
X78224999Y-85250000D01*
X78224999Y-85201692D01*
X78224998Y-85201677D01*
X78214855Y-85102392D01*
X78161547Y-84941518D01*
X78161542Y-84941507D01*
X78089727Y-84825078D01*
X78085760Y-84810583D01*
X78077291Y-84798167D01*
X78076725Y-84777564D01*
X78071286Y-84757686D01*
X78075755Y-84742210D01*
X78075374Y-84728324D01*
X78089145Y-84695837D01*
X78110600Y-84660346D01*
X78162128Y-84613161D01*
X78216715Y-84600500D01*
X84694579Y-84600500D01*
X84761618Y-84620185D01*
X84807373Y-84672989D01*
X84817518Y-84708315D01*
X84828594Y-84792452D01*
X84828595Y-84792457D01*
X84828596Y-84792463D01*
X84886290Y-85007780D01*
X84886293Y-85007790D01*
X84971591Y-85213717D01*
X84971595Y-85213726D01*
X85083052Y-85406774D01*
X85083057Y-85406780D01*
X85083058Y-85406782D01*
X85218751Y-85583622D01*
X85218757Y-85583629D01*
X85376370Y-85741242D01*
X85376377Y-85741248D01*
X85450787Y-85798344D01*
X85553226Y-85876948D01*
X85746274Y-85988405D01*
X85876140Y-86042197D01*
X85951074Y-86073236D01*
X85952219Y-86073710D01*
X86167537Y-86131404D01*
X86388543Y-86160500D01*
X86388550Y-86160500D01*
X86611450Y-86160500D01*
X86611457Y-86160500D01*
X86832463Y-86131404D01*
X87047781Y-86073710D01*
X87253726Y-85988405D01*
X87446774Y-85876948D01*
X87623624Y-85741247D01*
X87781247Y-85583624D01*
X87916948Y-85406774D01*
X88028405Y-85213726D01*
X88113710Y-85007781D01*
X88171404Y-84792463D01*
X88200500Y-84571457D01*
X88200500Y-84348543D01*
X88171404Y-84127537D01*
X88113710Y-83912219D01*
X88028405Y-83706274D01*
X87916948Y-83513226D01*
X87833771Y-83404827D01*
X87781248Y-83336377D01*
X87781242Y-83336370D01*
X87623629Y-83178757D01*
X87623622Y-83178751D01*
X87446782Y-83043058D01*
X87446780Y-83043057D01*
X87446774Y-83043052D01*
X87253726Y-82931595D01*
X87253722Y-82931593D01*
X87047790Y-82846293D01*
X87047783Y-82846291D01*
X87047781Y-82846290D01*
X86832463Y-82788596D01*
X86832457Y-82788595D01*
X86832452Y-82788594D01*
X86611466Y-82759501D01*
X86611463Y-82759500D01*
X86611457Y-82759500D01*
X86388543Y-82759500D01*
X86388537Y-82759500D01*
X86388533Y-82759501D01*
X86167547Y-82788594D01*
X86167540Y-82788595D01*
X86167537Y-82788596D01*
X85952219Y-82846290D01*
X85952209Y-82846293D01*
X85746277Y-82931593D01*
X85746273Y-82931595D01*
X85553226Y-83043052D01*
X85553217Y-83043058D01*
X85376377Y-83178751D01*
X85376370Y-83178757D01*
X85218757Y-83336370D01*
X85218752Y-83336377D01*
X85207542Y-83350986D01*
X85151117Y-83392189D01*
X85109167Y-83399500D01*
X78216715Y-83399500D01*
X78149676Y-83379815D01*
X78110598Y-83339650D01*
X78080472Y-83289815D01*
X78080470Y-83289813D01*
X78080469Y-83289811D01*
X77960188Y-83169530D01*
X77835316Y-83094042D01*
X77814606Y-83081522D01*
X77652196Y-83030914D01*
X77652194Y-83030913D01*
X77652192Y-83030913D01*
X77602778Y-83026423D01*
X77581616Y-83024500D01*
X77068384Y-83024500D01*
X77049145Y-83026248D01*
X76997807Y-83030913D01*
X76835393Y-83081522D01*
X76689811Y-83169530D01*
X76689810Y-83169531D01*
X76587681Y-83271661D01*
X76526358Y-83305146D01*
X76456666Y-83300162D01*
X76412319Y-83271661D01*
X76310188Y-83169530D01*
X76185316Y-83094042D01*
X76164606Y-83081522D01*
X76002196Y-83030914D01*
X76002194Y-83030913D01*
X76002192Y-83030913D01*
X75952778Y-83026423D01*
X75931616Y-83024500D01*
X75418384Y-83024500D01*
X75399145Y-83026248D01*
X75347807Y-83030913D01*
X75185393Y-83081522D01*
X75039811Y-83169530D01*
X74919530Y-83289811D01*
X74831522Y-83435393D01*
X74780913Y-83597807D01*
X74774500Y-83668386D01*
X74774500Y-83735500D01*
X74754815Y-83802539D01*
X74702011Y-83848294D01*
X74650500Y-83859500D01*
X68174727Y-83859500D01*
X68107688Y-83839815D01*
X68061933Y-83787011D01*
X68060166Y-83782952D01*
X68028409Y-83706282D01*
X68028404Y-83706273D01*
X68006529Y-83668384D01*
X67916948Y-83513226D01*
X67833771Y-83404827D01*
X67781248Y-83336377D01*
X67781242Y-83336370D01*
X67623629Y-83178757D01*
X67623622Y-83178751D01*
X67446782Y-83043058D01*
X67446780Y-83043057D01*
X67446774Y-83043052D01*
X67253726Y-82931595D01*
X67253722Y-82931593D01*
X67047790Y-82846293D01*
X67047783Y-82846291D01*
X67047781Y-82846290D01*
X66832463Y-82788596D01*
X66832457Y-82788595D01*
X66832452Y-82788594D01*
X66611466Y-82759501D01*
X66611463Y-82759500D01*
X66611457Y-82759500D01*
X66388543Y-82759500D01*
X66388537Y-82759500D01*
X66388533Y-82759501D01*
X66167547Y-82788594D01*
X66167540Y-82788595D01*
X66167537Y-82788596D01*
X65952219Y-82846290D01*
X65952209Y-82846293D01*
X65746277Y-82931593D01*
X65746273Y-82931595D01*
X65553226Y-83043052D01*
X65553217Y-83043058D01*
X65376377Y-83178751D01*
X65376370Y-83178757D01*
X65218757Y-83336370D01*
X65218751Y-83336377D01*
X65083058Y-83513217D01*
X65083052Y-83513226D01*
X64971595Y-83706273D01*
X64971593Y-83706277D01*
X64886293Y-83912209D01*
X64886290Y-83912219D01*
X64828597Y-84127534D01*
X64828594Y-84127547D01*
X64799501Y-84348533D01*
X64799500Y-84348549D01*
X60500500Y-84348549D01*
X60500500Y-79268549D01*
X64799500Y-79268549D01*
X64799500Y-79491450D01*
X64799501Y-79491466D01*
X64828594Y-79712452D01*
X64828595Y-79712457D01*
X64828596Y-79712463D01*
X64886290Y-79927780D01*
X64886293Y-79927790D01*
X64971591Y-80133717D01*
X64971595Y-80133726D01*
X65083052Y-80326774D01*
X65083057Y-80326780D01*
X65083058Y-80326782D01*
X65218751Y-80503622D01*
X65218757Y-80503629D01*
X65376370Y-80661242D01*
X65376376Y-80661247D01*
X65553226Y-80796948D01*
X65746274Y-80908405D01*
X65876140Y-80962197D01*
X65951074Y-80993236D01*
X65952219Y-80993710D01*
X66167537Y-81051404D01*
X66388543Y-81080500D01*
X66388550Y-81080500D01*
X66611450Y-81080500D01*
X66611457Y-81080500D01*
X66832463Y-81051404D01*
X67047781Y-80993710D01*
X67253726Y-80908405D01*
X67446774Y-80796948D01*
X67623624Y-80661247D01*
X67781247Y-80503624D01*
X67916948Y-80326774D01*
X68028405Y-80133726D01*
X68028491Y-80133520D01*
X68060166Y-80057048D01*
X68104006Y-80002644D01*
X68170300Y-79980579D01*
X68174727Y-79980500D01*
X74659780Y-79980500D01*
X74726819Y-80000185D01*
X74772574Y-80052989D01*
X74783138Y-80117103D01*
X74774500Y-80201647D01*
X74774500Y-80798337D01*
X74774501Y-80798355D01*
X74784650Y-80897707D01*
X74784651Y-80897710D01*
X74837996Y-81058694D01*
X74838001Y-81058705D01*
X74927029Y-81203040D01*
X74927032Y-81203044D01*
X75046955Y-81322967D01*
X75046959Y-81322970D01*
X75191294Y-81411998D01*
X75191297Y-81411999D01*
X75191303Y-81412003D01*
X75352292Y-81465349D01*
X75451655Y-81475500D01*
X75998344Y-81475499D01*
X75998352Y-81475498D01*
X75998355Y-81475498D01*
X76052760Y-81469940D01*
X76097708Y-81465349D01*
X76258697Y-81412003D01*
X76403044Y-81322968D01*
X76412668Y-81313343D01*
X76473987Y-81279856D01*
X76543679Y-81284835D01*
X76588034Y-81313339D01*
X76597267Y-81322572D01*
X76597271Y-81322575D01*
X76741507Y-81411542D01*
X76741518Y-81411547D01*
X76902393Y-81464855D01*
X77001683Y-81474999D01*
X77525000Y-81474999D01*
X77548308Y-81474999D01*
X77548322Y-81474998D01*
X77647607Y-81464855D01*
X77808481Y-81411547D01*
X77808492Y-81411542D01*
X77952728Y-81322575D01*
X77952732Y-81322572D01*
X78072572Y-81202732D01*
X78072575Y-81202728D01*
X78161542Y-81058492D01*
X78161547Y-81058481D01*
X78214855Y-80897606D01*
X78224999Y-80798322D01*
X78225000Y-80798309D01*
X78225000Y-80750000D01*
X77525000Y-80750000D01*
X77525000Y-81474999D01*
X77001683Y-81474999D01*
X77025000Y-81474998D01*
X77025000Y-80624000D01*
X77044685Y-80556961D01*
X77097489Y-80511206D01*
X77149000Y-80500000D01*
X77275000Y-80500000D01*
X77275000Y-80374000D01*
X77294685Y-80306961D01*
X77347489Y-80261206D01*
X77399000Y-80250000D01*
X78224999Y-80250000D01*
X78224999Y-80201692D01*
X78224998Y-80201677D01*
X78214855Y-80102392D01*
X78161547Y-79941518D01*
X78161542Y-79941507D01*
X78089727Y-79825078D01*
X78085760Y-79810583D01*
X78077291Y-79798167D01*
X78076725Y-79777564D01*
X78071286Y-79757686D01*
X78075755Y-79742210D01*
X78075374Y-79728324D01*
X78089145Y-79695837D01*
X78110600Y-79660346D01*
X78162128Y-79613161D01*
X78216715Y-79600500D01*
X84705111Y-79600500D01*
X84772150Y-79620185D01*
X84817905Y-79672989D01*
X84828050Y-79708315D01*
X84828594Y-79712452D01*
X84828595Y-79712457D01*
X84828596Y-79712463D01*
X84886290Y-79927780D01*
X84886293Y-79927790D01*
X84971591Y-80133717D01*
X84971595Y-80133726D01*
X85083052Y-80326774D01*
X85083057Y-80326780D01*
X85083058Y-80326782D01*
X85218751Y-80503622D01*
X85218757Y-80503629D01*
X85376370Y-80661242D01*
X85376376Y-80661247D01*
X85553226Y-80796948D01*
X85746274Y-80908405D01*
X85876140Y-80962197D01*
X85951074Y-80993236D01*
X85952219Y-80993710D01*
X86167537Y-81051404D01*
X86388543Y-81080500D01*
X86388550Y-81080500D01*
X86611450Y-81080500D01*
X86611457Y-81080500D01*
X86832463Y-81051404D01*
X87047781Y-80993710D01*
X87253726Y-80908405D01*
X87446774Y-80796948D01*
X87623624Y-80661247D01*
X87781247Y-80503624D01*
X87916948Y-80326774D01*
X88028405Y-80133726D01*
X88113710Y-79927781D01*
X88171404Y-79712463D01*
X88200500Y-79491457D01*
X88200500Y-79268543D01*
X88171404Y-79047537D01*
X88113710Y-78832219D01*
X88028405Y-78626274D01*
X87916948Y-78433226D01*
X87806906Y-78289815D01*
X87781248Y-78256377D01*
X87781242Y-78256370D01*
X87623629Y-78098757D01*
X87623622Y-78098751D01*
X87446782Y-77963058D01*
X87446780Y-77963057D01*
X87446774Y-77963052D01*
X87253726Y-77851595D01*
X87253722Y-77851593D01*
X87047790Y-77766293D01*
X87047783Y-77766291D01*
X87047781Y-77766290D01*
X86832463Y-77708596D01*
X86832457Y-77708595D01*
X86832452Y-77708594D01*
X86611466Y-77679501D01*
X86611463Y-77679500D01*
X86611457Y-77679500D01*
X86388543Y-77679500D01*
X86388537Y-77679500D01*
X86388533Y-77679501D01*
X86167547Y-77708594D01*
X86167540Y-77708595D01*
X86167537Y-77708596D01*
X85952219Y-77766290D01*
X85952209Y-77766293D01*
X85746277Y-77851593D01*
X85746273Y-77851595D01*
X85553226Y-77963052D01*
X85553217Y-77963058D01*
X85376377Y-78098751D01*
X85376370Y-78098757D01*
X85218757Y-78256370D01*
X85218751Y-78256377D01*
X85146157Y-78350986D01*
X85089730Y-78392189D01*
X85047781Y-78399500D01*
X78216715Y-78399500D01*
X78149676Y-78379815D01*
X78110598Y-78339650D01*
X78080472Y-78289815D01*
X78080470Y-78289813D01*
X78080469Y-78289811D01*
X77960188Y-78169530D01*
X77814606Y-78081522D01*
X77812960Y-78081009D01*
X77652196Y-78030914D01*
X77652194Y-78030913D01*
X77652192Y-78030913D01*
X77602778Y-78026423D01*
X77581616Y-78024500D01*
X77068384Y-78024500D01*
X77049145Y-78026248D01*
X76997807Y-78030913D01*
X76835393Y-78081522D01*
X76689811Y-78169530D01*
X76689810Y-78169531D01*
X76587681Y-78271661D01*
X76526358Y-78305146D01*
X76456666Y-78300162D01*
X76412319Y-78271661D01*
X76310188Y-78169530D01*
X76164606Y-78081522D01*
X76162960Y-78081009D01*
X76002196Y-78030914D01*
X76002194Y-78030913D01*
X76002192Y-78030913D01*
X75952778Y-78026423D01*
X75931616Y-78024500D01*
X75418384Y-78024500D01*
X75399145Y-78026248D01*
X75347807Y-78030913D01*
X75185393Y-78081522D01*
X75039811Y-78169530D01*
X74919530Y-78289811D01*
X74831522Y-78435393D01*
X74831522Y-78435394D01*
X74780914Y-78597804D01*
X74778326Y-78626282D01*
X74774651Y-78666723D01*
X74748980Y-78731705D01*
X74692251Y-78772494D01*
X74651160Y-78779500D01*
X68174727Y-78779500D01*
X68107688Y-78759815D01*
X68061933Y-78707011D01*
X68060166Y-78702952D01*
X68028409Y-78626282D01*
X68028404Y-78626273D01*
X68019438Y-78610743D01*
X67916948Y-78433226D01*
X67806906Y-78289815D01*
X67781248Y-78256377D01*
X67781242Y-78256370D01*
X67623629Y-78098757D01*
X67623622Y-78098751D01*
X67446782Y-77963058D01*
X67446780Y-77963057D01*
X67446774Y-77963052D01*
X67253726Y-77851595D01*
X67253722Y-77851593D01*
X67047790Y-77766293D01*
X67047783Y-77766291D01*
X67047781Y-77766290D01*
X66832463Y-77708596D01*
X66832457Y-77708595D01*
X66832452Y-77708594D01*
X66611466Y-77679501D01*
X66611463Y-77679500D01*
X66611457Y-77679500D01*
X66388543Y-77679500D01*
X66388537Y-77679500D01*
X66388533Y-77679501D01*
X66167547Y-77708594D01*
X66167540Y-77708595D01*
X66167537Y-77708596D01*
X65952219Y-77766290D01*
X65952209Y-77766293D01*
X65746277Y-77851593D01*
X65746273Y-77851595D01*
X65553226Y-77963052D01*
X65553217Y-77963058D01*
X65376377Y-78098751D01*
X65376370Y-78098757D01*
X65218757Y-78256370D01*
X65218751Y-78256377D01*
X65083058Y-78433217D01*
X65083052Y-78433226D01*
X64971595Y-78626273D01*
X64971593Y-78626277D01*
X64886293Y-78832209D01*
X64886290Y-78832219D01*
X64828597Y-79047534D01*
X64828594Y-79047547D01*
X64799501Y-79268533D01*
X64799500Y-79268549D01*
X60500500Y-79268549D01*
X60500500Y-74188549D01*
X64799500Y-74188549D01*
X64799500Y-74411450D01*
X64799501Y-74411466D01*
X64828594Y-74632452D01*
X64828595Y-74632457D01*
X64828596Y-74632463D01*
X64886290Y-74847780D01*
X64886293Y-74847790D01*
X64971591Y-75053717D01*
X64971595Y-75053726D01*
X65083052Y-75246774D01*
X65083057Y-75246780D01*
X65083058Y-75246782D01*
X65218751Y-75423622D01*
X65218757Y-75423629D01*
X65376370Y-75581242D01*
X65376376Y-75581247D01*
X65553226Y-75716948D01*
X65746274Y-75828405D01*
X65876140Y-75882197D01*
X65951074Y-75913236D01*
X65952219Y-75913710D01*
X66167537Y-75971404D01*
X66388543Y-76000500D01*
X66388550Y-76000500D01*
X66611450Y-76000500D01*
X66611457Y-76000500D01*
X66832463Y-75971404D01*
X67047781Y-75913710D01*
X67253726Y-75828405D01*
X67446774Y-75716948D01*
X67623624Y-75581247D01*
X67781247Y-75423624D01*
X67916948Y-75246774D01*
X68028405Y-75053726D01*
X68028491Y-75053520D01*
X68060166Y-74977048D01*
X68104006Y-74922644D01*
X68170300Y-74900579D01*
X68174727Y-74900500D01*
X74679798Y-74900500D01*
X74746837Y-74920185D01*
X74792592Y-74972989D01*
X74802536Y-75042147D01*
X74797504Y-75063504D01*
X74784651Y-75102290D01*
X74774500Y-75201647D01*
X74774500Y-75798337D01*
X74774501Y-75798355D01*
X74784650Y-75897707D01*
X74784651Y-75897710D01*
X74837996Y-76058694D01*
X74838001Y-76058705D01*
X74927029Y-76203040D01*
X74927032Y-76203044D01*
X75046955Y-76322967D01*
X75046959Y-76322970D01*
X75191294Y-76411998D01*
X75191297Y-76411999D01*
X75191303Y-76412003D01*
X75352292Y-76465349D01*
X75451655Y-76475500D01*
X75998344Y-76475499D01*
X75998352Y-76475498D01*
X75998355Y-76475498D01*
X76052760Y-76469940D01*
X76097708Y-76465349D01*
X76258697Y-76412003D01*
X76403044Y-76322968D01*
X76412668Y-76313343D01*
X76473987Y-76279856D01*
X76543679Y-76284835D01*
X76588034Y-76313339D01*
X76597267Y-76322572D01*
X76597271Y-76322575D01*
X76741507Y-76411542D01*
X76741518Y-76411547D01*
X76902393Y-76464855D01*
X77001683Y-76474999D01*
X77525000Y-76474999D01*
X77548308Y-76474999D01*
X77548322Y-76474998D01*
X77647607Y-76464855D01*
X77808481Y-76411547D01*
X77808492Y-76411542D01*
X77952728Y-76322575D01*
X77952732Y-76322572D01*
X78072572Y-76202732D01*
X78072575Y-76202728D01*
X78161542Y-76058492D01*
X78161547Y-76058481D01*
X78214855Y-75897606D01*
X78224999Y-75798322D01*
X78225000Y-75798309D01*
X78225000Y-75750000D01*
X77525000Y-75750000D01*
X77525000Y-76474999D01*
X77001683Y-76474999D01*
X77025000Y-76474998D01*
X77025000Y-75624000D01*
X77044685Y-75556961D01*
X77097489Y-75511206D01*
X77149000Y-75500000D01*
X77275000Y-75500000D01*
X77275000Y-75374000D01*
X77294685Y-75306961D01*
X77347489Y-75261206D01*
X77399000Y-75250000D01*
X78224999Y-75250000D01*
X78224999Y-75201692D01*
X78224998Y-75201677D01*
X78214855Y-75102392D01*
X78161547Y-74941518D01*
X78161542Y-74941507D01*
X78089727Y-74825078D01*
X78085760Y-74810583D01*
X78077291Y-74798167D01*
X78076725Y-74777564D01*
X78071286Y-74757686D01*
X78075755Y-74742210D01*
X78075374Y-74728324D01*
X78089145Y-74695837D01*
X78110600Y-74660346D01*
X78162128Y-74613161D01*
X78216715Y-74600500D01*
X84724883Y-74600500D01*
X84791922Y-74620185D01*
X84837677Y-74672989D01*
X84844656Y-74692401D01*
X84886246Y-74847618D01*
X84886291Y-74847783D01*
X84886293Y-74847790D01*
X84971591Y-75053717D01*
X84971595Y-75053726D01*
X85083052Y-75246774D01*
X85083057Y-75246780D01*
X85083058Y-75246782D01*
X85218751Y-75423622D01*
X85218757Y-75423629D01*
X85376370Y-75581242D01*
X85376376Y-75581247D01*
X85553226Y-75716948D01*
X85746274Y-75828405D01*
X85876140Y-75882197D01*
X85951074Y-75913236D01*
X85952219Y-75913710D01*
X86167537Y-75971404D01*
X86388543Y-76000500D01*
X86388550Y-76000500D01*
X86611450Y-76000500D01*
X86611457Y-76000500D01*
X86832463Y-75971404D01*
X87047781Y-75913710D01*
X87253726Y-75828405D01*
X87446774Y-75716948D01*
X87623624Y-75581247D01*
X87781247Y-75423624D01*
X87916948Y-75246774D01*
X88028405Y-75053726D01*
X88113710Y-74847781D01*
X88171404Y-74632463D01*
X88200500Y-74411457D01*
X88200500Y-74188543D01*
X88171404Y-73967537D01*
X88113710Y-73752219D01*
X88028405Y-73546274D01*
X87916948Y-73353226D01*
X87781247Y-73176376D01*
X87781242Y-73176370D01*
X87623629Y-73018757D01*
X87623622Y-73018751D01*
X87446782Y-72883058D01*
X87446780Y-72883057D01*
X87446774Y-72883052D01*
X87253726Y-72771595D01*
X87253722Y-72771593D01*
X87047790Y-72686293D01*
X87047783Y-72686291D01*
X87047781Y-72686290D01*
X86832463Y-72628596D01*
X86832457Y-72628595D01*
X86832452Y-72628594D01*
X86611466Y-72599501D01*
X86611463Y-72599500D01*
X86611457Y-72599500D01*
X86388543Y-72599500D01*
X86388537Y-72599500D01*
X86388533Y-72599501D01*
X86167547Y-72628594D01*
X86167540Y-72628595D01*
X86167537Y-72628596D01*
X85952219Y-72686290D01*
X85952209Y-72686293D01*
X85746277Y-72771593D01*
X85746273Y-72771595D01*
X85553226Y-72883052D01*
X85553217Y-72883058D01*
X85376377Y-73018751D01*
X85376370Y-73018757D01*
X85218757Y-73176370D01*
X85218751Y-73176377D01*
X85084771Y-73350986D01*
X85028344Y-73392189D01*
X84986395Y-73399500D01*
X78216715Y-73399500D01*
X78149676Y-73379815D01*
X78110598Y-73339650D01*
X78080472Y-73289815D01*
X78080470Y-73289813D01*
X78080469Y-73289811D01*
X77960188Y-73169530D01*
X77814606Y-73081522D01*
X77652196Y-73030914D01*
X77652194Y-73030913D01*
X77652192Y-73030913D01*
X77602778Y-73026423D01*
X77581616Y-73024500D01*
X77068384Y-73024500D01*
X77049145Y-73026248D01*
X76997807Y-73030913D01*
X76835393Y-73081522D01*
X76689811Y-73169530D01*
X76689810Y-73169531D01*
X76587681Y-73271661D01*
X76526358Y-73305146D01*
X76456666Y-73300162D01*
X76412319Y-73271661D01*
X76310188Y-73169530D01*
X76164606Y-73081522D01*
X76002196Y-73030914D01*
X76002194Y-73030913D01*
X76002192Y-73030913D01*
X75952778Y-73026423D01*
X75931616Y-73024500D01*
X75418384Y-73024500D01*
X75399145Y-73026248D01*
X75347807Y-73030913D01*
X75185393Y-73081522D01*
X75039811Y-73169530D01*
X74919530Y-73289811D01*
X74831522Y-73435393D01*
X74831522Y-73435394D01*
X74780914Y-73597804D01*
X74780913Y-73597806D01*
X74780913Y-73597809D01*
X74780540Y-73599686D01*
X74780016Y-73600686D01*
X74778963Y-73604068D01*
X74778348Y-73603876D01*
X74748158Y-73661599D01*
X74687443Y-73696175D01*
X74658922Y-73699500D01*
X68174727Y-73699500D01*
X68107688Y-73679815D01*
X68061933Y-73627011D01*
X68060166Y-73622952D01*
X68028409Y-73546282D01*
X68028404Y-73546273D01*
X68019438Y-73530743D01*
X67916948Y-73353226D01*
X67781247Y-73176376D01*
X67781242Y-73176370D01*
X67623629Y-73018757D01*
X67623622Y-73018751D01*
X67446782Y-72883058D01*
X67446780Y-72883057D01*
X67446774Y-72883052D01*
X67253726Y-72771595D01*
X67253722Y-72771593D01*
X67047790Y-72686293D01*
X67047783Y-72686291D01*
X67047781Y-72686290D01*
X66832463Y-72628596D01*
X66832457Y-72628595D01*
X66832452Y-72628594D01*
X66611466Y-72599501D01*
X66611463Y-72599500D01*
X66611457Y-72599500D01*
X66388543Y-72599500D01*
X66388537Y-72599500D01*
X66388533Y-72599501D01*
X66167547Y-72628594D01*
X66167540Y-72628595D01*
X66167537Y-72628596D01*
X65952219Y-72686290D01*
X65952209Y-72686293D01*
X65746277Y-72771593D01*
X65746273Y-72771595D01*
X65553226Y-72883052D01*
X65553217Y-72883058D01*
X65376377Y-73018751D01*
X65376370Y-73018757D01*
X65218757Y-73176370D01*
X65218751Y-73176377D01*
X65083058Y-73353217D01*
X65083052Y-73353226D01*
X64971595Y-73546273D01*
X64971593Y-73546277D01*
X64886293Y-73752209D01*
X64886290Y-73752219D01*
X64828597Y-73967534D01*
X64828594Y-73967547D01*
X64799501Y-74188533D01*
X64799500Y-74188549D01*
X60500500Y-74188549D01*
X60500500Y-69108549D01*
X64799500Y-69108549D01*
X64799500Y-69331450D01*
X64799501Y-69331466D01*
X64828594Y-69552452D01*
X64828595Y-69552457D01*
X64828596Y-69552463D01*
X64886290Y-69767780D01*
X64886293Y-69767790D01*
X64971591Y-69973717D01*
X64971595Y-69973726D01*
X65083052Y-70166774D01*
X65083057Y-70166780D01*
X65083058Y-70166782D01*
X65218751Y-70343622D01*
X65218757Y-70343629D01*
X65376370Y-70501242D01*
X65376376Y-70501247D01*
X65553226Y-70636948D01*
X65746274Y-70748405D01*
X65750125Y-70750000D01*
X65951074Y-70833236D01*
X65952219Y-70833710D01*
X66167537Y-70891404D01*
X66388543Y-70920500D01*
X66388550Y-70920500D01*
X66611450Y-70920500D01*
X66611457Y-70920500D01*
X66832463Y-70891404D01*
X67047781Y-70833710D01*
X67253726Y-70748405D01*
X67446774Y-70636948D01*
X67623624Y-70501247D01*
X67781247Y-70343624D01*
X67916948Y-70166774D01*
X68028405Y-69973726D01*
X68028491Y-69973520D01*
X68060166Y-69897048D01*
X68104006Y-69842644D01*
X68170300Y-69820579D01*
X68174727Y-69820500D01*
X74706307Y-69820500D01*
X74773346Y-69840185D01*
X74819101Y-69892989D01*
X74829045Y-69962147D01*
X74824013Y-69983504D01*
X74784651Y-70102290D01*
X74774500Y-70201647D01*
X74774500Y-70798337D01*
X74774501Y-70798355D01*
X74784650Y-70897707D01*
X74784651Y-70897710D01*
X74837996Y-71058694D01*
X74838001Y-71058705D01*
X74927029Y-71203040D01*
X74927032Y-71203044D01*
X75046955Y-71322967D01*
X75046959Y-71322970D01*
X75191294Y-71411998D01*
X75191297Y-71411999D01*
X75191303Y-71412003D01*
X75352292Y-71465349D01*
X75451655Y-71475500D01*
X75998344Y-71475499D01*
X75998352Y-71475498D01*
X75998355Y-71475498D01*
X76052760Y-71469940D01*
X76097708Y-71465349D01*
X76258697Y-71412003D01*
X76403044Y-71322968D01*
X76412668Y-71313343D01*
X76473987Y-71279856D01*
X76543679Y-71284835D01*
X76588034Y-71313339D01*
X76597267Y-71322572D01*
X76597271Y-71322575D01*
X76741507Y-71411542D01*
X76741518Y-71411547D01*
X76902393Y-71464855D01*
X77001683Y-71474999D01*
X77525000Y-71474999D01*
X77548308Y-71474999D01*
X77548322Y-71474998D01*
X77647607Y-71464855D01*
X77808481Y-71411547D01*
X77808492Y-71411542D01*
X77952728Y-71322575D01*
X77952732Y-71322572D01*
X78072572Y-71202732D01*
X78072575Y-71202728D01*
X78161542Y-71058492D01*
X78161547Y-71058481D01*
X78214855Y-70897606D01*
X78224999Y-70798322D01*
X78225000Y-70798309D01*
X78225000Y-70750000D01*
X77525000Y-70750000D01*
X77525000Y-71474999D01*
X77001683Y-71474999D01*
X77025000Y-71474998D01*
X77025000Y-70624000D01*
X77044685Y-70556961D01*
X77097489Y-70511206D01*
X77149000Y-70500000D01*
X77275000Y-70500000D01*
X77275000Y-70374000D01*
X77294685Y-70306961D01*
X77347489Y-70261206D01*
X77399000Y-70250000D01*
X78224999Y-70250000D01*
X78224999Y-70201692D01*
X78224998Y-70201677D01*
X78214855Y-70102392D01*
X78161547Y-69941518D01*
X78161542Y-69941507D01*
X78089727Y-69825078D01*
X78085760Y-69810583D01*
X78077291Y-69798167D01*
X78076725Y-69777564D01*
X78071286Y-69757686D01*
X78075755Y-69742210D01*
X78075374Y-69728324D01*
X78089145Y-69695837D01*
X78110600Y-69660346D01*
X78162128Y-69613161D01*
X78216715Y-69600500D01*
X84746318Y-69600500D01*
X84813357Y-69620185D01*
X84859112Y-69672989D01*
X84866092Y-69692404D01*
X84886246Y-69767618D01*
X84886292Y-69767787D01*
X84971591Y-69973717D01*
X84971595Y-69973726D01*
X85083052Y-70166774D01*
X85083057Y-70166780D01*
X85083058Y-70166782D01*
X85218751Y-70343622D01*
X85218757Y-70343629D01*
X85376370Y-70501242D01*
X85376376Y-70501247D01*
X85553226Y-70636948D01*
X85746274Y-70748405D01*
X85750125Y-70750000D01*
X85951074Y-70833236D01*
X85952219Y-70833710D01*
X86167537Y-70891404D01*
X86388543Y-70920500D01*
X86388550Y-70920500D01*
X86611450Y-70920500D01*
X86611457Y-70920500D01*
X86832463Y-70891404D01*
X87047781Y-70833710D01*
X87253726Y-70748405D01*
X87446774Y-70636948D01*
X87623624Y-70501247D01*
X87781247Y-70343624D01*
X87916948Y-70166774D01*
X88028405Y-69973726D01*
X88113710Y-69767781D01*
X88171404Y-69552463D01*
X88200500Y-69331457D01*
X88200500Y-69108543D01*
X88171404Y-68887537D01*
X88113710Y-68672219D01*
X88028405Y-68466274D01*
X87916948Y-68273226D01*
X87866588Y-68207595D01*
X87781248Y-68096377D01*
X87781242Y-68096370D01*
X87623629Y-67938757D01*
X87623622Y-67938751D01*
X87446782Y-67803058D01*
X87446780Y-67803057D01*
X87446774Y-67803052D01*
X87253726Y-67691595D01*
X87253722Y-67691593D01*
X87047790Y-67606293D01*
X87047783Y-67606291D01*
X87047781Y-67606290D01*
X86832463Y-67548596D01*
X86832457Y-67548595D01*
X86832452Y-67548594D01*
X86611466Y-67519501D01*
X86611463Y-67519500D01*
X86611457Y-67519500D01*
X86388543Y-67519500D01*
X86388537Y-67519500D01*
X86388533Y-67519501D01*
X86167547Y-67548594D01*
X86167540Y-67548595D01*
X86167537Y-67548596D01*
X85952219Y-67606290D01*
X85952209Y-67606293D01*
X85746277Y-67691593D01*
X85746273Y-67691595D01*
X85553226Y-67803052D01*
X85553217Y-67803058D01*
X85376377Y-67938751D01*
X85376370Y-67938757D01*
X85218757Y-68096370D01*
X85218751Y-68096377D01*
X85083058Y-68273217D01*
X85083052Y-68273226D01*
X85045941Y-68337502D01*
X84995376Y-68385716D01*
X84938556Y-68399500D01*
X78216715Y-68399500D01*
X78149676Y-68379815D01*
X78110598Y-68339650D01*
X78109299Y-68337501D01*
X78080472Y-68289815D01*
X78080470Y-68289813D01*
X78080469Y-68289811D01*
X77960188Y-68169530D01*
X77814606Y-68081522D01*
X77652196Y-68030914D01*
X77652194Y-68030913D01*
X77652192Y-68030913D01*
X77602778Y-68026423D01*
X77581616Y-68024500D01*
X77068384Y-68024500D01*
X77049145Y-68026248D01*
X76997807Y-68030913D01*
X76835393Y-68081522D01*
X76689811Y-68169530D01*
X76689810Y-68169531D01*
X76587681Y-68271661D01*
X76526358Y-68305146D01*
X76456666Y-68300162D01*
X76412319Y-68271661D01*
X76310188Y-68169530D01*
X76164606Y-68081522D01*
X76002196Y-68030914D01*
X76002194Y-68030913D01*
X76002192Y-68030913D01*
X75952778Y-68026423D01*
X75931616Y-68024500D01*
X75418384Y-68024500D01*
X75399145Y-68026248D01*
X75347807Y-68030913D01*
X75185393Y-68081522D01*
X75039811Y-68169530D01*
X74919530Y-68289811D01*
X74831522Y-68435393D01*
X74831522Y-68435394D01*
X74801296Y-68532391D01*
X74762560Y-68590538D01*
X74698535Y-68618512D01*
X74682912Y-68619500D01*
X68174727Y-68619500D01*
X68107688Y-68599815D01*
X68061933Y-68547011D01*
X68060166Y-68542952D01*
X68028409Y-68466282D01*
X68028404Y-68466273D01*
X68010576Y-68435394D01*
X67916948Y-68273226D01*
X67866588Y-68207595D01*
X67781248Y-68096377D01*
X67781242Y-68096370D01*
X67623629Y-67938757D01*
X67623622Y-67938751D01*
X67446782Y-67803058D01*
X67446780Y-67803057D01*
X67446774Y-67803052D01*
X67253726Y-67691595D01*
X67253722Y-67691593D01*
X67047790Y-67606293D01*
X67047783Y-67606291D01*
X67047781Y-67606290D01*
X66832463Y-67548596D01*
X66832457Y-67548595D01*
X66832452Y-67548594D01*
X66611466Y-67519501D01*
X66611463Y-67519500D01*
X66611457Y-67519500D01*
X66388543Y-67519500D01*
X66388537Y-67519500D01*
X66388533Y-67519501D01*
X66167547Y-67548594D01*
X66167540Y-67548595D01*
X66167537Y-67548596D01*
X65952219Y-67606290D01*
X65952209Y-67606293D01*
X65746277Y-67691593D01*
X65746273Y-67691595D01*
X65553226Y-67803052D01*
X65553217Y-67803058D01*
X65376377Y-67938751D01*
X65376370Y-67938757D01*
X65218757Y-68096370D01*
X65218751Y-68096377D01*
X65083058Y-68273217D01*
X65083052Y-68273226D01*
X64971595Y-68466273D01*
X64971593Y-68466277D01*
X64886293Y-68672209D01*
X64886290Y-68672219D01*
X64828597Y-68887534D01*
X64828594Y-68887547D01*
X64799501Y-69108533D01*
X64799500Y-69108549D01*
X60500500Y-69108549D01*
X60500500Y-63139984D01*
X64799500Y-63139984D01*
X64799500Y-65140015D01*
X64810000Y-65242795D01*
X64810001Y-65242796D01*
X64865186Y-65409335D01*
X64865187Y-65409337D01*
X64957286Y-65558651D01*
X64957289Y-65558655D01*
X65081344Y-65682710D01*
X65081348Y-65682713D01*
X65230662Y-65774812D01*
X65230664Y-65774813D01*
X65230666Y-65774814D01*
X65397203Y-65829999D01*
X65499992Y-65840500D01*
X65499997Y-65840500D01*
X67500003Y-65840500D01*
X67500008Y-65840500D01*
X67602797Y-65829999D01*
X67769334Y-65774814D01*
X67918655Y-65682711D01*
X68042711Y-65558655D01*
X68134814Y-65409334D01*
X68189999Y-65242797D01*
X68200500Y-65140008D01*
X68200500Y-64864500D01*
X68220185Y-64797461D01*
X68272989Y-64751706D01*
X68324500Y-64740500D01*
X74739679Y-64740500D01*
X74806718Y-64760185D01*
X74852473Y-64812989D01*
X74862417Y-64882147D01*
X74845217Y-64929598D01*
X74837999Y-64941298D01*
X74837996Y-64941305D01*
X74784651Y-65102290D01*
X74774500Y-65201647D01*
X74774500Y-65798337D01*
X74774501Y-65798355D01*
X74784650Y-65897707D01*
X74784651Y-65897710D01*
X74837996Y-66058694D01*
X74838001Y-66058705D01*
X74927029Y-66203040D01*
X74927032Y-66203044D01*
X75046955Y-66322967D01*
X75046959Y-66322970D01*
X75191294Y-66411998D01*
X75191297Y-66411999D01*
X75191303Y-66412003D01*
X75352292Y-66465349D01*
X75451655Y-66475500D01*
X75998344Y-66475499D01*
X75998352Y-66475498D01*
X75998355Y-66475498D01*
X76052760Y-66469940D01*
X76097708Y-66465349D01*
X76258697Y-66412003D01*
X76403044Y-66322968D01*
X76412668Y-66313343D01*
X76473987Y-66279856D01*
X76543679Y-66284835D01*
X76588034Y-66313339D01*
X76597267Y-66322572D01*
X76597271Y-66322575D01*
X76741507Y-66411542D01*
X76741518Y-66411547D01*
X76902393Y-66464855D01*
X77001683Y-66474999D01*
X77525000Y-66474999D01*
X77548308Y-66474999D01*
X77548322Y-66474998D01*
X77647607Y-66464855D01*
X77808481Y-66411547D01*
X77808492Y-66411542D01*
X77952728Y-66322575D01*
X77952732Y-66322572D01*
X78072572Y-66202732D01*
X78072575Y-66202728D01*
X78161542Y-66058492D01*
X78161547Y-66058481D01*
X78214855Y-65897606D01*
X78224999Y-65798322D01*
X78225000Y-65798309D01*
X78225000Y-65750000D01*
X77525000Y-65750000D01*
X77525000Y-66474999D01*
X77001683Y-66474999D01*
X77025000Y-66474998D01*
X77025000Y-65624000D01*
X77044685Y-65556961D01*
X77097489Y-65511206D01*
X77149000Y-65500000D01*
X77275000Y-65500000D01*
X77275000Y-65374000D01*
X77294685Y-65306961D01*
X77347489Y-65261206D01*
X77399000Y-65250000D01*
X78224999Y-65250000D01*
X78224999Y-65201692D01*
X78224998Y-65201677D01*
X78214855Y-65102392D01*
X78161547Y-64941518D01*
X78161542Y-64941507D01*
X78089727Y-64825078D01*
X78085760Y-64810583D01*
X78077291Y-64798167D01*
X78076725Y-64777564D01*
X78071286Y-64757686D01*
X78075755Y-64742210D01*
X78075374Y-64728324D01*
X78089145Y-64695837D01*
X78110600Y-64660346D01*
X78162128Y-64613161D01*
X78216715Y-64600500D01*
X84675500Y-64600500D01*
X84742539Y-64620185D01*
X84788294Y-64672989D01*
X84799500Y-64724500D01*
X84799500Y-65140015D01*
X84810000Y-65242795D01*
X84810001Y-65242796D01*
X84865186Y-65409335D01*
X84865187Y-65409337D01*
X84957286Y-65558651D01*
X84957289Y-65558655D01*
X85081344Y-65682710D01*
X85081348Y-65682713D01*
X85230662Y-65774812D01*
X85230664Y-65774813D01*
X85230666Y-65774814D01*
X85397203Y-65829999D01*
X85499992Y-65840500D01*
X85499997Y-65840500D01*
X87500003Y-65840500D01*
X87500008Y-65840500D01*
X87602797Y-65829999D01*
X87769334Y-65774814D01*
X87918655Y-65682711D01*
X88042711Y-65558655D01*
X88134814Y-65409334D01*
X88189999Y-65242797D01*
X88200500Y-65140008D01*
X88200500Y-63139992D01*
X88189999Y-63037203D01*
X88134814Y-62870666D01*
X88042711Y-62721345D01*
X87918655Y-62597289D01*
X87918651Y-62597286D01*
X87769337Y-62505187D01*
X87769335Y-62505186D01*
X87686065Y-62477593D01*
X87602797Y-62450001D01*
X87602795Y-62450000D01*
X87500015Y-62439500D01*
X87500008Y-62439500D01*
X85499992Y-62439500D01*
X85499984Y-62439500D01*
X85397204Y-62450000D01*
X85397203Y-62450001D01*
X85230664Y-62505186D01*
X85230662Y-62505187D01*
X85081348Y-62597286D01*
X85081344Y-62597289D01*
X84957289Y-62721344D01*
X84957286Y-62721348D01*
X84865187Y-62870662D01*
X84865186Y-62870664D01*
X84810001Y-63037203D01*
X84810000Y-63037204D01*
X84799500Y-63139984D01*
X84799500Y-63275500D01*
X84779815Y-63342539D01*
X84727011Y-63388294D01*
X84675500Y-63399500D01*
X78216715Y-63399500D01*
X78149676Y-63379815D01*
X78110598Y-63339650D01*
X78080472Y-63289815D01*
X78080470Y-63289813D01*
X78080469Y-63289811D01*
X77960188Y-63169530D01*
X77911384Y-63140027D01*
X77814606Y-63081522D01*
X77652196Y-63030914D01*
X77652194Y-63030913D01*
X77652192Y-63030913D01*
X77602778Y-63026423D01*
X77581616Y-63024500D01*
X77068384Y-63024500D01*
X77049145Y-63026248D01*
X76997807Y-63030913D01*
X76835393Y-63081522D01*
X76689811Y-63169530D01*
X76689810Y-63169531D01*
X76587681Y-63271661D01*
X76526358Y-63305146D01*
X76456666Y-63300162D01*
X76412319Y-63271661D01*
X76310188Y-63169530D01*
X76261384Y-63140027D01*
X76164606Y-63081522D01*
X76002196Y-63030914D01*
X76002194Y-63030913D01*
X76002192Y-63030913D01*
X75952778Y-63026423D01*
X75931616Y-63024500D01*
X75418384Y-63024500D01*
X75399145Y-63026248D01*
X75347807Y-63030913D01*
X75185393Y-63081522D01*
X75039811Y-63169530D01*
X74919530Y-63289811D01*
X74831521Y-63435395D01*
X74826225Y-63452392D01*
X74787486Y-63510539D01*
X74723461Y-63538512D01*
X74707840Y-63539500D01*
X68324500Y-63539500D01*
X68257461Y-63519815D01*
X68211706Y-63467011D01*
X68200500Y-63415500D01*
X68200500Y-63139997D01*
X68200499Y-63139984D01*
X68189999Y-63037204D01*
X68189999Y-63037203D01*
X68134814Y-62870666D01*
X68042711Y-62721345D01*
X67918655Y-62597289D01*
X67918651Y-62597286D01*
X67769337Y-62505187D01*
X67769335Y-62505186D01*
X67686065Y-62477593D01*
X67602797Y-62450001D01*
X67602795Y-62450000D01*
X67500015Y-62439500D01*
X67500008Y-62439500D01*
X65499992Y-62439500D01*
X65499984Y-62439500D01*
X65397204Y-62450000D01*
X65397203Y-62450001D01*
X65230664Y-62505186D01*
X65230662Y-62505187D01*
X65081348Y-62597286D01*
X65081344Y-62597289D01*
X64957289Y-62721344D01*
X64957286Y-62721348D01*
X64865187Y-62870662D01*
X64865186Y-62870664D01*
X64810001Y-63037203D01*
X64810000Y-63037204D01*
X64799500Y-63139984D01*
X60500500Y-63139984D01*
X60500500Y-57378711D01*
X61649500Y-57378711D01*
X61649500Y-57621288D01*
X61681161Y-57861785D01*
X61743947Y-58096104D01*
X61836773Y-58320205D01*
X61836776Y-58320212D01*
X61958064Y-58530289D01*
X61958066Y-58530292D01*
X61958067Y-58530293D01*
X62105733Y-58722736D01*
X62105739Y-58722743D01*
X62277256Y-58894260D01*
X62277262Y-58894265D01*
X62469711Y-59041936D01*
X62679788Y-59163224D01*
X62903900Y-59256054D01*
X63138211Y-59318838D01*
X63318586Y-59342584D01*
X63378711Y-59350500D01*
X63378712Y-59350500D01*
X63621289Y-59350500D01*
X63669388Y-59344167D01*
X63861789Y-59318838D01*
X64096100Y-59256054D01*
X64320212Y-59163224D01*
X64530289Y-59041936D01*
X64722738Y-58894265D01*
X64894265Y-58722738D01*
X65041936Y-58530289D01*
X65163224Y-58320212D01*
X65256054Y-58096100D01*
X65318838Y-57861789D01*
X65350500Y-57621288D01*
X65350500Y-57378712D01*
X65350500Y-57378711D01*
X154649500Y-57378711D01*
X154649500Y-57621288D01*
X154681161Y-57861785D01*
X154743947Y-58096104D01*
X154836773Y-58320205D01*
X154836776Y-58320212D01*
X154958064Y-58530289D01*
X154958066Y-58530292D01*
X154958067Y-58530293D01*
X155105733Y-58722736D01*
X155105739Y-58722743D01*
X155277256Y-58894260D01*
X155277262Y-58894265D01*
X155469711Y-59041936D01*
X155679788Y-59163224D01*
X155903900Y-59256054D01*
X156138211Y-59318838D01*
X156318586Y-59342584D01*
X156378711Y-59350500D01*
X156378712Y-59350500D01*
X156621289Y-59350500D01*
X156669388Y-59344167D01*
X156861789Y-59318838D01*
X157096100Y-59256054D01*
X157320212Y-59163224D01*
X157530289Y-59041936D01*
X157722738Y-58894265D01*
X157894265Y-58722738D01*
X158041936Y-58530289D01*
X158163224Y-58320212D01*
X158256054Y-58096100D01*
X158318838Y-57861789D01*
X158350500Y-57621288D01*
X158350500Y-57378712D01*
X158318838Y-57138211D01*
X158256054Y-56903900D01*
X158163224Y-56679788D01*
X158041936Y-56469711D01*
X157894265Y-56277262D01*
X157894260Y-56277256D01*
X157722743Y-56105739D01*
X157722736Y-56105733D01*
X157530293Y-55958067D01*
X157530292Y-55958066D01*
X157530289Y-55958064D01*
X157320212Y-55836776D01*
X157320205Y-55836773D01*
X157096104Y-55743947D01*
X156861785Y-55681161D01*
X156621289Y-55649500D01*
X156621288Y-55649500D01*
X156378712Y-55649500D01*
X156378711Y-55649500D01*
X156138214Y-55681161D01*
X155903895Y-55743947D01*
X155679794Y-55836773D01*
X155679785Y-55836777D01*
X155469706Y-55958067D01*
X155277263Y-56105733D01*
X155277256Y-56105739D01*
X155105739Y-56277256D01*
X155105733Y-56277263D01*
X154958067Y-56469706D01*
X154836777Y-56679785D01*
X154836773Y-56679794D01*
X154743947Y-56903895D01*
X154681161Y-57138214D01*
X154649500Y-57378711D01*
X65350500Y-57378711D01*
X65318838Y-57138211D01*
X65256054Y-56903900D01*
X65163224Y-56679788D01*
X65041936Y-56469711D01*
X64894265Y-56277262D01*
X64894260Y-56277256D01*
X64722743Y-56105739D01*
X64722736Y-56105733D01*
X64530293Y-55958067D01*
X64530292Y-55958066D01*
X64530289Y-55958064D01*
X64320212Y-55836776D01*
X64320205Y-55836773D01*
X64096104Y-55743947D01*
X63861785Y-55681161D01*
X63621289Y-55649500D01*
X63621288Y-55649500D01*
X63378712Y-55649500D01*
X63378711Y-55649500D01*
X63138214Y-55681161D01*
X62903895Y-55743947D01*
X62679794Y-55836773D01*
X62679785Y-55836777D01*
X62469706Y-55958067D01*
X62277263Y-56105733D01*
X62277256Y-56105739D01*
X62105739Y-56277256D01*
X62105733Y-56277263D01*
X61958067Y-56469706D01*
X61836777Y-56679785D01*
X61836773Y-56679794D01*
X61743947Y-56903895D01*
X61681161Y-57138214D01*
X61649500Y-57378711D01*
X60500500Y-57378711D01*
X60500500Y-54624500D01*
X60520185Y-54557461D01*
X60572989Y-54511706D01*
X60624500Y-54500500D01*
X159375500Y-54500500D01*
X159442539Y-54520185D01*
G37*
%TD.AperFunction*%
%TD*%
M02*
