%TF.GenerationSoftware,KiCad,Pcbnew,9.0.2*%
%TF.CreationDate,2026-01-05T12:02:41+00:00*%
%TF.ProjectId,endstop-interface-board,656e6473-746f-4702-9d69-6e7465726661,rev?*%
%TF.SameCoordinates,Original*%
%TF.FileFunction,Legend,Top*%
%TF.FilePolarity,Positive*%
%FSLAX46Y46*%
G04 Gerber Fmt 4.6, Leading zero omitted, Abs format (unit mm)*
G04 Created by KiCad (PCBNEW 9.0.2) date 2026-01-05 12:02:41*
%MOMM*%
%LPD*%
G01*
G04 APERTURE LIST*
%ADD10C,0.187500*%
%ADD11C,0.162500*%
%ADD12C,0.100000*%
%ADD13C,0.150000*%
%ADD14C,0.000000*%
%ADD15C,0.120000*%
G04 APERTURE END LIST*
D10*
X73909069Y-135872750D02*
X74123355Y-135944178D01*
X74123355Y-135944178D02*
X74480497Y-135944178D01*
X74480497Y-135944178D02*
X74623355Y-135872750D01*
X74623355Y-135872750D02*
X74694783Y-135801321D01*
X74694783Y-135801321D02*
X74766212Y-135658464D01*
X74766212Y-135658464D02*
X74766212Y-135515607D01*
X74766212Y-135515607D02*
X74694783Y-135372750D01*
X74694783Y-135372750D02*
X74623355Y-135301321D01*
X74623355Y-135301321D02*
X74480497Y-135229892D01*
X74480497Y-135229892D02*
X74194783Y-135158464D01*
X74194783Y-135158464D02*
X74051926Y-135087035D01*
X74051926Y-135087035D02*
X73980497Y-135015607D01*
X73980497Y-135015607D02*
X73909069Y-134872750D01*
X73909069Y-134872750D02*
X73909069Y-134729892D01*
X73909069Y-134729892D02*
X73980497Y-134587035D01*
X73980497Y-134587035D02*
X74051926Y-134515607D01*
X74051926Y-134515607D02*
X74194783Y-134444178D01*
X74194783Y-134444178D02*
X74551926Y-134444178D01*
X74551926Y-134444178D02*
X74766212Y-134515607D01*
X75409068Y-135944178D02*
X75409068Y-134444178D01*
X75409068Y-135158464D02*
X76266211Y-135158464D01*
X76266211Y-135944178D02*
X76266211Y-134444178D01*
X76980497Y-135944178D02*
X76980497Y-134444178D01*
X77694783Y-135158464D02*
X78194783Y-135158464D01*
X78409069Y-135944178D02*
X77694783Y-135944178D01*
X77694783Y-135944178D02*
X77694783Y-134444178D01*
X77694783Y-134444178D02*
X78409069Y-134444178D01*
X79766212Y-135944178D02*
X79051926Y-135944178D01*
X79051926Y-135944178D02*
X79051926Y-134444178D01*
X80266212Y-135944178D02*
X80266212Y-134444178D01*
X80266212Y-134444178D02*
X80623355Y-134444178D01*
X80623355Y-134444178D02*
X80837641Y-134515607D01*
X80837641Y-134515607D02*
X80980498Y-134658464D01*
X80980498Y-134658464D02*
X81051927Y-134801321D01*
X81051927Y-134801321D02*
X81123355Y-135087035D01*
X81123355Y-135087035D02*
X81123355Y-135301321D01*
X81123355Y-135301321D02*
X81051927Y-135587035D01*
X81051927Y-135587035D02*
X80980498Y-135729892D01*
X80980498Y-135729892D02*
X80837641Y-135872750D01*
X80837641Y-135872750D02*
X80623355Y-135944178D01*
X80623355Y-135944178D02*
X80266212Y-135944178D01*
X74766212Y-129435607D02*
X74623355Y-129364178D01*
X74623355Y-129364178D02*
X74409069Y-129364178D01*
X74409069Y-129364178D02*
X74194783Y-129435607D01*
X74194783Y-129435607D02*
X74051926Y-129578464D01*
X74051926Y-129578464D02*
X73980497Y-129721321D01*
X73980497Y-129721321D02*
X73909069Y-130007035D01*
X73909069Y-130007035D02*
X73909069Y-130221321D01*
X73909069Y-130221321D02*
X73980497Y-130507035D01*
X73980497Y-130507035D02*
X74051926Y-130649892D01*
X74051926Y-130649892D02*
X74194783Y-130792750D01*
X74194783Y-130792750D02*
X74409069Y-130864178D01*
X74409069Y-130864178D02*
X74551926Y-130864178D01*
X74551926Y-130864178D02*
X74766212Y-130792750D01*
X74766212Y-130792750D02*
X74837640Y-130721321D01*
X74837640Y-130721321D02*
X74837640Y-130221321D01*
X74837640Y-130221321D02*
X74551926Y-130221321D01*
X75480497Y-130864178D02*
X75480497Y-129364178D01*
X75480497Y-129364178D02*
X76337640Y-130864178D01*
X76337640Y-130864178D02*
X76337640Y-129364178D01*
X77051926Y-130864178D02*
X77051926Y-129364178D01*
X77051926Y-129364178D02*
X77409069Y-129364178D01*
X77409069Y-129364178D02*
X77623355Y-129435607D01*
X77623355Y-129435607D02*
X77766212Y-129578464D01*
X77766212Y-129578464D02*
X77837641Y-129721321D01*
X77837641Y-129721321D02*
X77909069Y-130007035D01*
X77909069Y-130007035D02*
X77909069Y-130221321D01*
X77909069Y-130221321D02*
X77837641Y-130507035D01*
X77837641Y-130507035D02*
X77766212Y-130649892D01*
X77766212Y-130649892D02*
X77623355Y-130792750D01*
X77623355Y-130792750D02*
X77409069Y-130864178D01*
X77409069Y-130864178D02*
X77051926Y-130864178D01*
X73766212Y-124284178D02*
X74266212Y-125784178D01*
X74266212Y-125784178D02*
X74766212Y-124284178D01*
X76123354Y-125641321D02*
X76051926Y-125712750D01*
X76051926Y-125712750D02*
X75837640Y-125784178D01*
X75837640Y-125784178D02*
X75694783Y-125784178D01*
X75694783Y-125784178D02*
X75480497Y-125712750D01*
X75480497Y-125712750D02*
X75337640Y-125569892D01*
X75337640Y-125569892D02*
X75266211Y-125427035D01*
X75266211Y-125427035D02*
X75194783Y-125141321D01*
X75194783Y-125141321D02*
X75194783Y-124927035D01*
X75194783Y-124927035D02*
X75266211Y-124641321D01*
X75266211Y-124641321D02*
X75337640Y-124498464D01*
X75337640Y-124498464D02*
X75480497Y-124355607D01*
X75480497Y-124355607D02*
X75694783Y-124284178D01*
X75694783Y-124284178D02*
X75837640Y-124284178D01*
X75837640Y-124284178D02*
X76051926Y-124355607D01*
X76051926Y-124355607D02*
X76123354Y-124427035D01*
X77623354Y-125641321D02*
X77551926Y-125712750D01*
X77551926Y-125712750D02*
X77337640Y-125784178D01*
X77337640Y-125784178D02*
X77194783Y-125784178D01*
X77194783Y-125784178D02*
X76980497Y-125712750D01*
X76980497Y-125712750D02*
X76837640Y-125569892D01*
X76837640Y-125569892D02*
X76766211Y-125427035D01*
X76766211Y-125427035D02*
X76694783Y-125141321D01*
X76694783Y-125141321D02*
X76694783Y-124927035D01*
X76694783Y-124927035D02*
X76766211Y-124641321D01*
X76766211Y-124641321D02*
X76837640Y-124498464D01*
X76837640Y-124498464D02*
X76980497Y-124355607D01*
X76980497Y-124355607D02*
X77194783Y-124284178D01*
X77194783Y-124284178D02*
X77337640Y-124284178D01*
X77337640Y-124284178D02*
X77551926Y-124355607D01*
X77551926Y-124355607D02*
X77623354Y-124427035D01*
X155000000Y-134500000D02*
X155000000Y-137000000D01*
X155000000Y-126000000D02*
X155000000Y-123500000D01*
X155490250Y-133787143D02*
X155561678Y-133572858D01*
X155561678Y-133572858D02*
X155561678Y-133215715D01*
X155561678Y-133215715D02*
X155490250Y-133072858D01*
X155490250Y-133072858D02*
X155418821Y-133001429D01*
X155418821Y-133001429D02*
X155275964Y-132930000D01*
X155275964Y-132930000D02*
X155133107Y-132930000D01*
X155133107Y-132930000D02*
X154990250Y-133001429D01*
X154990250Y-133001429D02*
X154918821Y-133072858D01*
X154918821Y-133072858D02*
X154847392Y-133215715D01*
X154847392Y-133215715D02*
X154775964Y-133501429D01*
X154775964Y-133501429D02*
X154704535Y-133644286D01*
X154704535Y-133644286D02*
X154633107Y-133715715D01*
X154633107Y-133715715D02*
X154490250Y-133787143D01*
X154490250Y-133787143D02*
X154347392Y-133787143D01*
X154347392Y-133787143D02*
X154204535Y-133715715D01*
X154204535Y-133715715D02*
X154133107Y-133644286D01*
X154133107Y-133644286D02*
X154061678Y-133501429D01*
X154061678Y-133501429D02*
X154061678Y-133144286D01*
X154061678Y-133144286D02*
X154133107Y-132930000D01*
X155561678Y-132287144D02*
X154061678Y-132287144D01*
X154775964Y-132287144D02*
X154775964Y-131430001D01*
X155561678Y-131430001D02*
X154061678Y-131430001D01*
X155561678Y-130715715D02*
X154061678Y-130715715D01*
X154775964Y-130001429D02*
X154775964Y-129501429D01*
X155561678Y-129287143D02*
X155561678Y-130001429D01*
X155561678Y-130001429D02*
X154061678Y-130001429D01*
X154061678Y-130001429D02*
X154061678Y-129287143D01*
X155561678Y-127930000D02*
X155561678Y-128644286D01*
X155561678Y-128644286D02*
X154061678Y-128644286D01*
X155561678Y-127430000D02*
X154061678Y-127430000D01*
X154061678Y-127430000D02*
X154061678Y-127072857D01*
X154061678Y-127072857D02*
X154133107Y-126858571D01*
X154133107Y-126858571D02*
X154275964Y-126715714D01*
X154275964Y-126715714D02*
X154418821Y-126644285D01*
X154418821Y-126644285D02*
X154704535Y-126572857D01*
X154704535Y-126572857D02*
X154918821Y-126572857D01*
X154918821Y-126572857D02*
X155204535Y-126644285D01*
X155204535Y-126644285D02*
X155347392Y-126715714D01*
X155347392Y-126715714D02*
X155490250Y-126858571D01*
X155490250Y-126858571D02*
X155561678Y-127072857D01*
X155561678Y-127072857D02*
X155561678Y-127430000D01*
X155000000Y-121500000D02*
X155000000Y-103250000D01*
X155000000Y-82750000D02*
X155000000Y-61500000D01*
X154133107Y-101594285D02*
X154061678Y-101737143D01*
X154061678Y-101737143D02*
X154061678Y-101951428D01*
X154061678Y-101951428D02*
X154133107Y-102165714D01*
X154133107Y-102165714D02*
X154275964Y-102308571D01*
X154275964Y-102308571D02*
X154418821Y-102380000D01*
X154418821Y-102380000D02*
X154704535Y-102451428D01*
X154704535Y-102451428D02*
X154918821Y-102451428D01*
X154918821Y-102451428D02*
X155204535Y-102380000D01*
X155204535Y-102380000D02*
X155347392Y-102308571D01*
X155347392Y-102308571D02*
X155490250Y-102165714D01*
X155490250Y-102165714D02*
X155561678Y-101951428D01*
X155561678Y-101951428D02*
X155561678Y-101808571D01*
X155561678Y-101808571D02*
X155490250Y-101594285D01*
X155490250Y-101594285D02*
X155418821Y-101522857D01*
X155418821Y-101522857D02*
X154918821Y-101522857D01*
X154918821Y-101522857D02*
X154918821Y-101808571D01*
X155561678Y-100880000D02*
X154061678Y-100880000D01*
X154061678Y-100880000D02*
X155561678Y-100022857D01*
X155561678Y-100022857D02*
X154061678Y-100022857D01*
X155561678Y-99308571D02*
X154061678Y-99308571D01*
X154061678Y-99308571D02*
X154061678Y-98951428D01*
X154061678Y-98951428D02*
X154133107Y-98737142D01*
X154133107Y-98737142D02*
X154275964Y-98594285D01*
X154275964Y-98594285D02*
X154418821Y-98522856D01*
X154418821Y-98522856D02*
X154704535Y-98451428D01*
X154704535Y-98451428D02*
X154918821Y-98451428D01*
X154918821Y-98451428D02*
X155204535Y-98522856D01*
X155204535Y-98522856D02*
X155347392Y-98594285D01*
X155347392Y-98594285D02*
X155490250Y-98737142D01*
X155490250Y-98737142D02*
X155561678Y-98951428D01*
X155561678Y-98951428D02*
X155561678Y-99308571D01*
X156133107Y-96237142D02*
X156061678Y-96308571D01*
X156061678Y-96308571D02*
X155847392Y-96451428D01*
X155847392Y-96451428D02*
X155704535Y-96522857D01*
X155704535Y-96522857D02*
X155490250Y-96594285D01*
X155490250Y-96594285D02*
X155133107Y-96665714D01*
X155133107Y-96665714D02*
X154847392Y-96665714D01*
X154847392Y-96665714D02*
X154490250Y-96594285D01*
X154490250Y-96594285D02*
X154275964Y-96522857D01*
X154275964Y-96522857D02*
X154133107Y-96451428D01*
X154133107Y-96451428D02*
X153918821Y-96308571D01*
X153918821Y-96308571D02*
X153847392Y-96237142D01*
X155490250Y-95737142D02*
X155561678Y-95522857D01*
X155561678Y-95522857D02*
X155561678Y-95165714D01*
X155561678Y-95165714D02*
X155490250Y-95022857D01*
X155490250Y-95022857D02*
X155418821Y-94951428D01*
X155418821Y-94951428D02*
X155275964Y-94879999D01*
X155275964Y-94879999D02*
X155133107Y-94879999D01*
X155133107Y-94879999D02*
X154990250Y-94951428D01*
X154990250Y-94951428D02*
X154918821Y-95022857D01*
X154918821Y-95022857D02*
X154847392Y-95165714D01*
X154847392Y-95165714D02*
X154775964Y-95451428D01*
X154775964Y-95451428D02*
X154704535Y-95594285D01*
X154704535Y-95594285D02*
X154633107Y-95665714D01*
X154633107Y-95665714D02*
X154490250Y-95737142D01*
X154490250Y-95737142D02*
X154347392Y-95737142D01*
X154347392Y-95737142D02*
X154204535Y-95665714D01*
X154204535Y-95665714D02*
X154133107Y-95594285D01*
X154133107Y-95594285D02*
X154061678Y-95451428D01*
X154061678Y-95451428D02*
X154061678Y-95094285D01*
X154061678Y-95094285D02*
X154133107Y-94879999D01*
X154775964Y-94237143D02*
X154775964Y-93737143D01*
X155561678Y-93522857D02*
X155561678Y-94237143D01*
X155561678Y-94237143D02*
X154061678Y-94237143D01*
X154061678Y-94237143D02*
X154061678Y-93522857D01*
X155561678Y-92880000D02*
X154061678Y-92880000D01*
X154061678Y-92880000D02*
X155561678Y-92022857D01*
X155561678Y-92022857D02*
X154061678Y-92022857D01*
X155490250Y-91379999D02*
X155561678Y-91165714D01*
X155561678Y-91165714D02*
X155561678Y-90808571D01*
X155561678Y-90808571D02*
X155490250Y-90665714D01*
X155490250Y-90665714D02*
X155418821Y-90594285D01*
X155418821Y-90594285D02*
X155275964Y-90522856D01*
X155275964Y-90522856D02*
X155133107Y-90522856D01*
X155133107Y-90522856D02*
X154990250Y-90594285D01*
X154990250Y-90594285D02*
X154918821Y-90665714D01*
X154918821Y-90665714D02*
X154847392Y-90808571D01*
X154847392Y-90808571D02*
X154775964Y-91094285D01*
X154775964Y-91094285D02*
X154704535Y-91237142D01*
X154704535Y-91237142D02*
X154633107Y-91308571D01*
X154633107Y-91308571D02*
X154490250Y-91379999D01*
X154490250Y-91379999D02*
X154347392Y-91379999D01*
X154347392Y-91379999D02*
X154204535Y-91308571D01*
X154204535Y-91308571D02*
X154133107Y-91237142D01*
X154133107Y-91237142D02*
X154061678Y-91094285D01*
X154061678Y-91094285D02*
X154061678Y-90737142D01*
X154061678Y-90737142D02*
X154133107Y-90522856D01*
X154061678Y-89594285D02*
X154061678Y-89308571D01*
X154061678Y-89308571D02*
X154133107Y-89165714D01*
X154133107Y-89165714D02*
X154275964Y-89022857D01*
X154275964Y-89022857D02*
X154561678Y-88951428D01*
X154561678Y-88951428D02*
X155061678Y-88951428D01*
X155061678Y-88951428D02*
X155347392Y-89022857D01*
X155347392Y-89022857D02*
X155490250Y-89165714D01*
X155490250Y-89165714D02*
X155561678Y-89308571D01*
X155561678Y-89308571D02*
X155561678Y-89594285D01*
X155561678Y-89594285D02*
X155490250Y-89737143D01*
X155490250Y-89737143D02*
X155347392Y-89880000D01*
X155347392Y-89880000D02*
X155061678Y-89951428D01*
X155061678Y-89951428D02*
X154561678Y-89951428D01*
X154561678Y-89951428D02*
X154275964Y-89880000D01*
X154275964Y-89880000D02*
X154133107Y-89737143D01*
X154133107Y-89737143D02*
X154061678Y-89594285D01*
X155561678Y-87451428D02*
X154847392Y-87951428D01*
X155561678Y-88308571D02*
X154061678Y-88308571D01*
X154061678Y-88308571D02*
X154061678Y-87737142D01*
X154061678Y-87737142D02*
X154133107Y-87594285D01*
X154133107Y-87594285D02*
X154204535Y-87522856D01*
X154204535Y-87522856D02*
X154347392Y-87451428D01*
X154347392Y-87451428D02*
X154561678Y-87451428D01*
X154561678Y-87451428D02*
X154704535Y-87522856D01*
X154704535Y-87522856D02*
X154775964Y-87594285D01*
X154775964Y-87594285D02*
X154847392Y-87737142D01*
X154847392Y-87737142D02*
X154847392Y-88308571D01*
X154990250Y-85665714D02*
X154990250Y-84522857D01*
X156133107Y-83951428D02*
X156061678Y-83879999D01*
X156061678Y-83879999D02*
X155847392Y-83737142D01*
X155847392Y-83737142D02*
X155704535Y-83665714D01*
X155704535Y-83665714D02*
X155490250Y-83594285D01*
X155490250Y-83594285D02*
X155133107Y-83522856D01*
X155133107Y-83522856D02*
X154847392Y-83522856D01*
X154847392Y-83522856D02*
X154490250Y-83594285D01*
X154490250Y-83594285D02*
X154275964Y-83665714D01*
X154275964Y-83665714D02*
X154133107Y-83737142D01*
X154133107Y-83737142D02*
X153918821Y-83879999D01*
X153918821Y-83879999D02*
X153847392Y-83951428D01*
X125000000Y-123000000D02*
X125000000Y-103250000D01*
X125000000Y-83000000D02*
X125000000Y-61500000D01*
X124061678Y-102451428D02*
X125561678Y-101951428D01*
X125561678Y-101951428D02*
X124061678Y-101451428D01*
X125418821Y-100094286D02*
X125490250Y-100165714D01*
X125490250Y-100165714D02*
X125561678Y-100380000D01*
X125561678Y-100380000D02*
X125561678Y-100522857D01*
X125561678Y-100522857D02*
X125490250Y-100737143D01*
X125490250Y-100737143D02*
X125347392Y-100880000D01*
X125347392Y-100880000D02*
X125204535Y-100951429D01*
X125204535Y-100951429D02*
X124918821Y-101022857D01*
X124918821Y-101022857D02*
X124704535Y-101022857D01*
X124704535Y-101022857D02*
X124418821Y-100951429D01*
X124418821Y-100951429D02*
X124275964Y-100880000D01*
X124275964Y-100880000D02*
X124133107Y-100737143D01*
X124133107Y-100737143D02*
X124061678Y-100522857D01*
X124061678Y-100522857D02*
X124061678Y-100380000D01*
X124061678Y-100380000D02*
X124133107Y-100165714D01*
X124133107Y-100165714D02*
X124204535Y-100094286D01*
X125418821Y-98594286D02*
X125490250Y-98665714D01*
X125490250Y-98665714D02*
X125561678Y-98880000D01*
X125561678Y-98880000D02*
X125561678Y-99022857D01*
X125561678Y-99022857D02*
X125490250Y-99237143D01*
X125490250Y-99237143D02*
X125347392Y-99380000D01*
X125347392Y-99380000D02*
X125204535Y-99451429D01*
X125204535Y-99451429D02*
X124918821Y-99522857D01*
X124918821Y-99522857D02*
X124704535Y-99522857D01*
X124704535Y-99522857D02*
X124418821Y-99451429D01*
X124418821Y-99451429D02*
X124275964Y-99380000D01*
X124275964Y-99380000D02*
X124133107Y-99237143D01*
X124133107Y-99237143D02*
X124061678Y-99022857D01*
X124061678Y-99022857D02*
X124061678Y-98880000D01*
X124061678Y-98880000D02*
X124133107Y-98665714D01*
X124133107Y-98665714D02*
X124204535Y-98594286D01*
X126133107Y-96380000D02*
X126061678Y-96451429D01*
X126061678Y-96451429D02*
X125847392Y-96594286D01*
X125847392Y-96594286D02*
X125704535Y-96665715D01*
X125704535Y-96665715D02*
X125490250Y-96737143D01*
X125490250Y-96737143D02*
X125133107Y-96808572D01*
X125133107Y-96808572D02*
X124847392Y-96808572D01*
X124847392Y-96808572D02*
X124490250Y-96737143D01*
X124490250Y-96737143D02*
X124275964Y-96665715D01*
X124275964Y-96665715D02*
X124133107Y-96594286D01*
X124133107Y-96594286D02*
X123918821Y-96451429D01*
X123918821Y-96451429D02*
X123847392Y-96380000D01*
X125490250Y-95880000D02*
X125561678Y-95665715D01*
X125561678Y-95665715D02*
X125561678Y-95308572D01*
X125561678Y-95308572D02*
X125490250Y-95165715D01*
X125490250Y-95165715D02*
X125418821Y-95094286D01*
X125418821Y-95094286D02*
X125275964Y-95022857D01*
X125275964Y-95022857D02*
X125133107Y-95022857D01*
X125133107Y-95022857D02*
X124990250Y-95094286D01*
X124990250Y-95094286D02*
X124918821Y-95165715D01*
X124918821Y-95165715D02*
X124847392Y-95308572D01*
X124847392Y-95308572D02*
X124775964Y-95594286D01*
X124775964Y-95594286D02*
X124704535Y-95737143D01*
X124704535Y-95737143D02*
X124633107Y-95808572D01*
X124633107Y-95808572D02*
X124490250Y-95880000D01*
X124490250Y-95880000D02*
X124347392Y-95880000D01*
X124347392Y-95880000D02*
X124204535Y-95808572D01*
X124204535Y-95808572D02*
X124133107Y-95737143D01*
X124133107Y-95737143D02*
X124061678Y-95594286D01*
X124061678Y-95594286D02*
X124061678Y-95237143D01*
X124061678Y-95237143D02*
X124133107Y-95022857D01*
X124775964Y-94380001D02*
X124775964Y-93880001D01*
X125561678Y-93665715D02*
X125561678Y-94380001D01*
X125561678Y-94380001D02*
X124061678Y-94380001D01*
X124061678Y-94380001D02*
X124061678Y-93665715D01*
X125561678Y-93022858D02*
X124061678Y-93022858D01*
X124061678Y-93022858D02*
X125561678Y-92165715D01*
X125561678Y-92165715D02*
X124061678Y-92165715D01*
X125490250Y-91522857D02*
X125561678Y-91308572D01*
X125561678Y-91308572D02*
X125561678Y-90951429D01*
X125561678Y-90951429D02*
X125490250Y-90808572D01*
X125490250Y-90808572D02*
X125418821Y-90737143D01*
X125418821Y-90737143D02*
X125275964Y-90665714D01*
X125275964Y-90665714D02*
X125133107Y-90665714D01*
X125133107Y-90665714D02*
X124990250Y-90737143D01*
X124990250Y-90737143D02*
X124918821Y-90808572D01*
X124918821Y-90808572D02*
X124847392Y-90951429D01*
X124847392Y-90951429D02*
X124775964Y-91237143D01*
X124775964Y-91237143D02*
X124704535Y-91380000D01*
X124704535Y-91380000D02*
X124633107Y-91451429D01*
X124633107Y-91451429D02*
X124490250Y-91522857D01*
X124490250Y-91522857D02*
X124347392Y-91522857D01*
X124347392Y-91522857D02*
X124204535Y-91451429D01*
X124204535Y-91451429D02*
X124133107Y-91380000D01*
X124133107Y-91380000D02*
X124061678Y-91237143D01*
X124061678Y-91237143D02*
X124061678Y-90880000D01*
X124061678Y-90880000D02*
X124133107Y-90665714D01*
X124061678Y-89737143D02*
X124061678Y-89451429D01*
X124061678Y-89451429D02*
X124133107Y-89308572D01*
X124133107Y-89308572D02*
X124275964Y-89165715D01*
X124275964Y-89165715D02*
X124561678Y-89094286D01*
X124561678Y-89094286D02*
X125061678Y-89094286D01*
X125061678Y-89094286D02*
X125347392Y-89165715D01*
X125347392Y-89165715D02*
X125490250Y-89308572D01*
X125490250Y-89308572D02*
X125561678Y-89451429D01*
X125561678Y-89451429D02*
X125561678Y-89737143D01*
X125561678Y-89737143D02*
X125490250Y-89880001D01*
X125490250Y-89880001D02*
X125347392Y-90022858D01*
X125347392Y-90022858D02*
X125061678Y-90094286D01*
X125061678Y-90094286D02*
X124561678Y-90094286D01*
X124561678Y-90094286D02*
X124275964Y-90022858D01*
X124275964Y-90022858D02*
X124133107Y-89880001D01*
X124133107Y-89880001D02*
X124061678Y-89737143D01*
X125561678Y-87594286D02*
X124847392Y-88094286D01*
X125561678Y-88451429D02*
X124061678Y-88451429D01*
X124061678Y-88451429D02*
X124061678Y-87880000D01*
X124061678Y-87880000D02*
X124133107Y-87737143D01*
X124133107Y-87737143D02*
X124204535Y-87665714D01*
X124204535Y-87665714D02*
X124347392Y-87594286D01*
X124347392Y-87594286D02*
X124561678Y-87594286D01*
X124561678Y-87594286D02*
X124704535Y-87665714D01*
X124704535Y-87665714D02*
X124775964Y-87737143D01*
X124775964Y-87737143D02*
X124847392Y-87880000D01*
X124847392Y-87880000D02*
X124847392Y-88451429D01*
X124990250Y-85808572D02*
X124990250Y-84665715D01*
X125561678Y-85237143D02*
X124418821Y-85237143D01*
X126133107Y-84094286D02*
X126061678Y-84022857D01*
X126061678Y-84022857D02*
X125847392Y-83880000D01*
X125847392Y-83880000D02*
X125704535Y-83808572D01*
X125704535Y-83808572D02*
X125490250Y-83737143D01*
X125490250Y-83737143D02*
X125133107Y-83665714D01*
X125133107Y-83665714D02*
X124847392Y-83665714D01*
X124847392Y-83665714D02*
X124490250Y-83737143D01*
X124490250Y-83737143D02*
X124275964Y-83808572D01*
X124275964Y-83808572D02*
X124133107Y-83880000D01*
X124133107Y-83880000D02*
X123918821Y-84022857D01*
X123918821Y-84022857D02*
X123847392Y-84094286D01*
D11*
X93792621Y-93912954D02*
X94659287Y-93912954D01*
X94659287Y-93912954D02*
X94102145Y-95212954D01*
D12*
X97000000Y-62140000D02*
X110000000Y-62140000D01*
X110000000Y-66140000D01*
X97000000Y-66140000D01*
X97000000Y-62140000D01*
G36*
X97000000Y-62140000D02*
G01*
X110000000Y-62140000D01*
X110000000Y-66140000D01*
X97000000Y-66140000D01*
X97000000Y-62140000D01*
G37*
X97000000Y-67220000D02*
X110000000Y-67220000D01*
X110000000Y-71220000D01*
X97000000Y-71220000D01*
X97000000Y-67220000D01*
G36*
X97000000Y-67220000D02*
G01*
X110000000Y-67220000D01*
X110000000Y-71220000D01*
X97000000Y-71220000D01*
X97000000Y-67220000D01*
G37*
X97000000Y-72300000D02*
X110000000Y-72300000D01*
X110000000Y-76300000D01*
X97000000Y-76300000D01*
X97000000Y-72300000D01*
G36*
X97000000Y-72300000D02*
G01*
X110000000Y-72300000D01*
X110000000Y-76300000D01*
X97000000Y-76300000D01*
X97000000Y-72300000D01*
G37*
X97000000Y-77380000D02*
X110000000Y-77380000D01*
X110000000Y-81380000D01*
X97000000Y-81380000D01*
X97000000Y-77380000D01*
G36*
X97000000Y-77380000D02*
G01*
X110000000Y-77380000D01*
X110000000Y-81380000D01*
X97000000Y-81380000D01*
X97000000Y-77380000D01*
G37*
X97000000Y-82460000D02*
X110000000Y-82460000D01*
X110000000Y-86460000D01*
X97000000Y-86460000D01*
X97000000Y-82460000D01*
G36*
X97000000Y-82460000D02*
G01*
X110000000Y-82460000D01*
X110000000Y-86460000D01*
X97000000Y-86460000D01*
X97000000Y-82460000D01*
G37*
X97000000Y-87540000D02*
X110000000Y-87540000D01*
X110000000Y-91540000D01*
X97000000Y-91540000D01*
X97000000Y-87540000D01*
G36*
X97000000Y-87540000D02*
G01*
X110000000Y-87540000D01*
X110000000Y-91540000D01*
X97000000Y-91540000D01*
X97000000Y-87540000D01*
G37*
X97000000Y-92620000D02*
X110000000Y-92620000D01*
X110000000Y-96620000D01*
X97000000Y-96620000D01*
X97000000Y-92620000D01*
G36*
X97000000Y-92620000D02*
G01*
X110000000Y-92620000D01*
X110000000Y-96620000D01*
X97000000Y-96620000D01*
X97000000Y-92620000D01*
G37*
X97000000Y-97700000D02*
X110000000Y-97700000D01*
X110000000Y-101700000D01*
X97000000Y-101700000D01*
X97000000Y-97700000D01*
G36*
X97000000Y-97700000D02*
G01*
X110000000Y-97700000D01*
X110000000Y-101700000D01*
X97000000Y-101700000D01*
X97000000Y-97700000D01*
G37*
X97000000Y-102780000D02*
X110000000Y-102780000D01*
X110000000Y-106780000D01*
X97000000Y-106780000D01*
X97000000Y-102780000D01*
G36*
X97000000Y-102780000D02*
G01*
X110000000Y-102780000D01*
X110000000Y-106780000D01*
X97000000Y-106780000D01*
X97000000Y-102780000D01*
G37*
X97000000Y-107860000D02*
X110000000Y-107860000D01*
X110000000Y-111860000D01*
X97000000Y-111860000D01*
X97000000Y-107860000D01*
G36*
X97000000Y-107860000D02*
G01*
X110000000Y-107860000D01*
X110000000Y-111860000D01*
X97000000Y-111860000D01*
X97000000Y-107860000D01*
G37*
X97000000Y-112940000D02*
X110000000Y-112940000D01*
X110000000Y-116940000D01*
X97000000Y-116940000D01*
X97000000Y-112940000D01*
G36*
X97000000Y-112940000D02*
G01*
X110000000Y-112940000D01*
X110000000Y-116940000D01*
X97000000Y-116940000D01*
X97000000Y-112940000D01*
G37*
X97000000Y-118020000D02*
X110000000Y-118020000D01*
X110000000Y-122020000D01*
X97000000Y-122020000D01*
X97000000Y-118020000D01*
G36*
X97000000Y-118020000D02*
G01*
X110000000Y-118020000D01*
X110000000Y-122020000D01*
X97000000Y-122020000D01*
X97000000Y-118020000D01*
G37*
D11*
X94597383Y-120612954D02*
X93854526Y-120612954D01*
X94225954Y-120612954D02*
X94225954Y-119312954D01*
X94225954Y-119312954D02*
X94102145Y-119498669D01*
X94102145Y-119498669D02*
X93978335Y-119622478D01*
X93978335Y-119622478D02*
X93854526Y-119684383D01*
X95092621Y-119436764D02*
X95154525Y-119374859D01*
X95154525Y-119374859D02*
X95278335Y-119312954D01*
X95278335Y-119312954D02*
X95587859Y-119312954D01*
X95587859Y-119312954D02*
X95711668Y-119374859D01*
X95711668Y-119374859D02*
X95773573Y-119436764D01*
X95773573Y-119436764D02*
X95835478Y-119560573D01*
X95835478Y-119560573D02*
X95835478Y-119684383D01*
X95835478Y-119684383D02*
X95773573Y-119870097D01*
X95773573Y-119870097D02*
X95030716Y-120612954D01*
X95030716Y-120612954D02*
X95835478Y-120612954D01*
X94597383Y-115532954D02*
X93854526Y-115532954D01*
X94225954Y-115532954D02*
X94225954Y-114232954D01*
X94225954Y-114232954D02*
X94102145Y-114418669D01*
X94102145Y-114418669D02*
X93978335Y-114542478D01*
X93978335Y-114542478D02*
X93854526Y-114604383D01*
X95835478Y-115532954D02*
X95092621Y-115532954D01*
X95464049Y-115532954D02*
X95464049Y-114232954D01*
X95464049Y-114232954D02*
X95340240Y-114418669D01*
X95340240Y-114418669D02*
X95216430Y-114542478D01*
X95216430Y-114542478D02*
X95092621Y-114604383D01*
X94597383Y-110452954D02*
X93854526Y-110452954D01*
X94225954Y-110452954D02*
X94225954Y-109152954D01*
X94225954Y-109152954D02*
X94102145Y-109338669D01*
X94102145Y-109338669D02*
X93978335Y-109462478D01*
X93978335Y-109462478D02*
X93854526Y-109524383D01*
X95402144Y-109152954D02*
X95525954Y-109152954D01*
X95525954Y-109152954D02*
X95649763Y-109214859D01*
X95649763Y-109214859D02*
X95711668Y-109276764D01*
X95711668Y-109276764D02*
X95773573Y-109400573D01*
X95773573Y-109400573D02*
X95835478Y-109648192D01*
X95835478Y-109648192D02*
X95835478Y-109957716D01*
X95835478Y-109957716D02*
X95773573Y-110205335D01*
X95773573Y-110205335D02*
X95711668Y-110329145D01*
X95711668Y-110329145D02*
X95649763Y-110391050D01*
X95649763Y-110391050D02*
X95525954Y-110452954D01*
X95525954Y-110452954D02*
X95402144Y-110452954D01*
X95402144Y-110452954D02*
X95278335Y-110391050D01*
X95278335Y-110391050D02*
X95216430Y-110329145D01*
X95216430Y-110329145D02*
X95154525Y-110205335D01*
X95154525Y-110205335D02*
X95092621Y-109957716D01*
X95092621Y-109957716D02*
X95092621Y-109648192D01*
X95092621Y-109648192D02*
X95154525Y-109400573D01*
X95154525Y-109400573D02*
X95216430Y-109276764D01*
X95216430Y-109276764D02*
X95278335Y-109214859D01*
X95278335Y-109214859D02*
X95402144Y-109152954D01*
X93978335Y-105372954D02*
X94225954Y-105372954D01*
X94225954Y-105372954D02*
X94349764Y-105311050D01*
X94349764Y-105311050D02*
X94411668Y-105249145D01*
X94411668Y-105249145D02*
X94535478Y-105063430D01*
X94535478Y-105063430D02*
X94597383Y-104815811D01*
X94597383Y-104815811D02*
X94597383Y-104320573D01*
X94597383Y-104320573D02*
X94535478Y-104196764D01*
X94535478Y-104196764D02*
X94473573Y-104134859D01*
X94473573Y-104134859D02*
X94349764Y-104072954D01*
X94349764Y-104072954D02*
X94102145Y-104072954D01*
X94102145Y-104072954D02*
X93978335Y-104134859D01*
X93978335Y-104134859D02*
X93916430Y-104196764D01*
X93916430Y-104196764D02*
X93854526Y-104320573D01*
X93854526Y-104320573D02*
X93854526Y-104630097D01*
X93854526Y-104630097D02*
X93916430Y-104753907D01*
X93916430Y-104753907D02*
X93978335Y-104815811D01*
X93978335Y-104815811D02*
X94102145Y-104877716D01*
X94102145Y-104877716D02*
X94349764Y-104877716D01*
X94349764Y-104877716D02*
X94473573Y-104815811D01*
X94473573Y-104815811D02*
X94535478Y-104753907D01*
X94535478Y-104753907D02*
X94597383Y-104630097D01*
X94102145Y-99550097D02*
X93978335Y-99488192D01*
X93978335Y-99488192D02*
X93916430Y-99426288D01*
X93916430Y-99426288D02*
X93854526Y-99302478D01*
X93854526Y-99302478D02*
X93854526Y-99240573D01*
X93854526Y-99240573D02*
X93916430Y-99116764D01*
X93916430Y-99116764D02*
X93978335Y-99054859D01*
X93978335Y-99054859D02*
X94102145Y-98992954D01*
X94102145Y-98992954D02*
X94349764Y-98992954D01*
X94349764Y-98992954D02*
X94473573Y-99054859D01*
X94473573Y-99054859D02*
X94535478Y-99116764D01*
X94535478Y-99116764D02*
X94597383Y-99240573D01*
X94597383Y-99240573D02*
X94597383Y-99302478D01*
X94597383Y-99302478D02*
X94535478Y-99426288D01*
X94535478Y-99426288D02*
X94473573Y-99488192D01*
X94473573Y-99488192D02*
X94349764Y-99550097D01*
X94349764Y-99550097D02*
X94102145Y-99550097D01*
X94102145Y-99550097D02*
X93978335Y-99612002D01*
X93978335Y-99612002D02*
X93916430Y-99673907D01*
X93916430Y-99673907D02*
X93854526Y-99797716D01*
X93854526Y-99797716D02*
X93854526Y-100045335D01*
X93854526Y-100045335D02*
X93916430Y-100169145D01*
X93916430Y-100169145D02*
X93978335Y-100231050D01*
X93978335Y-100231050D02*
X94102145Y-100292954D01*
X94102145Y-100292954D02*
X94349764Y-100292954D01*
X94349764Y-100292954D02*
X94473573Y-100231050D01*
X94473573Y-100231050D02*
X94535478Y-100169145D01*
X94535478Y-100169145D02*
X94597383Y-100045335D01*
X94597383Y-100045335D02*
X94597383Y-99797716D01*
X94597383Y-99797716D02*
X94535478Y-99673907D01*
X94535478Y-99673907D02*
X94473573Y-99612002D01*
X94473573Y-99612002D02*
X94349764Y-99550097D01*
X94473573Y-88832954D02*
X94225954Y-88832954D01*
X94225954Y-88832954D02*
X94102145Y-88894859D01*
X94102145Y-88894859D02*
X94040240Y-88956764D01*
X94040240Y-88956764D02*
X93916430Y-89142478D01*
X93916430Y-89142478D02*
X93854526Y-89390097D01*
X93854526Y-89390097D02*
X93854526Y-89885335D01*
X93854526Y-89885335D02*
X93916430Y-90009145D01*
X93916430Y-90009145D02*
X93978335Y-90071050D01*
X93978335Y-90071050D02*
X94102145Y-90132954D01*
X94102145Y-90132954D02*
X94349764Y-90132954D01*
X94349764Y-90132954D02*
X94473573Y-90071050D01*
X94473573Y-90071050D02*
X94535478Y-90009145D01*
X94535478Y-90009145D02*
X94597383Y-89885335D01*
X94597383Y-89885335D02*
X94597383Y-89575811D01*
X94597383Y-89575811D02*
X94535478Y-89452002D01*
X94535478Y-89452002D02*
X94473573Y-89390097D01*
X94473573Y-89390097D02*
X94349764Y-89328192D01*
X94349764Y-89328192D02*
X94102145Y-89328192D01*
X94102145Y-89328192D02*
X93978335Y-89390097D01*
X93978335Y-89390097D02*
X93916430Y-89452002D01*
X93916430Y-89452002D02*
X93854526Y-89575811D01*
X94535478Y-83752954D02*
X93916430Y-83752954D01*
X93916430Y-83752954D02*
X93854526Y-84372002D01*
X93854526Y-84372002D02*
X93916430Y-84310097D01*
X93916430Y-84310097D02*
X94040240Y-84248192D01*
X94040240Y-84248192D02*
X94349764Y-84248192D01*
X94349764Y-84248192D02*
X94473573Y-84310097D01*
X94473573Y-84310097D02*
X94535478Y-84372002D01*
X94535478Y-84372002D02*
X94597383Y-84495811D01*
X94597383Y-84495811D02*
X94597383Y-84805335D01*
X94597383Y-84805335D02*
X94535478Y-84929145D01*
X94535478Y-84929145D02*
X94473573Y-84991050D01*
X94473573Y-84991050D02*
X94349764Y-85052954D01*
X94349764Y-85052954D02*
X94040240Y-85052954D01*
X94040240Y-85052954D02*
X93916430Y-84991050D01*
X93916430Y-84991050D02*
X93854526Y-84929145D01*
X94473573Y-79106288D02*
X94473573Y-79972954D01*
X94164049Y-78611050D02*
X93854526Y-79539621D01*
X93854526Y-79539621D02*
X94659287Y-79539621D01*
X93792621Y-73592954D02*
X94597383Y-73592954D01*
X94597383Y-73592954D02*
X94164049Y-74088192D01*
X94164049Y-74088192D02*
X94349764Y-74088192D01*
X94349764Y-74088192D02*
X94473573Y-74150097D01*
X94473573Y-74150097D02*
X94535478Y-74212002D01*
X94535478Y-74212002D02*
X94597383Y-74335811D01*
X94597383Y-74335811D02*
X94597383Y-74645335D01*
X94597383Y-74645335D02*
X94535478Y-74769145D01*
X94535478Y-74769145D02*
X94473573Y-74831050D01*
X94473573Y-74831050D02*
X94349764Y-74892954D01*
X94349764Y-74892954D02*
X93978335Y-74892954D01*
X93978335Y-74892954D02*
X93854526Y-74831050D01*
X93854526Y-74831050D02*
X93792621Y-74769145D01*
X93854526Y-68636764D02*
X93916430Y-68574859D01*
X93916430Y-68574859D02*
X94040240Y-68512954D01*
X94040240Y-68512954D02*
X94349764Y-68512954D01*
X94349764Y-68512954D02*
X94473573Y-68574859D01*
X94473573Y-68574859D02*
X94535478Y-68636764D01*
X94535478Y-68636764D02*
X94597383Y-68760573D01*
X94597383Y-68760573D02*
X94597383Y-68884383D01*
X94597383Y-68884383D02*
X94535478Y-69070097D01*
X94535478Y-69070097D02*
X93792621Y-69812954D01*
X93792621Y-69812954D02*
X94597383Y-69812954D01*
X94597383Y-64732954D02*
X93854526Y-64732954D01*
X94225954Y-64732954D02*
X94225954Y-63432954D01*
X94225954Y-63432954D02*
X94102145Y-63618669D01*
X94102145Y-63618669D02*
X93978335Y-63742478D01*
X93978335Y-63742478D02*
X93854526Y-63804383D01*
D13*
X86166666Y-59454819D02*
X86166666Y-60169104D01*
X86166666Y-60169104D02*
X86119047Y-60311961D01*
X86119047Y-60311961D02*
X86023809Y-60407200D01*
X86023809Y-60407200D02*
X85880952Y-60454819D01*
X85880952Y-60454819D02*
X85785714Y-60454819D01*
X86547619Y-59454819D02*
X87166666Y-59454819D01*
X87166666Y-59454819D02*
X86833333Y-59835771D01*
X86833333Y-59835771D02*
X86976190Y-59835771D01*
X86976190Y-59835771D02*
X87071428Y-59883390D01*
X87071428Y-59883390D02*
X87119047Y-59931009D01*
X87119047Y-59931009D02*
X87166666Y-60026247D01*
X87166666Y-60026247D02*
X87166666Y-60264342D01*
X87166666Y-60264342D02*
X87119047Y-60359580D01*
X87119047Y-60359580D02*
X87071428Y-60407200D01*
X87071428Y-60407200D02*
X86976190Y-60454819D01*
X86976190Y-60454819D02*
X86690476Y-60454819D01*
X86690476Y-60454819D02*
X86595238Y-60407200D01*
X86595238Y-60407200D02*
X86547619Y-60359580D01*
X76333333Y-103524819D02*
X76000000Y-103048628D01*
X75761905Y-103524819D02*
X75761905Y-102524819D01*
X75761905Y-102524819D02*
X76142857Y-102524819D01*
X76142857Y-102524819D02*
X76238095Y-102572438D01*
X76238095Y-102572438D02*
X76285714Y-102620057D01*
X76285714Y-102620057D02*
X76333333Y-102715295D01*
X76333333Y-102715295D02*
X76333333Y-102858152D01*
X76333333Y-102858152D02*
X76285714Y-102953390D01*
X76285714Y-102953390D02*
X76238095Y-103001009D01*
X76238095Y-103001009D02*
X76142857Y-103048628D01*
X76142857Y-103048628D02*
X75761905Y-103048628D01*
X76809524Y-103524819D02*
X77000000Y-103524819D01*
X77000000Y-103524819D02*
X77095238Y-103477200D01*
X77095238Y-103477200D02*
X77142857Y-103429580D01*
X77142857Y-103429580D02*
X77238095Y-103286723D01*
X77238095Y-103286723D02*
X77285714Y-103096247D01*
X77285714Y-103096247D02*
X77285714Y-102715295D01*
X77285714Y-102715295D02*
X77238095Y-102620057D01*
X77238095Y-102620057D02*
X77190476Y-102572438D01*
X77190476Y-102572438D02*
X77095238Y-102524819D01*
X77095238Y-102524819D02*
X76904762Y-102524819D01*
X76904762Y-102524819D02*
X76809524Y-102572438D01*
X76809524Y-102572438D02*
X76761905Y-102620057D01*
X76761905Y-102620057D02*
X76714286Y-102715295D01*
X76714286Y-102715295D02*
X76714286Y-102953390D01*
X76714286Y-102953390D02*
X76761905Y-103048628D01*
X76761905Y-103048628D02*
X76809524Y-103096247D01*
X76809524Y-103096247D02*
X76904762Y-103143866D01*
X76904762Y-103143866D02*
X77095238Y-103143866D01*
X77095238Y-103143866D02*
X77190476Y-103096247D01*
X77190476Y-103096247D02*
X77238095Y-103048628D01*
X77238095Y-103048628D02*
X77285714Y-102953390D01*
X68166666Y-59454819D02*
X68166666Y-60169104D01*
X68166666Y-60169104D02*
X68119047Y-60311961D01*
X68119047Y-60311961D02*
X68023809Y-60407200D01*
X68023809Y-60407200D02*
X67880952Y-60454819D01*
X67880952Y-60454819D02*
X67785714Y-60454819D01*
X69166666Y-60454819D02*
X68595238Y-60454819D01*
X68880952Y-60454819D02*
X68880952Y-59454819D01*
X68880952Y-59454819D02*
X68785714Y-59597676D01*
X68785714Y-59597676D02*
X68690476Y-59692914D01*
X68690476Y-59692914D02*
X68595238Y-59740533D01*
X116166666Y-59454819D02*
X116166666Y-60169104D01*
X116166666Y-60169104D02*
X116119047Y-60311961D01*
X116119047Y-60311961D02*
X116023809Y-60407200D01*
X116023809Y-60407200D02*
X115880952Y-60454819D01*
X115880952Y-60454819D02*
X115785714Y-60454819D01*
X116595238Y-59550057D02*
X116642857Y-59502438D01*
X116642857Y-59502438D02*
X116738095Y-59454819D01*
X116738095Y-59454819D02*
X116976190Y-59454819D01*
X116976190Y-59454819D02*
X117071428Y-59502438D01*
X117071428Y-59502438D02*
X117119047Y-59550057D01*
X117119047Y-59550057D02*
X117166666Y-59645295D01*
X117166666Y-59645295D02*
X117166666Y-59740533D01*
X117166666Y-59740533D02*
X117119047Y-59883390D01*
X117119047Y-59883390D02*
X116547619Y-60454819D01*
X116547619Y-60454819D02*
X117166666Y-60454819D01*
X75857142Y-119024819D02*
X75523809Y-118548628D01*
X75285714Y-119024819D02*
X75285714Y-118024819D01*
X75285714Y-118024819D02*
X75666666Y-118024819D01*
X75666666Y-118024819D02*
X75761904Y-118072438D01*
X75761904Y-118072438D02*
X75809523Y-118120057D01*
X75809523Y-118120057D02*
X75857142Y-118215295D01*
X75857142Y-118215295D02*
X75857142Y-118358152D01*
X75857142Y-118358152D02*
X75809523Y-118453390D01*
X75809523Y-118453390D02*
X75761904Y-118501009D01*
X75761904Y-118501009D02*
X75666666Y-118548628D01*
X75666666Y-118548628D02*
X75285714Y-118548628D01*
X76809523Y-119024819D02*
X76238095Y-119024819D01*
X76523809Y-119024819D02*
X76523809Y-118024819D01*
X76523809Y-118024819D02*
X76428571Y-118167676D01*
X76428571Y-118167676D02*
X76333333Y-118262914D01*
X76333333Y-118262914D02*
X76238095Y-118310533D01*
X77190476Y-118120057D02*
X77238095Y-118072438D01*
X77238095Y-118072438D02*
X77333333Y-118024819D01*
X77333333Y-118024819D02*
X77571428Y-118024819D01*
X77571428Y-118024819D02*
X77666666Y-118072438D01*
X77666666Y-118072438D02*
X77714285Y-118120057D01*
X77714285Y-118120057D02*
X77761904Y-118215295D01*
X77761904Y-118215295D02*
X77761904Y-118310533D01*
X77761904Y-118310533D02*
X77714285Y-118453390D01*
X77714285Y-118453390D02*
X77142857Y-119024819D01*
X77142857Y-119024819D02*
X77761904Y-119024819D01*
X75857142Y-114024819D02*
X75523809Y-113548628D01*
X75285714Y-114024819D02*
X75285714Y-113024819D01*
X75285714Y-113024819D02*
X75666666Y-113024819D01*
X75666666Y-113024819D02*
X75761904Y-113072438D01*
X75761904Y-113072438D02*
X75809523Y-113120057D01*
X75809523Y-113120057D02*
X75857142Y-113215295D01*
X75857142Y-113215295D02*
X75857142Y-113358152D01*
X75857142Y-113358152D02*
X75809523Y-113453390D01*
X75809523Y-113453390D02*
X75761904Y-113501009D01*
X75761904Y-113501009D02*
X75666666Y-113548628D01*
X75666666Y-113548628D02*
X75285714Y-113548628D01*
X76809523Y-114024819D02*
X76238095Y-114024819D01*
X76523809Y-114024819D02*
X76523809Y-113024819D01*
X76523809Y-113024819D02*
X76428571Y-113167676D01*
X76428571Y-113167676D02*
X76333333Y-113262914D01*
X76333333Y-113262914D02*
X76238095Y-113310533D01*
X77761904Y-114024819D02*
X77190476Y-114024819D01*
X77476190Y-114024819D02*
X77476190Y-113024819D01*
X77476190Y-113024819D02*
X77380952Y-113167676D01*
X77380952Y-113167676D02*
X77285714Y-113262914D01*
X77285714Y-113262914D02*
X77190476Y-113310533D01*
X75857142Y-109024819D02*
X75523809Y-108548628D01*
X75285714Y-109024819D02*
X75285714Y-108024819D01*
X75285714Y-108024819D02*
X75666666Y-108024819D01*
X75666666Y-108024819D02*
X75761904Y-108072438D01*
X75761904Y-108072438D02*
X75809523Y-108120057D01*
X75809523Y-108120057D02*
X75857142Y-108215295D01*
X75857142Y-108215295D02*
X75857142Y-108358152D01*
X75857142Y-108358152D02*
X75809523Y-108453390D01*
X75809523Y-108453390D02*
X75761904Y-108501009D01*
X75761904Y-108501009D02*
X75666666Y-108548628D01*
X75666666Y-108548628D02*
X75285714Y-108548628D01*
X76809523Y-109024819D02*
X76238095Y-109024819D01*
X76523809Y-109024819D02*
X76523809Y-108024819D01*
X76523809Y-108024819D02*
X76428571Y-108167676D01*
X76428571Y-108167676D02*
X76333333Y-108262914D01*
X76333333Y-108262914D02*
X76238095Y-108310533D01*
X77428571Y-108024819D02*
X77523809Y-108024819D01*
X77523809Y-108024819D02*
X77619047Y-108072438D01*
X77619047Y-108072438D02*
X77666666Y-108120057D01*
X77666666Y-108120057D02*
X77714285Y-108215295D01*
X77714285Y-108215295D02*
X77761904Y-108405771D01*
X77761904Y-108405771D02*
X77761904Y-108643866D01*
X77761904Y-108643866D02*
X77714285Y-108834342D01*
X77714285Y-108834342D02*
X77666666Y-108929580D01*
X77666666Y-108929580D02*
X77619047Y-108977200D01*
X77619047Y-108977200D02*
X77523809Y-109024819D01*
X77523809Y-109024819D02*
X77428571Y-109024819D01*
X77428571Y-109024819D02*
X77333333Y-108977200D01*
X77333333Y-108977200D02*
X77285714Y-108929580D01*
X77285714Y-108929580D02*
X77238095Y-108834342D01*
X77238095Y-108834342D02*
X77190476Y-108643866D01*
X77190476Y-108643866D02*
X77190476Y-108405771D01*
X77190476Y-108405771D02*
X77238095Y-108215295D01*
X77238095Y-108215295D02*
X77285714Y-108120057D01*
X77285714Y-108120057D02*
X77333333Y-108072438D01*
X77333333Y-108072438D02*
X77428571Y-108024819D01*
X76333333Y-98524819D02*
X76000000Y-98048628D01*
X75761905Y-98524819D02*
X75761905Y-97524819D01*
X75761905Y-97524819D02*
X76142857Y-97524819D01*
X76142857Y-97524819D02*
X76238095Y-97572438D01*
X76238095Y-97572438D02*
X76285714Y-97620057D01*
X76285714Y-97620057D02*
X76333333Y-97715295D01*
X76333333Y-97715295D02*
X76333333Y-97858152D01*
X76333333Y-97858152D02*
X76285714Y-97953390D01*
X76285714Y-97953390D02*
X76238095Y-98001009D01*
X76238095Y-98001009D02*
X76142857Y-98048628D01*
X76142857Y-98048628D02*
X75761905Y-98048628D01*
X76904762Y-97953390D02*
X76809524Y-97905771D01*
X76809524Y-97905771D02*
X76761905Y-97858152D01*
X76761905Y-97858152D02*
X76714286Y-97762914D01*
X76714286Y-97762914D02*
X76714286Y-97715295D01*
X76714286Y-97715295D02*
X76761905Y-97620057D01*
X76761905Y-97620057D02*
X76809524Y-97572438D01*
X76809524Y-97572438D02*
X76904762Y-97524819D01*
X76904762Y-97524819D02*
X77095238Y-97524819D01*
X77095238Y-97524819D02*
X77190476Y-97572438D01*
X77190476Y-97572438D02*
X77238095Y-97620057D01*
X77238095Y-97620057D02*
X77285714Y-97715295D01*
X77285714Y-97715295D02*
X77285714Y-97762914D01*
X77285714Y-97762914D02*
X77238095Y-97858152D01*
X77238095Y-97858152D02*
X77190476Y-97905771D01*
X77190476Y-97905771D02*
X77095238Y-97953390D01*
X77095238Y-97953390D02*
X76904762Y-97953390D01*
X76904762Y-97953390D02*
X76809524Y-98001009D01*
X76809524Y-98001009D02*
X76761905Y-98048628D01*
X76761905Y-98048628D02*
X76714286Y-98143866D01*
X76714286Y-98143866D02*
X76714286Y-98334342D01*
X76714286Y-98334342D02*
X76761905Y-98429580D01*
X76761905Y-98429580D02*
X76809524Y-98477200D01*
X76809524Y-98477200D02*
X76904762Y-98524819D01*
X76904762Y-98524819D02*
X77095238Y-98524819D01*
X77095238Y-98524819D02*
X77190476Y-98477200D01*
X77190476Y-98477200D02*
X77238095Y-98429580D01*
X77238095Y-98429580D02*
X77285714Y-98334342D01*
X77285714Y-98334342D02*
X77285714Y-98143866D01*
X77285714Y-98143866D02*
X77238095Y-98048628D01*
X77238095Y-98048628D02*
X77190476Y-98001009D01*
X77190476Y-98001009D02*
X77095238Y-97953390D01*
X76333333Y-93524819D02*
X76000000Y-93048628D01*
X75761905Y-93524819D02*
X75761905Y-92524819D01*
X75761905Y-92524819D02*
X76142857Y-92524819D01*
X76142857Y-92524819D02*
X76238095Y-92572438D01*
X76238095Y-92572438D02*
X76285714Y-92620057D01*
X76285714Y-92620057D02*
X76333333Y-92715295D01*
X76333333Y-92715295D02*
X76333333Y-92858152D01*
X76333333Y-92858152D02*
X76285714Y-92953390D01*
X76285714Y-92953390D02*
X76238095Y-93001009D01*
X76238095Y-93001009D02*
X76142857Y-93048628D01*
X76142857Y-93048628D02*
X75761905Y-93048628D01*
X76666667Y-92524819D02*
X77333333Y-92524819D01*
X77333333Y-92524819D02*
X76904762Y-93524819D01*
X76333333Y-88524819D02*
X76000000Y-88048628D01*
X75761905Y-88524819D02*
X75761905Y-87524819D01*
X75761905Y-87524819D02*
X76142857Y-87524819D01*
X76142857Y-87524819D02*
X76238095Y-87572438D01*
X76238095Y-87572438D02*
X76285714Y-87620057D01*
X76285714Y-87620057D02*
X76333333Y-87715295D01*
X76333333Y-87715295D02*
X76333333Y-87858152D01*
X76333333Y-87858152D02*
X76285714Y-87953390D01*
X76285714Y-87953390D02*
X76238095Y-88001009D01*
X76238095Y-88001009D02*
X76142857Y-88048628D01*
X76142857Y-88048628D02*
X75761905Y-88048628D01*
X77190476Y-87524819D02*
X77000000Y-87524819D01*
X77000000Y-87524819D02*
X76904762Y-87572438D01*
X76904762Y-87572438D02*
X76857143Y-87620057D01*
X76857143Y-87620057D02*
X76761905Y-87762914D01*
X76761905Y-87762914D02*
X76714286Y-87953390D01*
X76714286Y-87953390D02*
X76714286Y-88334342D01*
X76714286Y-88334342D02*
X76761905Y-88429580D01*
X76761905Y-88429580D02*
X76809524Y-88477200D01*
X76809524Y-88477200D02*
X76904762Y-88524819D01*
X76904762Y-88524819D02*
X77095238Y-88524819D01*
X77095238Y-88524819D02*
X77190476Y-88477200D01*
X77190476Y-88477200D02*
X77238095Y-88429580D01*
X77238095Y-88429580D02*
X77285714Y-88334342D01*
X77285714Y-88334342D02*
X77285714Y-88096247D01*
X77285714Y-88096247D02*
X77238095Y-88001009D01*
X77238095Y-88001009D02*
X77190476Y-87953390D01*
X77190476Y-87953390D02*
X77095238Y-87905771D01*
X77095238Y-87905771D02*
X76904762Y-87905771D01*
X76904762Y-87905771D02*
X76809524Y-87953390D01*
X76809524Y-87953390D02*
X76761905Y-88001009D01*
X76761905Y-88001009D02*
X76714286Y-88096247D01*
X76333333Y-83024819D02*
X76000000Y-82548628D01*
X75761905Y-83024819D02*
X75761905Y-82024819D01*
X75761905Y-82024819D02*
X76142857Y-82024819D01*
X76142857Y-82024819D02*
X76238095Y-82072438D01*
X76238095Y-82072438D02*
X76285714Y-82120057D01*
X76285714Y-82120057D02*
X76333333Y-82215295D01*
X76333333Y-82215295D02*
X76333333Y-82358152D01*
X76333333Y-82358152D02*
X76285714Y-82453390D01*
X76285714Y-82453390D02*
X76238095Y-82501009D01*
X76238095Y-82501009D02*
X76142857Y-82548628D01*
X76142857Y-82548628D02*
X75761905Y-82548628D01*
X77238095Y-82024819D02*
X76761905Y-82024819D01*
X76761905Y-82024819D02*
X76714286Y-82501009D01*
X76714286Y-82501009D02*
X76761905Y-82453390D01*
X76761905Y-82453390D02*
X76857143Y-82405771D01*
X76857143Y-82405771D02*
X77095238Y-82405771D01*
X77095238Y-82405771D02*
X77190476Y-82453390D01*
X77190476Y-82453390D02*
X77238095Y-82501009D01*
X77238095Y-82501009D02*
X77285714Y-82596247D01*
X77285714Y-82596247D02*
X77285714Y-82834342D01*
X77285714Y-82834342D02*
X77238095Y-82929580D01*
X77238095Y-82929580D02*
X77190476Y-82977200D01*
X77190476Y-82977200D02*
X77095238Y-83024819D01*
X77095238Y-83024819D02*
X76857143Y-83024819D01*
X76857143Y-83024819D02*
X76761905Y-82977200D01*
X76761905Y-82977200D02*
X76714286Y-82929580D01*
X76333333Y-78024819D02*
X76000000Y-77548628D01*
X75761905Y-78024819D02*
X75761905Y-77024819D01*
X75761905Y-77024819D02*
X76142857Y-77024819D01*
X76142857Y-77024819D02*
X76238095Y-77072438D01*
X76238095Y-77072438D02*
X76285714Y-77120057D01*
X76285714Y-77120057D02*
X76333333Y-77215295D01*
X76333333Y-77215295D02*
X76333333Y-77358152D01*
X76333333Y-77358152D02*
X76285714Y-77453390D01*
X76285714Y-77453390D02*
X76238095Y-77501009D01*
X76238095Y-77501009D02*
X76142857Y-77548628D01*
X76142857Y-77548628D02*
X75761905Y-77548628D01*
X77190476Y-77358152D02*
X77190476Y-78024819D01*
X76952381Y-76977200D02*
X76714286Y-77691485D01*
X76714286Y-77691485D02*
X77333333Y-77691485D01*
X76333333Y-73024819D02*
X76000000Y-72548628D01*
X75761905Y-73024819D02*
X75761905Y-72024819D01*
X75761905Y-72024819D02*
X76142857Y-72024819D01*
X76142857Y-72024819D02*
X76238095Y-72072438D01*
X76238095Y-72072438D02*
X76285714Y-72120057D01*
X76285714Y-72120057D02*
X76333333Y-72215295D01*
X76333333Y-72215295D02*
X76333333Y-72358152D01*
X76333333Y-72358152D02*
X76285714Y-72453390D01*
X76285714Y-72453390D02*
X76238095Y-72501009D01*
X76238095Y-72501009D02*
X76142857Y-72548628D01*
X76142857Y-72548628D02*
X75761905Y-72548628D01*
X76666667Y-72024819D02*
X77285714Y-72024819D01*
X77285714Y-72024819D02*
X76952381Y-72405771D01*
X76952381Y-72405771D02*
X77095238Y-72405771D01*
X77095238Y-72405771D02*
X77190476Y-72453390D01*
X77190476Y-72453390D02*
X77238095Y-72501009D01*
X77238095Y-72501009D02*
X77285714Y-72596247D01*
X77285714Y-72596247D02*
X77285714Y-72834342D01*
X77285714Y-72834342D02*
X77238095Y-72929580D01*
X77238095Y-72929580D02*
X77190476Y-72977200D01*
X77190476Y-72977200D02*
X77095238Y-73024819D01*
X77095238Y-73024819D02*
X76809524Y-73024819D01*
X76809524Y-73024819D02*
X76714286Y-72977200D01*
X76714286Y-72977200D02*
X76666667Y-72929580D01*
X76333333Y-68024819D02*
X76000000Y-67548628D01*
X75761905Y-68024819D02*
X75761905Y-67024819D01*
X75761905Y-67024819D02*
X76142857Y-67024819D01*
X76142857Y-67024819D02*
X76238095Y-67072438D01*
X76238095Y-67072438D02*
X76285714Y-67120057D01*
X76285714Y-67120057D02*
X76333333Y-67215295D01*
X76333333Y-67215295D02*
X76333333Y-67358152D01*
X76333333Y-67358152D02*
X76285714Y-67453390D01*
X76285714Y-67453390D02*
X76238095Y-67501009D01*
X76238095Y-67501009D02*
X76142857Y-67548628D01*
X76142857Y-67548628D02*
X75761905Y-67548628D01*
X76714286Y-67120057D02*
X76761905Y-67072438D01*
X76761905Y-67072438D02*
X76857143Y-67024819D01*
X76857143Y-67024819D02*
X77095238Y-67024819D01*
X77095238Y-67024819D02*
X77190476Y-67072438D01*
X77190476Y-67072438D02*
X77238095Y-67120057D01*
X77238095Y-67120057D02*
X77285714Y-67215295D01*
X77285714Y-67215295D02*
X77285714Y-67310533D01*
X77285714Y-67310533D02*
X77238095Y-67453390D01*
X77238095Y-67453390D02*
X76666667Y-68024819D01*
X76666667Y-68024819D02*
X77285714Y-68024819D01*
X76333333Y-63024819D02*
X76000000Y-62548628D01*
X75761905Y-63024819D02*
X75761905Y-62024819D01*
X75761905Y-62024819D02*
X76142857Y-62024819D01*
X76142857Y-62024819D02*
X76238095Y-62072438D01*
X76238095Y-62072438D02*
X76285714Y-62120057D01*
X76285714Y-62120057D02*
X76333333Y-62215295D01*
X76333333Y-62215295D02*
X76333333Y-62358152D01*
X76333333Y-62358152D02*
X76285714Y-62453390D01*
X76285714Y-62453390D02*
X76238095Y-62501009D01*
X76238095Y-62501009D02*
X76142857Y-62548628D01*
X76142857Y-62548628D02*
X75761905Y-62548628D01*
X77285714Y-63024819D02*
X76714286Y-63024819D01*
X77000000Y-63024819D02*
X77000000Y-62024819D01*
X77000000Y-62024819D02*
X76904762Y-62167676D01*
X76904762Y-62167676D02*
X76809524Y-62262914D01*
X76809524Y-62262914D02*
X76714286Y-62310533D01*
X146166666Y-59454819D02*
X146166666Y-60169104D01*
X146166666Y-60169104D02*
X146119047Y-60311961D01*
X146119047Y-60311961D02*
X146023809Y-60407200D01*
X146023809Y-60407200D02*
X145880952Y-60454819D01*
X145880952Y-60454819D02*
X145785714Y-60454819D01*
X147071428Y-59788152D02*
X147071428Y-60454819D01*
X146833333Y-59407200D02*
X146595238Y-60121485D01*
X146595238Y-60121485D02*
X147214285Y-60121485D01*
X72857142Y-121859580D02*
X72809523Y-121907200D01*
X72809523Y-121907200D02*
X72666666Y-121954819D01*
X72666666Y-121954819D02*
X72571428Y-121954819D01*
X72571428Y-121954819D02*
X72428571Y-121907200D01*
X72428571Y-121907200D02*
X72333333Y-121811961D01*
X72333333Y-121811961D02*
X72285714Y-121716723D01*
X72285714Y-121716723D02*
X72238095Y-121526247D01*
X72238095Y-121526247D02*
X72238095Y-121383390D01*
X72238095Y-121383390D02*
X72285714Y-121192914D01*
X72285714Y-121192914D02*
X72333333Y-121097676D01*
X72333333Y-121097676D02*
X72428571Y-121002438D01*
X72428571Y-121002438D02*
X72571428Y-120954819D01*
X72571428Y-120954819D02*
X72666666Y-120954819D01*
X72666666Y-120954819D02*
X72809523Y-121002438D01*
X72809523Y-121002438D02*
X72857142Y-121050057D01*
X73809523Y-121954819D02*
X73238095Y-121954819D01*
X73523809Y-121954819D02*
X73523809Y-120954819D01*
X73523809Y-120954819D02*
X73428571Y-121097676D01*
X73428571Y-121097676D02*
X73333333Y-121192914D01*
X73333333Y-121192914D02*
X73238095Y-121240533D01*
X74190476Y-121050057D02*
X74238095Y-121002438D01*
X74238095Y-121002438D02*
X74333333Y-120954819D01*
X74333333Y-120954819D02*
X74571428Y-120954819D01*
X74571428Y-120954819D02*
X74666666Y-121002438D01*
X74666666Y-121002438D02*
X74714285Y-121050057D01*
X74714285Y-121050057D02*
X74761904Y-121145295D01*
X74761904Y-121145295D02*
X74761904Y-121240533D01*
X74761904Y-121240533D02*
X74714285Y-121383390D01*
X74714285Y-121383390D02*
X74142857Y-121954819D01*
X74142857Y-121954819D02*
X74761904Y-121954819D01*
X72857142Y-116859580D02*
X72809523Y-116907200D01*
X72809523Y-116907200D02*
X72666666Y-116954819D01*
X72666666Y-116954819D02*
X72571428Y-116954819D01*
X72571428Y-116954819D02*
X72428571Y-116907200D01*
X72428571Y-116907200D02*
X72333333Y-116811961D01*
X72333333Y-116811961D02*
X72285714Y-116716723D01*
X72285714Y-116716723D02*
X72238095Y-116526247D01*
X72238095Y-116526247D02*
X72238095Y-116383390D01*
X72238095Y-116383390D02*
X72285714Y-116192914D01*
X72285714Y-116192914D02*
X72333333Y-116097676D01*
X72333333Y-116097676D02*
X72428571Y-116002438D01*
X72428571Y-116002438D02*
X72571428Y-115954819D01*
X72571428Y-115954819D02*
X72666666Y-115954819D01*
X72666666Y-115954819D02*
X72809523Y-116002438D01*
X72809523Y-116002438D02*
X72857142Y-116050057D01*
X73809523Y-116954819D02*
X73238095Y-116954819D01*
X73523809Y-116954819D02*
X73523809Y-115954819D01*
X73523809Y-115954819D02*
X73428571Y-116097676D01*
X73428571Y-116097676D02*
X73333333Y-116192914D01*
X73333333Y-116192914D02*
X73238095Y-116240533D01*
X74761904Y-116954819D02*
X74190476Y-116954819D01*
X74476190Y-116954819D02*
X74476190Y-115954819D01*
X74476190Y-115954819D02*
X74380952Y-116097676D01*
X74380952Y-116097676D02*
X74285714Y-116192914D01*
X74285714Y-116192914D02*
X74190476Y-116240533D01*
X72857142Y-111859580D02*
X72809523Y-111907200D01*
X72809523Y-111907200D02*
X72666666Y-111954819D01*
X72666666Y-111954819D02*
X72571428Y-111954819D01*
X72571428Y-111954819D02*
X72428571Y-111907200D01*
X72428571Y-111907200D02*
X72333333Y-111811961D01*
X72333333Y-111811961D02*
X72285714Y-111716723D01*
X72285714Y-111716723D02*
X72238095Y-111526247D01*
X72238095Y-111526247D02*
X72238095Y-111383390D01*
X72238095Y-111383390D02*
X72285714Y-111192914D01*
X72285714Y-111192914D02*
X72333333Y-111097676D01*
X72333333Y-111097676D02*
X72428571Y-111002438D01*
X72428571Y-111002438D02*
X72571428Y-110954819D01*
X72571428Y-110954819D02*
X72666666Y-110954819D01*
X72666666Y-110954819D02*
X72809523Y-111002438D01*
X72809523Y-111002438D02*
X72857142Y-111050057D01*
X73809523Y-111954819D02*
X73238095Y-111954819D01*
X73523809Y-111954819D02*
X73523809Y-110954819D01*
X73523809Y-110954819D02*
X73428571Y-111097676D01*
X73428571Y-111097676D02*
X73333333Y-111192914D01*
X73333333Y-111192914D02*
X73238095Y-111240533D01*
X74428571Y-110954819D02*
X74523809Y-110954819D01*
X74523809Y-110954819D02*
X74619047Y-111002438D01*
X74619047Y-111002438D02*
X74666666Y-111050057D01*
X74666666Y-111050057D02*
X74714285Y-111145295D01*
X74714285Y-111145295D02*
X74761904Y-111335771D01*
X74761904Y-111335771D02*
X74761904Y-111573866D01*
X74761904Y-111573866D02*
X74714285Y-111764342D01*
X74714285Y-111764342D02*
X74666666Y-111859580D01*
X74666666Y-111859580D02*
X74619047Y-111907200D01*
X74619047Y-111907200D02*
X74523809Y-111954819D01*
X74523809Y-111954819D02*
X74428571Y-111954819D01*
X74428571Y-111954819D02*
X74333333Y-111907200D01*
X74333333Y-111907200D02*
X74285714Y-111859580D01*
X74285714Y-111859580D02*
X74238095Y-111764342D01*
X74238095Y-111764342D02*
X74190476Y-111573866D01*
X74190476Y-111573866D02*
X74190476Y-111335771D01*
X74190476Y-111335771D02*
X74238095Y-111145295D01*
X74238095Y-111145295D02*
X74285714Y-111050057D01*
X74285714Y-111050057D02*
X74333333Y-111002438D01*
X74333333Y-111002438D02*
X74428571Y-110954819D01*
X73833333Y-106359580D02*
X73785714Y-106407200D01*
X73785714Y-106407200D02*
X73642857Y-106454819D01*
X73642857Y-106454819D02*
X73547619Y-106454819D01*
X73547619Y-106454819D02*
X73404762Y-106407200D01*
X73404762Y-106407200D02*
X73309524Y-106311961D01*
X73309524Y-106311961D02*
X73261905Y-106216723D01*
X73261905Y-106216723D02*
X73214286Y-106026247D01*
X73214286Y-106026247D02*
X73214286Y-105883390D01*
X73214286Y-105883390D02*
X73261905Y-105692914D01*
X73261905Y-105692914D02*
X73309524Y-105597676D01*
X73309524Y-105597676D02*
X73404762Y-105502438D01*
X73404762Y-105502438D02*
X73547619Y-105454819D01*
X73547619Y-105454819D02*
X73642857Y-105454819D01*
X73642857Y-105454819D02*
X73785714Y-105502438D01*
X73785714Y-105502438D02*
X73833333Y-105550057D01*
X74309524Y-106454819D02*
X74500000Y-106454819D01*
X74500000Y-106454819D02*
X74595238Y-106407200D01*
X74595238Y-106407200D02*
X74642857Y-106359580D01*
X74642857Y-106359580D02*
X74738095Y-106216723D01*
X74738095Y-106216723D02*
X74785714Y-106026247D01*
X74785714Y-106026247D02*
X74785714Y-105645295D01*
X74785714Y-105645295D02*
X74738095Y-105550057D01*
X74738095Y-105550057D02*
X74690476Y-105502438D01*
X74690476Y-105502438D02*
X74595238Y-105454819D01*
X74595238Y-105454819D02*
X74404762Y-105454819D01*
X74404762Y-105454819D02*
X74309524Y-105502438D01*
X74309524Y-105502438D02*
X74261905Y-105550057D01*
X74261905Y-105550057D02*
X74214286Y-105645295D01*
X74214286Y-105645295D02*
X74214286Y-105883390D01*
X74214286Y-105883390D02*
X74261905Y-105978628D01*
X74261905Y-105978628D02*
X74309524Y-106026247D01*
X74309524Y-106026247D02*
X74404762Y-106073866D01*
X74404762Y-106073866D02*
X74595238Y-106073866D01*
X74595238Y-106073866D02*
X74690476Y-106026247D01*
X74690476Y-106026247D02*
X74738095Y-105978628D01*
X74738095Y-105978628D02*
X74785714Y-105883390D01*
X73833333Y-101359580D02*
X73785714Y-101407200D01*
X73785714Y-101407200D02*
X73642857Y-101454819D01*
X73642857Y-101454819D02*
X73547619Y-101454819D01*
X73547619Y-101454819D02*
X73404762Y-101407200D01*
X73404762Y-101407200D02*
X73309524Y-101311961D01*
X73309524Y-101311961D02*
X73261905Y-101216723D01*
X73261905Y-101216723D02*
X73214286Y-101026247D01*
X73214286Y-101026247D02*
X73214286Y-100883390D01*
X73214286Y-100883390D02*
X73261905Y-100692914D01*
X73261905Y-100692914D02*
X73309524Y-100597676D01*
X73309524Y-100597676D02*
X73404762Y-100502438D01*
X73404762Y-100502438D02*
X73547619Y-100454819D01*
X73547619Y-100454819D02*
X73642857Y-100454819D01*
X73642857Y-100454819D02*
X73785714Y-100502438D01*
X73785714Y-100502438D02*
X73833333Y-100550057D01*
X74404762Y-100883390D02*
X74309524Y-100835771D01*
X74309524Y-100835771D02*
X74261905Y-100788152D01*
X74261905Y-100788152D02*
X74214286Y-100692914D01*
X74214286Y-100692914D02*
X74214286Y-100645295D01*
X74214286Y-100645295D02*
X74261905Y-100550057D01*
X74261905Y-100550057D02*
X74309524Y-100502438D01*
X74309524Y-100502438D02*
X74404762Y-100454819D01*
X74404762Y-100454819D02*
X74595238Y-100454819D01*
X74595238Y-100454819D02*
X74690476Y-100502438D01*
X74690476Y-100502438D02*
X74738095Y-100550057D01*
X74738095Y-100550057D02*
X74785714Y-100645295D01*
X74785714Y-100645295D02*
X74785714Y-100692914D01*
X74785714Y-100692914D02*
X74738095Y-100788152D01*
X74738095Y-100788152D02*
X74690476Y-100835771D01*
X74690476Y-100835771D02*
X74595238Y-100883390D01*
X74595238Y-100883390D02*
X74404762Y-100883390D01*
X74404762Y-100883390D02*
X74309524Y-100931009D01*
X74309524Y-100931009D02*
X74261905Y-100978628D01*
X74261905Y-100978628D02*
X74214286Y-101073866D01*
X74214286Y-101073866D02*
X74214286Y-101264342D01*
X74214286Y-101264342D02*
X74261905Y-101359580D01*
X74261905Y-101359580D02*
X74309524Y-101407200D01*
X74309524Y-101407200D02*
X74404762Y-101454819D01*
X74404762Y-101454819D02*
X74595238Y-101454819D01*
X74595238Y-101454819D02*
X74690476Y-101407200D01*
X74690476Y-101407200D02*
X74738095Y-101359580D01*
X74738095Y-101359580D02*
X74785714Y-101264342D01*
X74785714Y-101264342D02*
X74785714Y-101073866D01*
X74785714Y-101073866D02*
X74738095Y-100978628D01*
X74738095Y-100978628D02*
X74690476Y-100931009D01*
X74690476Y-100931009D02*
X74595238Y-100883390D01*
X73833333Y-96359580D02*
X73785714Y-96407200D01*
X73785714Y-96407200D02*
X73642857Y-96454819D01*
X73642857Y-96454819D02*
X73547619Y-96454819D01*
X73547619Y-96454819D02*
X73404762Y-96407200D01*
X73404762Y-96407200D02*
X73309524Y-96311961D01*
X73309524Y-96311961D02*
X73261905Y-96216723D01*
X73261905Y-96216723D02*
X73214286Y-96026247D01*
X73214286Y-96026247D02*
X73214286Y-95883390D01*
X73214286Y-95883390D02*
X73261905Y-95692914D01*
X73261905Y-95692914D02*
X73309524Y-95597676D01*
X73309524Y-95597676D02*
X73404762Y-95502438D01*
X73404762Y-95502438D02*
X73547619Y-95454819D01*
X73547619Y-95454819D02*
X73642857Y-95454819D01*
X73642857Y-95454819D02*
X73785714Y-95502438D01*
X73785714Y-95502438D02*
X73833333Y-95550057D01*
X74166667Y-95454819D02*
X74833333Y-95454819D01*
X74833333Y-95454819D02*
X74404762Y-96454819D01*
X73833333Y-91359580D02*
X73785714Y-91407200D01*
X73785714Y-91407200D02*
X73642857Y-91454819D01*
X73642857Y-91454819D02*
X73547619Y-91454819D01*
X73547619Y-91454819D02*
X73404762Y-91407200D01*
X73404762Y-91407200D02*
X73309524Y-91311961D01*
X73309524Y-91311961D02*
X73261905Y-91216723D01*
X73261905Y-91216723D02*
X73214286Y-91026247D01*
X73214286Y-91026247D02*
X73214286Y-90883390D01*
X73214286Y-90883390D02*
X73261905Y-90692914D01*
X73261905Y-90692914D02*
X73309524Y-90597676D01*
X73309524Y-90597676D02*
X73404762Y-90502438D01*
X73404762Y-90502438D02*
X73547619Y-90454819D01*
X73547619Y-90454819D02*
X73642857Y-90454819D01*
X73642857Y-90454819D02*
X73785714Y-90502438D01*
X73785714Y-90502438D02*
X73833333Y-90550057D01*
X74690476Y-90454819D02*
X74500000Y-90454819D01*
X74500000Y-90454819D02*
X74404762Y-90502438D01*
X74404762Y-90502438D02*
X74357143Y-90550057D01*
X74357143Y-90550057D02*
X74261905Y-90692914D01*
X74261905Y-90692914D02*
X74214286Y-90883390D01*
X74214286Y-90883390D02*
X74214286Y-91264342D01*
X74214286Y-91264342D02*
X74261905Y-91359580D01*
X74261905Y-91359580D02*
X74309524Y-91407200D01*
X74309524Y-91407200D02*
X74404762Y-91454819D01*
X74404762Y-91454819D02*
X74595238Y-91454819D01*
X74595238Y-91454819D02*
X74690476Y-91407200D01*
X74690476Y-91407200D02*
X74738095Y-91359580D01*
X74738095Y-91359580D02*
X74785714Y-91264342D01*
X74785714Y-91264342D02*
X74785714Y-91026247D01*
X74785714Y-91026247D02*
X74738095Y-90931009D01*
X74738095Y-90931009D02*
X74690476Y-90883390D01*
X74690476Y-90883390D02*
X74595238Y-90835771D01*
X74595238Y-90835771D02*
X74404762Y-90835771D01*
X74404762Y-90835771D02*
X74309524Y-90883390D01*
X74309524Y-90883390D02*
X74261905Y-90931009D01*
X74261905Y-90931009D02*
X74214286Y-91026247D01*
X73833333Y-85859580D02*
X73785714Y-85907200D01*
X73785714Y-85907200D02*
X73642857Y-85954819D01*
X73642857Y-85954819D02*
X73547619Y-85954819D01*
X73547619Y-85954819D02*
X73404762Y-85907200D01*
X73404762Y-85907200D02*
X73309524Y-85811961D01*
X73309524Y-85811961D02*
X73261905Y-85716723D01*
X73261905Y-85716723D02*
X73214286Y-85526247D01*
X73214286Y-85526247D02*
X73214286Y-85383390D01*
X73214286Y-85383390D02*
X73261905Y-85192914D01*
X73261905Y-85192914D02*
X73309524Y-85097676D01*
X73309524Y-85097676D02*
X73404762Y-85002438D01*
X73404762Y-85002438D02*
X73547619Y-84954819D01*
X73547619Y-84954819D02*
X73642857Y-84954819D01*
X73642857Y-84954819D02*
X73785714Y-85002438D01*
X73785714Y-85002438D02*
X73833333Y-85050057D01*
X74738095Y-84954819D02*
X74261905Y-84954819D01*
X74261905Y-84954819D02*
X74214286Y-85431009D01*
X74214286Y-85431009D02*
X74261905Y-85383390D01*
X74261905Y-85383390D02*
X74357143Y-85335771D01*
X74357143Y-85335771D02*
X74595238Y-85335771D01*
X74595238Y-85335771D02*
X74690476Y-85383390D01*
X74690476Y-85383390D02*
X74738095Y-85431009D01*
X74738095Y-85431009D02*
X74785714Y-85526247D01*
X74785714Y-85526247D02*
X74785714Y-85764342D01*
X74785714Y-85764342D02*
X74738095Y-85859580D01*
X74738095Y-85859580D02*
X74690476Y-85907200D01*
X74690476Y-85907200D02*
X74595238Y-85954819D01*
X74595238Y-85954819D02*
X74357143Y-85954819D01*
X74357143Y-85954819D02*
X74261905Y-85907200D01*
X74261905Y-85907200D02*
X74214286Y-85859580D01*
X73833333Y-80859580D02*
X73785714Y-80907200D01*
X73785714Y-80907200D02*
X73642857Y-80954819D01*
X73642857Y-80954819D02*
X73547619Y-80954819D01*
X73547619Y-80954819D02*
X73404762Y-80907200D01*
X73404762Y-80907200D02*
X73309524Y-80811961D01*
X73309524Y-80811961D02*
X73261905Y-80716723D01*
X73261905Y-80716723D02*
X73214286Y-80526247D01*
X73214286Y-80526247D02*
X73214286Y-80383390D01*
X73214286Y-80383390D02*
X73261905Y-80192914D01*
X73261905Y-80192914D02*
X73309524Y-80097676D01*
X73309524Y-80097676D02*
X73404762Y-80002438D01*
X73404762Y-80002438D02*
X73547619Y-79954819D01*
X73547619Y-79954819D02*
X73642857Y-79954819D01*
X73642857Y-79954819D02*
X73785714Y-80002438D01*
X73785714Y-80002438D02*
X73833333Y-80050057D01*
X74690476Y-80288152D02*
X74690476Y-80954819D01*
X74452381Y-79907200D02*
X74214286Y-80621485D01*
X74214286Y-80621485D02*
X74833333Y-80621485D01*
X73833333Y-75859580D02*
X73785714Y-75907200D01*
X73785714Y-75907200D02*
X73642857Y-75954819D01*
X73642857Y-75954819D02*
X73547619Y-75954819D01*
X73547619Y-75954819D02*
X73404762Y-75907200D01*
X73404762Y-75907200D02*
X73309524Y-75811961D01*
X73309524Y-75811961D02*
X73261905Y-75716723D01*
X73261905Y-75716723D02*
X73214286Y-75526247D01*
X73214286Y-75526247D02*
X73214286Y-75383390D01*
X73214286Y-75383390D02*
X73261905Y-75192914D01*
X73261905Y-75192914D02*
X73309524Y-75097676D01*
X73309524Y-75097676D02*
X73404762Y-75002438D01*
X73404762Y-75002438D02*
X73547619Y-74954819D01*
X73547619Y-74954819D02*
X73642857Y-74954819D01*
X73642857Y-74954819D02*
X73785714Y-75002438D01*
X73785714Y-75002438D02*
X73833333Y-75050057D01*
X74166667Y-74954819D02*
X74785714Y-74954819D01*
X74785714Y-74954819D02*
X74452381Y-75335771D01*
X74452381Y-75335771D02*
X74595238Y-75335771D01*
X74595238Y-75335771D02*
X74690476Y-75383390D01*
X74690476Y-75383390D02*
X74738095Y-75431009D01*
X74738095Y-75431009D02*
X74785714Y-75526247D01*
X74785714Y-75526247D02*
X74785714Y-75764342D01*
X74785714Y-75764342D02*
X74738095Y-75859580D01*
X74738095Y-75859580D02*
X74690476Y-75907200D01*
X74690476Y-75907200D02*
X74595238Y-75954819D01*
X74595238Y-75954819D02*
X74309524Y-75954819D01*
X74309524Y-75954819D02*
X74214286Y-75907200D01*
X74214286Y-75907200D02*
X74166667Y-75859580D01*
X73833333Y-70859580D02*
X73785714Y-70907200D01*
X73785714Y-70907200D02*
X73642857Y-70954819D01*
X73642857Y-70954819D02*
X73547619Y-70954819D01*
X73547619Y-70954819D02*
X73404762Y-70907200D01*
X73404762Y-70907200D02*
X73309524Y-70811961D01*
X73309524Y-70811961D02*
X73261905Y-70716723D01*
X73261905Y-70716723D02*
X73214286Y-70526247D01*
X73214286Y-70526247D02*
X73214286Y-70383390D01*
X73214286Y-70383390D02*
X73261905Y-70192914D01*
X73261905Y-70192914D02*
X73309524Y-70097676D01*
X73309524Y-70097676D02*
X73404762Y-70002438D01*
X73404762Y-70002438D02*
X73547619Y-69954819D01*
X73547619Y-69954819D02*
X73642857Y-69954819D01*
X73642857Y-69954819D02*
X73785714Y-70002438D01*
X73785714Y-70002438D02*
X73833333Y-70050057D01*
X74214286Y-70050057D02*
X74261905Y-70002438D01*
X74261905Y-70002438D02*
X74357143Y-69954819D01*
X74357143Y-69954819D02*
X74595238Y-69954819D01*
X74595238Y-69954819D02*
X74690476Y-70002438D01*
X74690476Y-70002438D02*
X74738095Y-70050057D01*
X74738095Y-70050057D02*
X74785714Y-70145295D01*
X74785714Y-70145295D02*
X74785714Y-70240533D01*
X74785714Y-70240533D02*
X74738095Y-70383390D01*
X74738095Y-70383390D02*
X74166667Y-70954819D01*
X74166667Y-70954819D02*
X74785714Y-70954819D01*
X73833333Y-65859580D02*
X73785714Y-65907200D01*
X73785714Y-65907200D02*
X73642857Y-65954819D01*
X73642857Y-65954819D02*
X73547619Y-65954819D01*
X73547619Y-65954819D02*
X73404762Y-65907200D01*
X73404762Y-65907200D02*
X73309524Y-65811961D01*
X73309524Y-65811961D02*
X73261905Y-65716723D01*
X73261905Y-65716723D02*
X73214286Y-65526247D01*
X73214286Y-65526247D02*
X73214286Y-65383390D01*
X73214286Y-65383390D02*
X73261905Y-65192914D01*
X73261905Y-65192914D02*
X73309524Y-65097676D01*
X73309524Y-65097676D02*
X73404762Y-65002438D01*
X73404762Y-65002438D02*
X73547619Y-64954819D01*
X73547619Y-64954819D02*
X73642857Y-64954819D01*
X73642857Y-64954819D02*
X73785714Y-65002438D01*
X73785714Y-65002438D02*
X73833333Y-65050057D01*
X74785714Y-65954819D02*
X74214286Y-65954819D01*
X74500000Y-65954819D02*
X74500000Y-64954819D01*
X74500000Y-64954819D02*
X74404762Y-65097676D01*
X74404762Y-65097676D02*
X74309524Y-65192914D01*
X74309524Y-65192914D02*
X74214286Y-65240533D01*
D14*
%TO.C,kibuzzard-695BA6A9*%
G36*
X115723748Y-140445073D02*
G01*
X116082391Y-140556543D01*
X115980614Y-141041195D01*
X115701939Y-140961228D01*
X115384491Y-140920032D01*
X115226979Y-140934572D01*
X115096123Y-140997577D01*
X115006462Y-141135703D01*
X114972536Y-141370759D01*
X114972536Y-141491922D01*
X115907916Y-141491922D01*
X115907916Y-141986268D01*
X114972536Y-141986268D01*
X114972536Y-143769790D01*
X114371567Y-143769790D01*
X114371567Y-141986268D01*
X113872375Y-141986268D01*
X113872375Y-141491922D01*
X114371567Y-141491922D01*
X114371567Y-141361066D01*
X114391559Y-141108441D01*
X114451535Y-140903069D01*
X114667205Y-140612278D01*
X114977383Y-140457189D01*
X115336026Y-140411147D01*
X115723748Y-140445073D01*
G37*
G36*
X119945073Y-142907108D02*
G01*
X120037157Y-143222132D01*
X120269790Y-143304523D01*
X120570275Y-143256058D01*
X120730210Y-143193053D01*
X120807754Y-143672859D01*
X120742326Y-143706785D01*
X120609047Y-143757674D01*
X120407916Y-143803716D01*
X120138934Y-143823102D01*
X119782714Y-143761914D01*
X119537964Y-143578352D01*
X119396204Y-143277262D01*
X119348950Y-142863489D01*
X119348950Y-140929725D01*
X118718901Y-140929725D01*
X118718901Y-140435380D01*
X119945073Y-140435380D01*
X119945073Y-142907108D01*
G37*
G36*
X90361874Y-141545234D02*
G01*
X90604200Y-141465267D01*
X90836834Y-141443457D01*
X91046446Y-141464661D01*
X91229402Y-141528271D01*
X91512924Y-141770598D01*
X91612884Y-141943255D01*
X91684976Y-142146204D01*
X91728595Y-142376414D01*
X91743134Y-142630856D01*
X91724960Y-142889540D01*
X91670436Y-143122779D01*
X91580775Y-143326939D01*
X91457189Y-143498384D01*
X91300889Y-143635905D01*
X91113086Y-143738288D01*
X90894992Y-143801898D01*
X90647819Y-143823102D01*
X90633279Y-143822577D01*
X90412763Y-143814620D01*
X90172859Y-143789176D01*
X89949919Y-143750404D01*
X89765751Y-143701939D01*
X89765751Y-142049273D01*
X90361874Y-142049273D01*
X90361874Y-143285137D01*
X90504847Y-143304523D01*
X90633279Y-143309370D01*
X90841680Y-143269992D01*
X91001616Y-143151858D01*
X91103393Y-142939216D01*
X91137318Y-142616317D01*
X91111268Y-142334006D01*
X91033118Y-142126817D01*
X90901656Y-141999596D01*
X90715670Y-141957189D01*
X90524233Y-141983845D01*
X90361874Y-142049273D01*
X89765751Y-142049273D01*
X89765751Y-140508078D01*
X90361874Y-140406300D01*
X90361874Y-141545234D01*
G37*
G36*
X131557351Y-141545234D02*
G01*
X131799677Y-141465267D01*
X132032310Y-141443457D01*
X132241922Y-141464661D01*
X132424879Y-141528271D01*
X132708401Y-141770598D01*
X132808360Y-141943255D01*
X132880452Y-142146204D01*
X132924071Y-142376414D01*
X132938611Y-142630856D01*
X132920436Y-142889540D01*
X132865913Y-143122779D01*
X132776252Y-143326939D01*
X132652666Y-143498384D01*
X132496365Y-143635905D01*
X132308562Y-143738288D01*
X132090468Y-143801898D01*
X131843296Y-143823102D01*
X131828756Y-143822577D01*
X131608239Y-143814620D01*
X131368336Y-143789176D01*
X131145396Y-143750404D01*
X130961228Y-143701939D01*
X130961228Y-142049273D01*
X131557351Y-142049273D01*
X131557351Y-143285137D01*
X131700323Y-143304523D01*
X131828756Y-143309370D01*
X132037157Y-143269992D01*
X132197092Y-143151858D01*
X132298869Y-142939216D01*
X132332795Y-142616317D01*
X132306745Y-142334006D01*
X132228595Y-142126817D01*
X132097132Y-141999596D01*
X131911147Y-141957189D01*
X131719709Y-141983845D01*
X131557351Y-142049273D01*
X130961228Y-142049273D01*
X130961228Y-140508078D01*
X131557351Y-140406300D01*
X131557351Y-141545234D01*
G37*
G36*
X101242326Y-143701939D02*
G01*
X101059370Y-143750404D01*
X100840065Y-143789176D01*
X100605008Y-143814620D01*
X100379645Y-143822923D01*
X100374798Y-143823102D01*
X100048196Y-143788099D01*
X99779214Y-143683091D01*
X99567851Y-143508078D01*
X99415724Y-143272213D01*
X99324448Y-142984653D01*
X99294023Y-142645396D01*
X99296176Y-142616317D01*
X99899838Y-142616317D01*
X99928312Y-142893780D01*
X100013732Y-143115509D01*
X100162157Y-143260905D01*
X100379645Y-143309370D01*
X100515347Y-143304523D01*
X100646204Y-143289984D01*
X100646204Y-142049273D01*
X100491115Y-141983845D01*
X100306947Y-141957189D01*
X100122779Y-141999596D01*
X99996769Y-142126817D01*
X99924071Y-142334006D01*
X99899838Y-142616317D01*
X99296176Y-142616317D01*
X99319602Y-142299946D01*
X99396338Y-142006731D01*
X99524233Y-141765751D01*
X99702208Y-141586699D01*
X99929187Y-141479268D01*
X100205170Y-141443457D01*
X100442649Y-141470113D01*
X100646204Y-141545234D01*
X100646204Y-140508078D01*
X101242326Y-140406300D01*
X101242326Y-143701939D01*
G37*
G36*
X142437803Y-143701939D02*
G01*
X142254847Y-143750404D01*
X142035541Y-143789176D01*
X141800485Y-143814620D01*
X141575121Y-143822923D01*
X141570275Y-143823102D01*
X141243673Y-143788099D01*
X140974690Y-143683091D01*
X140763328Y-143508078D01*
X140611201Y-143272213D01*
X140519925Y-142984653D01*
X140489499Y-142645396D01*
X140491652Y-142616317D01*
X141095315Y-142616317D01*
X141123788Y-142893780D01*
X141209208Y-143115509D01*
X141357633Y-143260905D01*
X141575121Y-143309370D01*
X141710824Y-143304523D01*
X141841680Y-143289984D01*
X141841680Y-142049273D01*
X141686591Y-141983845D01*
X141502423Y-141957189D01*
X141318255Y-141999596D01*
X141192246Y-142126817D01*
X141119548Y-142334006D01*
X141095315Y-142616317D01*
X140491652Y-142616317D01*
X140515078Y-142299946D01*
X140591815Y-142006731D01*
X140719709Y-141765751D01*
X140897684Y-141586699D01*
X141124663Y-141479268D01*
X141400646Y-141443457D01*
X141638126Y-141470113D01*
X141841680Y-141545234D01*
X141841680Y-140508078D01*
X142437803Y-140406300D01*
X142437803Y-143701939D01*
G37*
G36*
X110358643Y-141478998D02*
G01*
X110628433Y-141585622D01*
X110843296Y-141763328D01*
X110999461Y-142001885D01*
X111093161Y-142291061D01*
X111124394Y-142630856D01*
X111109855Y-142882270D01*
X111066236Y-143113086D01*
X110994750Y-143317851D01*
X110896607Y-143491115D01*
X110615509Y-143735864D01*
X110432553Y-143801292D01*
X110222940Y-143823102D01*
X110101777Y-143808511D01*
X109991519Y-143795234D01*
X109752827Y-143711632D01*
X109752827Y-144569467D01*
X109156704Y-144569467D01*
X109156704Y-141971729D01*
X109752827Y-141971729D01*
X109752827Y-143222132D01*
X109907916Y-143285137D01*
X110101777Y-143309370D01*
X110287157Y-143266357D01*
X110416801Y-143137318D01*
X110493134Y-142929523D01*
X110518578Y-142650242D01*
X110488288Y-142372173D01*
X110397415Y-142148627D01*
X110244750Y-142001414D01*
X110029079Y-141952342D01*
X109883683Y-141959612D01*
X109752827Y-141971729D01*
X109156704Y-141971729D01*
X109156704Y-141564620D01*
X109340267Y-141516155D01*
X109561389Y-141477383D01*
X109799475Y-141451939D01*
X110033926Y-141443457D01*
X110358643Y-141478998D01*
G37*
G36*
X83484653Y-141491922D02*
G01*
X84439418Y-141491922D01*
X84439418Y-141986268D01*
X83484653Y-141986268D01*
X83484653Y-142907108D01*
X83508885Y-143110662D01*
X83576737Y-143231826D01*
X83683360Y-143289984D01*
X83823910Y-143304523D01*
X83976575Y-143299677D01*
X84112278Y-143282714D01*
X84247981Y-143246365D01*
X84400646Y-143183360D01*
X84483037Y-143697092D01*
X84126817Y-143794023D01*
X83756058Y-143823102D01*
X83387722Y-143789176D01*
X83116317Y-143658320D01*
X82946688Y-143384491D01*
X82903069Y-143180331D01*
X82888530Y-142921648D01*
X82888530Y-141986268D01*
X82369952Y-141986268D01*
X82369952Y-141491922D01*
X82888530Y-141491922D01*
X82888530Y-140920032D01*
X83484653Y-140823102D01*
X83484653Y-141491922D01*
G37*
G36*
X105294023Y-141491922D02*
G01*
X106248788Y-141491922D01*
X106248788Y-141986268D01*
X105294023Y-141986268D01*
X105294023Y-142907108D01*
X105318255Y-143110662D01*
X105386107Y-143231826D01*
X105492730Y-143289984D01*
X105633279Y-143304523D01*
X105785945Y-143299677D01*
X105921648Y-143282714D01*
X106057351Y-143246365D01*
X106210016Y-143183360D01*
X106292407Y-143697092D01*
X105936187Y-143794023D01*
X105565428Y-143823102D01*
X105197092Y-143789176D01*
X104925687Y-143658320D01*
X104756058Y-143384491D01*
X104712439Y-143180331D01*
X104697900Y-142921648D01*
X104697900Y-141986268D01*
X104179321Y-141986268D01*
X104179321Y-141491922D01*
X104697900Y-141491922D01*
X104697900Y-140920032D01*
X105294023Y-140823102D01*
X105294023Y-141491922D01*
G37*
G36*
X122256866Y-141491922D02*
G01*
X123211632Y-141491922D01*
X123211632Y-141986268D01*
X122256866Y-141986268D01*
X122256866Y-142907108D01*
X122281099Y-143110662D01*
X122348950Y-143231826D01*
X122455574Y-143289984D01*
X122596123Y-143304523D01*
X122748788Y-143299677D01*
X122884491Y-143282714D01*
X123020194Y-143246365D01*
X123172859Y-143183360D01*
X123255250Y-143697092D01*
X122899031Y-143794023D01*
X122528271Y-143823102D01*
X122159935Y-143789176D01*
X121888530Y-143658320D01*
X121718901Y-143384491D01*
X121675283Y-143180331D01*
X121660743Y-142921648D01*
X121660743Y-141986268D01*
X121142165Y-141986268D01*
X121142165Y-141491922D01*
X121660743Y-141491922D01*
X121660743Y-140920032D01*
X122256866Y-140823102D01*
X122256866Y-141491922D01*
G37*
G36*
X86557351Y-143619548D02*
G01*
X86540388Y-143873384D01*
X86489499Y-144082391D01*
X86302908Y-144382876D01*
X86021809Y-144545234D01*
X85670436Y-144593700D01*
X85446284Y-144579160D01*
X85239095Y-144535541D01*
X85044023Y-144468901D01*
X84856220Y-144385299D01*
X85040388Y-143881260D01*
X85333603Y-144009693D01*
X85646204Y-144070275D01*
X85878837Y-143980614D01*
X85961228Y-143648627D01*
X85961228Y-141986268D01*
X85040388Y-141986268D01*
X85040388Y-141491922D01*
X86557351Y-141491922D01*
X86557351Y-143619548D01*
G37*
G36*
X88485662Y-141454968D02*
G01*
X88692246Y-141518578D01*
X88875202Y-141621567D01*
X89031502Y-141760905D01*
X89158118Y-141934168D01*
X89252019Y-142138934D01*
X89310178Y-142370961D01*
X89329564Y-142626010D01*
X89310178Y-142884693D01*
X89252019Y-143117932D01*
X89158724Y-143323304D01*
X89033926Y-143498384D01*
X88879443Y-143640145D01*
X88697092Y-143745557D01*
X88489297Y-143810985D01*
X88258481Y-143832795D01*
X88248788Y-143831879D01*
X88027666Y-143810985D01*
X87819871Y-143745557D01*
X87636914Y-143640145D01*
X87480614Y-143498384D01*
X87353998Y-143323304D01*
X87260097Y-143117932D01*
X87201939Y-142884693D01*
X87182916Y-142630856D01*
X87788368Y-142630856D01*
X87815630Y-142907108D01*
X87897415Y-143125202D01*
X88039782Y-143266963D01*
X88248788Y-143314216D01*
X88452948Y-143266963D01*
X88600162Y-143125202D01*
X88689216Y-142907108D01*
X88718901Y-142630856D01*
X88691640Y-142355210D01*
X88609855Y-142138934D01*
X88467488Y-141998990D01*
X88258481Y-141952342D01*
X88054321Y-141998990D01*
X87907108Y-142138934D01*
X87818053Y-142355210D01*
X87788368Y-142630856D01*
X87182916Y-142630856D01*
X87182553Y-142626010D01*
X87202544Y-142370961D01*
X87262520Y-142138934D01*
X87358239Y-141934168D01*
X87485460Y-141760905D01*
X87642367Y-141621567D01*
X87827141Y-141518578D01*
X88034330Y-141454968D01*
X88258481Y-141433764D01*
X88485662Y-141454968D01*
G37*
G36*
X107871769Y-141454968D02*
G01*
X108078352Y-141518578D01*
X108261309Y-141621567D01*
X108417609Y-141760905D01*
X108544225Y-141934168D01*
X108638126Y-142138934D01*
X108696284Y-142370961D01*
X108715670Y-142626010D01*
X108696284Y-142884693D01*
X108638126Y-143117932D01*
X108544830Y-143323304D01*
X108420032Y-143498384D01*
X108265549Y-143640145D01*
X108083199Y-143745557D01*
X107875404Y-143810985D01*
X107644588Y-143832795D01*
X107634895Y-143831879D01*
X107413772Y-143810985D01*
X107205977Y-143745557D01*
X107023021Y-143640145D01*
X106866721Y-143498384D01*
X106740105Y-143323304D01*
X106646204Y-143117932D01*
X106588045Y-142884693D01*
X106569022Y-142630856D01*
X107174475Y-142630856D01*
X107201737Y-142907108D01*
X107283522Y-143125202D01*
X107425889Y-143266963D01*
X107634895Y-143314216D01*
X107839055Y-143266963D01*
X107986268Y-143125202D01*
X108075323Y-142907108D01*
X108105008Y-142630856D01*
X108077746Y-142355210D01*
X107995961Y-142138934D01*
X107853595Y-141998990D01*
X107644588Y-141952342D01*
X107440428Y-141998990D01*
X107293215Y-142138934D01*
X107204160Y-142355210D01*
X107174475Y-142630856D01*
X106569022Y-142630856D01*
X106568659Y-142626010D01*
X106588651Y-142370961D01*
X106648627Y-142138934D01*
X106744346Y-141934168D01*
X106871567Y-141760905D01*
X107028473Y-141621567D01*
X107213247Y-141518578D01*
X107420436Y-141454968D01*
X107644588Y-141433764D01*
X107871769Y-141454968D01*
G37*
G36*
X134527666Y-141454968D02*
G01*
X134734249Y-141518578D01*
X134917205Y-141621567D01*
X135073506Y-141760905D01*
X135200121Y-141934168D01*
X135294023Y-142138934D01*
X135352181Y-142370961D01*
X135371567Y-142626010D01*
X135352181Y-142884693D01*
X135294023Y-143117932D01*
X135200727Y-143323304D01*
X135075929Y-143498384D01*
X134921446Y-143640145D01*
X134739095Y-143745557D01*
X134531300Y-143810985D01*
X134300485Y-143832795D01*
X134290792Y-143831879D01*
X134069669Y-143810985D01*
X133861874Y-143745557D01*
X133678918Y-143640145D01*
X133522617Y-143498384D01*
X133396002Y-143323304D01*
X133302100Y-143117932D01*
X133243942Y-142884693D01*
X133224919Y-142630856D01*
X133830372Y-142630856D01*
X133857633Y-142907108D01*
X133939418Y-143125202D01*
X134081785Y-143266963D01*
X134290792Y-143314216D01*
X134494952Y-143266963D01*
X134642165Y-143125202D01*
X134731220Y-142907108D01*
X134760905Y-142630856D01*
X134733643Y-142355210D01*
X134651858Y-142138934D01*
X134509491Y-141998990D01*
X134300485Y-141952342D01*
X134096325Y-141998990D01*
X133949111Y-142138934D01*
X133860057Y-142355210D01*
X133830372Y-142630856D01*
X133224919Y-142630856D01*
X133224556Y-142626010D01*
X133244548Y-142370961D01*
X133304523Y-142138934D01*
X133400242Y-141934168D01*
X133527464Y-141760905D01*
X133684370Y-141621567D01*
X133869144Y-141518578D01*
X134076333Y-141454968D01*
X134300485Y-141433764D01*
X134527666Y-141454968D01*
G37*
G36*
X95847065Y-141466882D02*
G01*
X96102316Y-141566236D01*
X96303716Y-141731826D01*
X96449111Y-141960959D01*
X96536349Y-142250942D01*
X96565428Y-142601777D01*
X96563005Y-142722940D01*
X96555735Y-142824717D01*
X95988691Y-142824717D01*
X95077544Y-142824717D01*
X95123586Y-143024031D01*
X95261712Y-143176090D01*
X95472536Y-143272415D01*
X95736672Y-143304523D01*
X96078352Y-143265751D01*
X96352181Y-143188207D01*
X96434572Y-143697092D01*
X96105008Y-143786753D01*
X95712439Y-143823102D01*
X95436793Y-143804321D01*
X95191438Y-143747981D01*
X94978191Y-143654685D01*
X94798869Y-143525040D01*
X94655291Y-143359653D01*
X94549273Y-143159128D01*
X94483845Y-142922859D01*
X94462036Y-142650242D01*
X94481401Y-142412763D01*
X95077544Y-142412763D01*
X95988691Y-142412763D01*
X95964459Y-142235864D01*
X95886914Y-142083199D01*
X95751212Y-141974152D01*
X95547658Y-141932956D01*
X95346527Y-141971729D01*
X95205977Y-142078352D01*
X95118740Y-142233441D01*
X95077544Y-142412763D01*
X94481401Y-142412763D01*
X94485057Y-142367932D01*
X94554120Y-142121971D01*
X94660743Y-141912964D01*
X94796446Y-141741519D01*
X94957593Y-141607633D01*
X95140549Y-141511309D01*
X95336834Y-141453150D01*
X95537964Y-141433764D01*
X95847065Y-141466882D01*
G37*
G36*
X124926225Y-141466882D02*
G01*
X125181475Y-141566236D01*
X125382876Y-141731826D01*
X125528271Y-141960959D01*
X125615509Y-142250942D01*
X125644588Y-142601777D01*
X125642165Y-142722940D01*
X125634895Y-142824717D01*
X125067851Y-142824717D01*
X124156704Y-142824717D01*
X124202746Y-143024031D01*
X124340872Y-143176090D01*
X124551696Y-143272415D01*
X124815832Y-143304523D01*
X125157512Y-143265751D01*
X125431341Y-143188207D01*
X125513732Y-143697092D01*
X125184168Y-143786753D01*
X124791599Y-143823102D01*
X124515953Y-143804321D01*
X124270598Y-143747981D01*
X124057351Y-143654685D01*
X123878029Y-143525040D01*
X123734451Y-143359653D01*
X123628433Y-143159128D01*
X123563005Y-142922859D01*
X123541195Y-142650242D01*
X123560560Y-142412763D01*
X124156704Y-142412763D01*
X125067851Y-142412763D01*
X125043619Y-142235864D01*
X124966074Y-142083199D01*
X124830372Y-141974152D01*
X124626817Y-141932956D01*
X124425687Y-141971729D01*
X124285137Y-142078352D01*
X124197900Y-142233441D01*
X124156704Y-142412763D01*
X123560560Y-142412763D01*
X123564216Y-142367932D01*
X123633279Y-142121971D01*
X123739903Y-141912964D01*
X123875606Y-141741519D01*
X124036753Y-141607633D01*
X124219709Y-141511309D01*
X124415994Y-141453150D01*
X124617124Y-141433764D01*
X124926225Y-141466882D01*
G37*
G36*
X79234249Y-141462843D02*
G01*
X79568659Y-141559774D01*
X79437803Y-142039580D01*
X79222132Y-141978998D01*
X78919225Y-141952342D01*
X78563005Y-142003231D01*
X78332795Y-142143780D01*
X78206785Y-142359451D01*
X78168013Y-142630856D01*
X78212237Y-142911955D01*
X78344911Y-143125202D01*
X78584208Y-143259693D01*
X78948304Y-143304523D01*
X79241519Y-143285137D01*
X79520194Y-143222132D01*
X79607431Y-143711632D01*
X79302100Y-143791599D01*
X79107027Y-143815226D01*
X78880452Y-143823102D01*
X78556341Y-143800081D01*
X78281906Y-143731018D01*
X78054725Y-143621971D01*
X77872375Y-143478998D01*
X77733643Y-143304523D01*
X77637318Y-143100969D01*
X77580977Y-142874394D01*
X77562197Y-142630856D01*
X77581583Y-142390953D01*
X77639742Y-142165590D01*
X77737884Y-141961430D01*
X77877221Y-141785137D01*
X78058360Y-141639742D01*
X78281906Y-141528271D01*
X78550283Y-141457391D01*
X78865913Y-141433764D01*
X79234249Y-141462843D01*
G37*
G36*
X117521809Y-142902262D02*
G01*
X117596931Y-143205170D01*
X117846527Y-143304523D01*
X118045234Y-143282714D01*
X118306947Y-143193053D01*
X118384491Y-143672859D01*
X118037964Y-143791599D01*
X117739903Y-143823102D01*
X117526050Y-143806139D01*
X117349758Y-143755250D01*
X117097738Y-143558966D01*
X116964459Y-143246365D01*
X116935380Y-143048869D01*
X116925687Y-142824717D01*
X116925687Y-141986268D01*
X116295638Y-141986268D01*
X116295638Y-141491922D01*
X117521809Y-141491922D01*
X117521809Y-142902262D01*
G37*
G36*
X136927908Y-141450121D02*
G01*
X137138126Y-141499192D01*
X137436187Y-141683360D01*
X137596123Y-141974152D01*
X137644588Y-142359451D01*
X137644588Y-143716478D01*
X137256866Y-143784330D01*
X136984249Y-143813409D01*
X136723748Y-143821712D01*
X136680129Y-143823102D01*
X136285137Y-143784330D01*
X135982229Y-143655897D01*
X135788368Y-143423263D01*
X135720517Y-143071890D01*
X135723888Y-143057351D01*
X136306947Y-143057351D01*
X136423263Y-143277868D01*
X136723748Y-143343296D01*
X136912763Y-143340872D01*
X137072698Y-143328756D01*
X137072698Y-142805331D01*
X136932149Y-142788368D01*
X136781906Y-142781099D01*
X136602585Y-142793215D01*
X136449919Y-142834410D01*
X136345719Y-142916801D01*
X136306947Y-143057351D01*
X135723888Y-143057351D01*
X135798061Y-142737480D01*
X136006462Y-142519386D01*
X136306947Y-142400646D01*
X136660743Y-142364297D01*
X136880048Y-142373990D01*
X137072698Y-142403069D01*
X137072698Y-142330372D01*
X136966074Y-142046850D01*
X136820679Y-141961430D01*
X136597738Y-141932956D01*
X136270598Y-141957189D01*
X136016155Y-142015347D01*
X135933764Y-141535541D01*
X136248788Y-141465267D01*
X136455977Y-141441640D01*
X136670436Y-141433764D01*
X136927908Y-141450121D01*
G37*
G36*
X103090670Y-141442246D02*
G01*
X103289984Y-141467690D01*
X103621971Y-141564620D01*
X103529887Y-142068659D01*
X103273021Y-141988691D01*
X102880452Y-141932956D01*
X102572698Y-141988691D01*
X102492730Y-142107431D01*
X102529079Y-142201939D01*
X102626010Y-142277060D01*
X102766559Y-142342488D01*
X102938611Y-142403069D01*
X103210016Y-142500000D01*
X103464459Y-142633279D01*
X103651050Y-142836834D01*
X103723748Y-143139742D01*
X103670436Y-143406300D01*
X103493538Y-143624394D01*
X103171244Y-143769790D01*
X102949515Y-143809774D01*
X102681745Y-143823102D01*
X102407916Y-143806139D01*
X102177706Y-143755250D01*
X101843296Y-143634087D01*
X101935380Y-143134895D01*
X102296446Y-143260905D01*
X102686591Y-143319063D01*
X103021002Y-143287561D01*
X103137318Y-143159128D01*
X103100969Y-143052504D01*
X102999192Y-142977383D01*
X102848950Y-142916801D01*
X102672052Y-142858643D01*
X102405493Y-142768982D01*
X102158320Y-142640549D01*
X101974152Y-142444265D01*
X101901454Y-142146204D01*
X101957189Y-141872375D01*
X102131664Y-141644588D01*
X102434572Y-141489499D01*
X102636914Y-141447698D01*
X102875606Y-141433764D01*
X103090670Y-141442246D01*
G37*
G36*
X80654281Y-142684168D02*
G01*
X80673061Y-142958603D01*
X80729402Y-143151858D01*
X81022617Y-143304523D01*
X81294023Y-143280291D01*
X81294023Y-141491922D01*
X81894992Y-141491922D01*
X81894992Y-143692246D01*
X81712641Y-143735864D01*
X81495153Y-143779483D01*
X81249798Y-143812197D01*
X80983845Y-143823102D01*
X80728191Y-143803716D01*
X80523425Y-143745557D01*
X80239903Y-143525040D01*
X80096931Y-143188207D01*
X80067851Y-142984653D01*
X80058158Y-142761712D01*
X80058158Y-141491922D01*
X80654281Y-141491922D01*
X80654281Y-142684168D01*
G37*
G36*
X98195073Y-141462237D02*
G01*
X98397415Y-141518578D01*
X98680937Y-141731826D01*
X98828756Y-142061389D01*
X98861470Y-142263126D01*
X98872375Y-142485460D01*
X98872375Y-143769790D01*
X98276252Y-143769790D01*
X98276252Y-142563005D01*
X98258078Y-142287964D01*
X98203554Y-142102585D01*
X97907916Y-141962036D01*
X97774637Y-141966882D01*
X97636511Y-141981422D01*
X97636511Y-143769790D01*
X97040388Y-143769790D01*
X97040388Y-141564620D01*
X97219103Y-141522213D01*
X97435380Y-141482229D01*
X97680735Y-141453150D01*
X97946688Y-141443457D01*
X98195073Y-141462237D01*
G37*
G36*
X127454766Y-141453150D02*
G01*
X127646204Y-141470113D01*
X127852181Y-141499192D01*
X128038772Y-141545234D01*
X127932149Y-142097738D01*
X127794023Y-142068659D01*
X127631664Y-142042003D01*
X127471729Y-142025040D01*
X127340872Y-142020194D01*
X127093700Y-142032310D01*
X126846527Y-142078352D01*
X126846527Y-143769790D01*
X126245557Y-143769790D01*
X126245557Y-141642165D01*
X126486066Y-141563409D01*
X126732633Y-141501616D01*
X127003433Y-141461632D01*
X127316640Y-141448304D01*
X127454766Y-141453150D01*
G37*
G36*
X139571082Y-141453150D02*
G01*
X139762520Y-141470113D01*
X139968498Y-141499192D01*
X140155089Y-141545234D01*
X140048465Y-142097738D01*
X139910339Y-142068659D01*
X139747981Y-142042003D01*
X139588045Y-142025040D01*
X139457189Y-142020194D01*
X139210016Y-142032310D01*
X138962843Y-142078352D01*
X138962843Y-143769790D01*
X138361874Y-143769790D01*
X138361874Y-141642165D01*
X138602383Y-141563409D01*
X138848950Y-141501616D01*
X139119750Y-141461632D01*
X139432956Y-141448304D01*
X139571082Y-141453150D01*
G37*
G36*
X86373183Y-140556543D02*
G01*
X86484653Y-140837641D01*
X86373183Y-141113893D01*
X86106624Y-141215670D01*
X85842488Y-141113893D01*
X85733441Y-140837641D01*
X85842488Y-140556543D01*
X86106624Y-140454766D01*
X86373183Y-140556543D01*
G37*
G36*
X117386107Y-140556543D02*
G01*
X117497577Y-140837641D01*
X117386107Y-141113893D01*
X117119548Y-141215670D01*
X116855412Y-141113893D01*
X116746365Y-140837641D01*
X116855412Y-140556543D01*
X117119548Y-140454766D01*
X117386107Y-140556543D01*
G37*
D15*
%TO.C,J3*%
X91520000Y-61480000D02*
X81030000Y-61480000D01*
X91520000Y-61480000D02*
X91520000Y-123280000D01*
X89900000Y-61480000D02*
X89900000Y-123280000D01*
X82150000Y-61480000D02*
X82150000Y-123280000D01*
X81030000Y-61480000D02*
X81030000Y-63840000D01*
X81030000Y-64440000D02*
X81030000Y-123280000D01*
X91520000Y-123280000D02*
X81030000Y-123280000D01*
X81030000Y-64140000D02*
X80420000Y-64580000D01*
X80420000Y-63700000D01*
X81030000Y-64140000D01*
G36*
X81030000Y-64140000D02*
G01*
X80420000Y-64580000D01*
X80420000Y-63700000D01*
X81030000Y-64140000D01*
G37*
%TO.C,R9*%
X76262742Y-105022500D02*
X76737258Y-105022500D01*
X76262742Y-103977500D02*
X76737258Y-103977500D01*
%TO.C,J1*%
X71520000Y-61480000D02*
X61030000Y-61480000D01*
X71520000Y-61480000D02*
X71520000Y-138520000D01*
X69900000Y-61480000D02*
X69900000Y-138520000D01*
X62150000Y-61480000D02*
X62150000Y-138520000D01*
X61030000Y-61480000D02*
X61030000Y-63840000D01*
X61030000Y-64440000D02*
X61030000Y-138520000D01*
X71520000Y-138520000D02*
X61030000Y-138520000D01*
X61030000Y-64140000D02*
X60420000Y-64580000D01*
X60420000Y-63700000D01*
X61030000Y-64140000D01*
G36*
X61030000Y-64140000D02*
G01*
X60420000Y-64580000D01*
X60420000Y-63700000D01*
X61030000Y-64140000D01*
G37*
%TO.C,J2*%
X111030000Y-64140000D02*
X110420000Y-64580000D01*
X110420000Y-63700000D01*
X111030000Y-64140000D01*
G36*
X111030000Y-64140000D02*
G01*
X110420000Y-64580000D01*
X110420000Y-63700000D01*
X111030000Y-64140000D01*
G37*
X121520000Y-123280000D02*
X111030000Y-123280000D01*
X111030000Y-64440000D02*
X111030000Y-123280000D01*
X111030000Y-61480000D02*
X111030000Y-63840000D01*
X112150000Y-61480000D02*
X112150000Y-123280000D01*
X119900000Y-61480000D02*
X119900000Y-123280000D01*
X121520000Y-61480000D02*
X121520000Y-123280000D01*
X121520000Y-61480000D02*
X111030000Y-61480000D01*
%TO.C,R12*%
X76262742Y-119477500D02*
X76737258Y-119477500D01*
X76262742Y-120522500D02*
X76737258Y-120522500D01*
%TO.C,R11*%
X76262742Y-114477500D02*
X76737258Y-114477500D01*
X76262742Y-115522500D02*
X76737258Y-115522500D01*
%TO.C,R10*%
X76262742Y-109477500D02*
X76737258Y-109477500D01*
X76262742Y-110522500D02*
X76737258Y-110522500D01*
%TO.C,R8*%
X76262742Y-98977500D02*
X76737258Y-98977500D01*
X76262742Y-100022500D02*
X76737258Y-100022500D01*
%TO.C,R7*%
X76262742Y-93977500D02*
X76737258Y-93977500D01*
X76262742Y-95022500D02*
X76737258Y-95022500D01*
%TO.C,R6*%
X76262742Y-88977500D02*
X76737258Y-88977500D01*
X76262742Y-90022500D02*
X76737258Y-90022500D01*
%TO.C,R5*%
X76262742Y-83477500D02*
X76737258Y-83477500D01*
X76262742Y-84522500D02*
X76737258Y-84522500D01*
%TO.C,R4*%
X76262742Y-78477500D02*
X76737258Y-78477500D01*
X76262742Y-79522500D02*
X76737258Y-79522500D01*
%TO.C,R3*%
X76262742Y-73477500D02*
X76737258Y-73477500D01*
X76262742Y-74522500D02*
X76737258Y-74522500D01*
%TO.C,R2*%
X76262742Y-68477500D02*
X76737258Y-68477500D01*
X76262742Y-69522500D02*
X76737258Y-69522500D01*
%TO.C,R1*%
X76262742Y-63477500D02*
X76737258Y-63477500D01*
X76262742Y-64522500D02*
X76737258Y-64522500D01*
%TO.C,J4*%
X151520000Y-61480000D02*
X141030000Y-61480000D01*
X151520000Y-61480000D02*
X151520000Y-138520000D01*
X149900000Y-61480000D02*
X149900000Y-138520000D01*
X142150000Y-61480000D02*
X142150000Y-138520000D01*
X141030000Y-61480000D02*
X141030000Y-63840000D01*
X141030000Y-64440000D02*
X141030000Y-138520000D01*
X151520000Y-138520000D02*
X141030000Y-138520000D01*
X141030000Y-64140000D02*
X140420000Y-64580000D01*
X140420000Y-63700000D01*
X141030000Y-64140000D01*
G36*
X141030000Y-64140000D02*
G01*
X140420000Y-64580000D01*
X140420000Y-63700000D01*
X141030000Y-64140000D01*
G37*
%TO.C,C12*%
X76359420Y-120990000D02*
X76640580Y-120990000D01*
X76359420Y-122010000D02*
X76640580Y-122010000D01*
%TO.C,C11*%
X76359420Y-115990000D02*
X76640580Y-115990000D01*
X76359420Y-117010000D02*
X76640580Y-117010000D01*
%TO.C,C10*%
X76359420Y-110990000D02*
X76640580Y-110990000D01*
X76359420Y-112010000D02*
X76640580Y-112010000D01*
%TO.C,C9*%
X76359420Y-105460000D02*
X76640580Y-105460000D01*
X76359420Y-106480000D02*
X76640580Y-106480000D01*
%TO.C,C8*%
X76359420Y-100490000D02*
X76640580Y-100490000D01*
X76359420Y-101510000D02*
X76640580Y-101510000D01*
%TO.C,C7*%
X76359420Y-95490000D02*
X76640580Y-95490000D01*
X76359420Y-96510000D02*
X76640580Y-96510000D01*
%TO.C,C6*%
X76359420Y-90490000D02*
X76640580Y-90490000D01*
X76359420Y-91510000D02*
X76640580Y-91510000D01*
%TO.C,C5*%
X76359420Y-84990000D02*
X76640580Y-84990000D01*
X76359420Y-86010000D02*
X76640580Y-86010000D01*
%TO.C,C4*%
X76359420Y-79990000D02*
X76640580Y-79990000D01*
X76359420Y-81010000D02*
X76640580Y-81010000D01*
%TO.C,C3*%
X76359420Y-74990000D02*
X76640580Y-74990000D01*
X76359420Y-76010000D02*
X76640580Y-76010000D01*
%TO.C,C2*%
X76359420Y-69990000D02*
X76640580Y-69990000D01*
X76359420Y-71010000D02*
X76640580Y-71010000D01*
%TO.C,C1*%
X76359420Y-64990000D02*
X76640580Y-64990000D01*
X76359420Y-66010000D02*
X76640580Y-66010000D01*
%TD*%
M02*
