M48
; DRILL file {KiCad 9.0.2} date 2026-01-05T12:02:45+0000
; FORMAT={-:-/ absolute / metric / decimal}
; #@! TF.CreationDate,2026-01-05T12:02:45+00:00
; #@! TF.GenerationSoftware,Kicad,Pcbnew,9.0.2
; #@! TF.FileFunction,Plated,1,2,PTH
FMAT,2
METRIC
; #@! TA.AperFunction,Plated,PTH,ViaDrill
T1C0.300
; #@! TA.AperFunction,Plated,PTH,ComponentDrill
T2C1.600
%
G90
G05
T1
X79.0Y-65.5
X79.0Y-70.5
X79.0Y-75.5
X79.0Y-80.5
X79.0Y-85.5
X79.0Y-91.0
X79.0Y-96.0
X79.0Y-101.0
X79.0Y-106.0
X79.0Y-111.5
X79.0Y-116.5
X79.0Y-121.5
T2
X66.5Y-64.14
X66.5Y-69.22
X66.5Y-74.3
X66.5Y-79.38
X66.5Y-84.46
X66.5Y-89.54
X66.5Y-94.62
X66.5Y-99.7
X66.5Y-104.78
X66.5Y-109.86
X66.5Y-114.94
X66.5Y-120.02
X66.5Y-125.1
X66.5Y-130.18
X66.5Y-135.26
X86.5Y-64.14
X86.5Y-69.22
X86.5Y-74.3
X86.5Y-79.38
X86.5Y-84.46
X86.5Y-89.54
X86.5Y-94.62
X86.5Y-99.7
X86.5Y-104.78
X86.5Y-109.86
X86.5Y-114.94
X86.5Y-120.02
X116.5Y-64.14
X116.5Y-69.22
X116.5Y-74.3
X116.5Y-79.38
X116.5Y-84.46
X116.5Y-89.54
X116.5Y-94.62
X116.5Y-99.7
X116.5Y-104.78
X116.5Y-109.86
X116.5Y-114.94
X116.5Y-120.02
X146.5Y-64.14
X146.5Y-69.22
X146.5Y-74.3
X146.5Y-79.38
X146.5Y-84.46
X146.5Y-89.54
X146.5Y-94.62
X146.5Y-99.7
X146.5Y-104.78
X146.5Y-109.86
X146.5Y-114.94
X146.5Y-120.02
X146.5Y-125.1
X146.5Y-130.18
X146.5Y-135.26
M30
